SplineFontDB: 3.2
FontName: font-logos
FullName: font-logos
FamilyName: font-logos
Weight: Book
Copyright: Copyright (c) 2014-2024, Lukas W
Version: 1.3.0
ItalicAngle: 0
UnderlinePosition: -49
UnderlineWidth: 25
Ascent: 410
Descent: 102
InvalidEm: 0
sfntRevision: 0x00014ccc
LayerCount: 2
Layer: 0 1 "Back" 1
Layer: 1 1 "Fore" 0
XUID: [1021 920 -1476719002 4776880]
StyleMap: 0x0000
FSType: 0
OS2Version: 4
OS2_WeightWidthSlopeOnly: 0
OS2_UseTypoMetrics: 1
CreationTime: 1730102227
ModificationTime: 1741787923
PfmFamily: 17
TTFWeight: 400
TTFWidth: 5
LineGap: 46
VLineGap: 0
Panose: 2 0 5 3 0 0 0 0 0 0
OS2TypoAscent: 410
OS2TypoAOffset: 0
OS2TypoDescent: -102
OS2TypoDOffset: 0
OS2TypoLinegap: 46
OS2WinAscent: 419
OS2WinAOffset: 0
OS2WinDescent: 110
OS2WinDOffset: 0
HheadAscent: 419
HheadAOffset: 0
HheadDescent: -110
HheadDOffset: 0
OS2SubXSize: 332
OS2SubYSize: 358
OS2SubXOff: 0
OS2SubYOff: 71
OS2SupXSize: 332
OS2SupYSize: 358
OS2SupXOff: 0
OS2SupYOff: 245
OS2StrikeYSize: 25
OS2StrikeYPos: 132
OS2Vendor: 'PfEd'
OS2CodePages: 00000001.00000000
OS2UnicodeRanges: 00000001.10000000.00000000.00000000
DEI: 91125
ShortTable: cvt  2
  17
  324
EndShort
ShortTable: maxp 16
  1
  0
  135
  2257
  70
  0
  0
  2
  0
  1
  1
  0
  64
  46
  0
  0
EndShort
LangName: 1033 "" "" "" "FontForge 2.0 : font-logos : 28-10-2024" "" "1.3.0" "" "" "" "" "" "https://github.com/Lukas-W/font-logos"
GaspTable: 1 65535 2 0
Encoding: UnicodeBmp
UnicodeInterp: none
NameList: AGL For New Fonts
DisplaySize: -96
AntiAlias: 1
FitToEm: 0
WinInfo: 62206 19 8
BeginChars: 65539 135

StartChar: .notdef
Encoding: 65536 -1 0
Width: 187
GlyphClass: 1
Flags: W
LayerCount: 2
Fore
SplineSet
17 0 m 1,0,-1
 17 341 l 1,1,-1
 153 341 l 1,2,-1
 153 0 l 1,3,-1
 17 0 l 1,0,-1
34 17 m 1,4,-1
 136 17 l 1,5,-1
 136 324 l 1,6,-1
 34 324 l 1,7,-1
 34 17 l 1,4,-1
EndSplineSet
Validated: 1
EndChar

StartChar: Alpine
Encoding: 62208 62208 4
Width: 489
GlyphClass: 1
Flags: W
LayerCount: 2
Fore
SplineSet
178 102 m 1,0,-1
 178 154 l 1,1,-1
 141 116 l 1,2,3
 146 112 146 112 152 109 c 0,4,5
 157 107 157 107 162 105 c 0,6,7
 166 104 166 104 170 103 c 256,8,9
 174 102 174 102 178 102 c 1,0,-1
367 106 m 2,10,11
 368 106 368 106 368 105 c 1,12,13
 370 105 370 105 371 104 c 0,14,15
 374 103 374 103 376 103 c 0,16,17
 379 102 379 102 383 102 c 128,-1,18
 387 102 387 102 390 103 c 0,19,20
 395 103 395 103 399 105 c 0,21,22
 404 107 404 107 409 109 c 0,23,24
 415 112 415 112 421 116 c 1,25,-1
 392 144 l 1,26,-1
 299 237 l 1,27,-1
 258 196 l 1,28,-1
 203 253 l 1,29,-1
 64 116 l 1,30,31
 70 112 70 112 76 109 c 0,32,33
 81 107 81 107 86 105 c 0,34,35
 90 103 90 103 95 103 c 0,36,37
 98 102 98 102 102 102 c 128,-1,38
 106 102 106 102 109 103 c 0,39,40
 111 103 111 103 114 104 c 0,41,42
 115 105 115 105 117 106 c 2,43,44
 117 106 117 106 118 106 c 2,45,-1
 180 169 l 1,46,-1
 203 190 l 1,47,-1
 265 129 l 1,48,-1
 286 106 l 2,49,50
 287 106 287 106 287 105 c 1,51,52
 289 105 289 105 290 104 c 0,53,54
 293 103 293 103 295 103 c 0,55,56
 298 102 298 102 302 102 c 128,-1,57
 306 102 306 102 309 103 c 0,58,59
 314 103 314 103 318 105 c 0,60,61
 323 107 323 107 328 109 c 0,62,63
 334 112 334 112 340 116 c 1,64,-1
 290 165 l 1,65,-1
 299 174 l 1,66,-1
 342 131 l 1,67,-1
 367 106 l 2,10,11
367 366 m 1,68,-1
 489 154 l 1,69,-1
 367 -58 l 1,70,-1
 122 -58 l 1,71,-1
 0 154 l 1,72,-1
 122 366 l 1,73,-1
 367 366 l 1,68,-1
290 164 m 1,74,-1
 258 197 l 1,75,-1
 260 199 l 1,76,-1
 293 167 l 1,77,-1
 290 164 l 1,74,-1
EndSplineSet
Validated: 5
EndChar

StartChar: AOSC
Encoding: 62209 62209 5
Width: 497
GlyphClass: 1
Flags: W
LayerCount: 2
Fore
SplineSet
249 403 m 128,-1,1
 352 403 352 403 424.5 330 c 128,-1,2
 497 257 497 257 497 154 c 128,-1,3
 497 51 497 51 424.5 -22 c 128,-1,4
 352 -95 352 -95 249 -95 c 128,-1,5
 146 -95 146 -95 73 -22 c 128,-1,6
 0 51 0 51 0 154 c 128,-1,7
 0 257 0 257 73 330 c 128,-1,0
 146 403 146 403 249 403 c 128,-1,1
249 337 m 0,8,9
 244 337 244 337 240 337 c 1,10,-1
 246 243 l 2,11,12
 247 243 247 243 248 243 c 0,13,14
 286 243 286 243 312 217 c 128,-1,15
 338 191 338 191 338 155 c 0,16,17
 338 134 338 134 329 116 c 1,18,-1
 413 72 l 1,19,20
 432 111 432 111 432 154 c 0,21,22
 432 230 432 230 378.5 283.5 c 128,-1,23
 325 337 325 337 249 337 c 0,8,9
235 337 m 1,24,-1
 234 336 l 1,25,-1
 234 337 l 1,26,-1
 235 337 l 1,24,-1
87 241 m 1,27,28
 66 200 66 200 66 154 c 0,29,30
 66 78 66 78 119.5 24.5 c 128,-1,31
 173 -29 173 -29 249 -29 c 0,32,33
 256 -29 256 -29 264 -29 c 1,34,-1
 258 66 l 1,35,36
 253 66 253 66 248 66 c 0,37,38
 211 66 211 66 184.5 92 c 128,-1,39
 158 118 158 118 158 155 c 0,40,41
 158 178 158 178 170 198 c 1,42,-1
 87 241 l 1,27,28
EndSplineSet
Validated: 1
EndChar

StartChar: Apple
Encoding: 62210 62210 6
Width: 431
GlyphClass: 1
Flags: W
LayerCount: 2
Fore
SplineSet
422 11 m 0,0,1
 411 -16 411 -16 395 -38 c 0,2,3
 373 -69 373 -69 359 -81 c 0,4,5
 338 -101 338 -101 314 -101 c 0,6,7
 296 -101 296 -101 271.5 -91 c 128,-1,8
 247 -81 247 -81 226 -81 c 0,9,10
 204 -81 204 -81 179.5 -91 c 128,-1,11
 155 -101 155 -101 139 -102 c 0,12,13
 116 -103 116 -103 93 -81 c 0,14,15
 78 -68 78 -68 56 -37 c 0,16,17
 32 -3 32 -3 16 41 c 0,18,19
 0 89 0 89 0 134 c 0,20,21
 0 185 0 185 22 222 c 0,22,23
 40 252 40 252 69 269.5 c 128,-1,24
 98 287 98 287 132 287 c 0,25,26
 150 287 150 287 180.5 276 c 128,-1,27
 211 265 211 265 219 265 c 0,28,29
 226 265 226 265 262 278 c 0,30,31
 297 290 297 290 321 288 c 0,32,33
 385 283 385 283 418 237 c 1,34,35
 360 202 360 202 360 139 c 0,36,37
 361 90 361 90 396 58 c 0,38,39
 412 43 412 43 431 35 c 1,40,41
 427 22 427 22 422 11 c 0,0,1
323 400 m 0,42,43
 323 361 323 361 295 328 c 0,44,45
 259 286 259 286 216 289 c 1,46,47
 216 294 216 294 216 299 c 0,48,49
 216 337 216 337 245 371 c 0,50,51
 260 387 260 387 281.5 398 c 128,-1,52
 303 409 303 409 323 410 c 1,53,54
 323 405 323 405 323 400 c 0,42,43
EndSplineSet
Validated: 33
EndChar

StartChar: Arch
Encoding: 62211 62211 7
Width: 512
GlyphClass: 1
Flags: W
LayerCount: 2
Fore
SplineSet
243 397 m 1,0,1
 247 388 247 388 258.5 361.5 c 128,-1,2
 270 335 270 335 273 327.5 c 128,-1,3
 276 320 276 320 286.5 296 c 128,-1,4
 297 272 297 272 303.5 258.5 c 128,-1,5
 310 245 310 245 323.5 218 c 128,-1,6
 337 191 337 191 351 164.5 c 128,-1,7
 365 138 365 138 384.5 100.5 c 128,-1,8
 404 63 404 63 428 19 c 1,9,10
 402 34 402 34 361 45 c 1,11,12
 376 37 376 37 390 28 c 128,-1,13
 404 19 404 19 411 14 c 128,-1,14
 418 9 418 9 430 -0.5 c 128,-1,15
 442 -10 442 -10 445 -13 c 0,16,17
 476 -70 476 -70 486 -89 c 1,18,19
 369 -21 369 -21 296 -7 c 1,20,21
 299 5 299 5 299 19 c 0,22,23
 300 56 300 56 284.5 84 c 128,-1,24
 269 112 269 112 246 113.5 c 128,-1,25
 223 115 223 115 206.5 90.5 c 128,-1,26
 190 66 190 66 189 29 c 2,27,-1
 189 26 l 2,28,29
 189 10 189 10 192 -7 c 1,30,31
 119 -21 119 -21 0 -89 c 1,32,33
 130 144 130 144 177 243 c 1,34,35
 203 221 203 221 247 203 c 1,36,37
 214 226 214 226 184 258 c 1,38,39
 200 291 200 291 243 397 c 1,0,1
488 -46 m 1,40,-1
 488 -32 l 1,41,-1
 484 -32 l 1,42,-1
 484 -31 l 1,43,-1
 495 -31 l 1,44,-1
 495 -32 l 1,45,-1
 490 -32 l 1,46,-1
 490 -46 l 1,47,-1
 488 -46 l 1,48,-1
 488 -46 l 1,40,-1
498 -46 m 1,49,-1
 498 -31 l 1,50,-1
 501 -31 l 1,51,-1
 504 -41 l 2,52,53
 505 -43 505 -43 505 -44 c 1,54,55
 505 -43 505 -43 506 -41 c 2,56,-1
 509 -31 l 1,57,-1
 512 -31 l 1,58,-1
 512 -46 l 1,59,-1
 510 -46 l 1,60,-1
 510 -33 l 1,61,-1
 506 -46 l 1,62,-1
 504 -46 l 1,63,-1
 500 -33 l 1,64,-1
 500 -46 l 1,65,-1
 498 -46 l 1,66,-1
 498 -46 l 1,49,-1
EndSplineSet
Validated: 37
EndChar

StartChar: CentOS
Encoding: 62212 62212 8
Width: 512
GlyphClass: 1
Flags: W
LayerCount: 2
Fore
SplineSet
0 154 m 1,0,1
 9 163 9 163 26 180 c 128,-1,2
 43 197 43 197 52 206 c 1,3,-1
 52 169 l 1,4,-1
 204 169 l 2,5,6
 207 167 207 167 209.5 164.5 c 128,-1,7
 212 162 212 162 215 158.5 c 128,-1,8
 218 155 218 155 220 154 c 1,9,10
 218 151 218 151 213.5 147 c 128,-1,11
 209 143 209 143 207 141 c 2,12,-1
 52 141 l 1,13,-1
 52 102 l 1,14,15
 26 128 26 128 0 154 c 1,0,1
460 172 m 2,16,-1
 460 206 l 1,17,18
 468 198 468 198 476.5 189.5 c 128,-1,19
 485 181 485 181 495.5 170.5 c 128,-1,20
 506 160 506 160 512 154 c 1,21,22
 503 145 503 145 486 128 c 128,-1,23
 469 111 469 111 460 102 c 1,24,-1
 460 139 l 1,25,-1
 308 139 l 2,26,27
 304 142 304 142 298.5 147.5 c 128,-1,28
 293 153 293 153 292 154 c 0,29,30
 294 157 294 157 298.5 161 c 128,-1,31
 303 165 303 165 305 168 c 0,32,33
 318 168 318 168 375.5 167.5 c 128,-1,34
 433 167 433 167 445 168 c 0,35,36
 459 167 459 167 460 172 c 2,16,-1
204 358 m 1,37,38
 230 384 230 384 256 410 c 1,39,40
 262 404 262 404 272.5 393.5 c 128,-1,41
 283 383 283 383 291.5 374.5 c 128,-1,42
 300 366 300 366 308 358 c 1,43,-1
 271 358 l 1,44,-1
 271 207 l 2,45,46
 269 203 269 203 263 197 c 128,-1,47
 257 191 257 191 256 190 c 1,48,49
 249 197 249 197 243 203 c 1,50,-1
 243 358 l 1,51,-1
 204 358 l 1,37,38
241 103 m 2,52,53
 244 106 244 106 249 111 c 128,-1,54
 254 116 254 116 256 118 c 1,55,56
 258 116 258 116 262.5 111.5 c 128,-1,57
 267 107 267 107 270 105 c 2,58,-1
 270 -50 l 1,59,-1
 308 -50 l 1,60,61
 299 -59 299 -59 282 -76 c 128,-1,62
 265 -93 265 -93 256 -102 c 1,63,-1
 204 -50 l 1,64,-1
 241 -50 l 1,65,-1
 241 103 l 2,52,53
69 223 m 1,66,67
 89 244 89 244 110 264 c 1,68,69
 119 255 119 255 134.5 239.5 c 128,-1,70
 150 224 150 224 163 211 c 128,-1,71
 176 198 176 198 188 186 c 1,72,-1
 69 186 l 1,73,74
 69 205 69 205 69 223 c 1,66,67
187 340 m 1,75,-1
 225 340 l 1,76,-1
 225 221 l 1,77,-1
 147 299 l 1,78,-1
 187 340 l 1,75,-1
145 7 m 1,79,80
 158 20 158 20 184 46 c 128,-1,81
 210 72 210 72 223 85 c 1,82,-1
 223 -34 l 1,83,-1
 222 -34 l 1,84,-1
 221 -34 l 1,85,-1
 220 -34 l 1,86,-1
 219 -34 l 1,87,-1
 218 -34 l 1,88,-1
 217 -34 l 1,89,-1
 216 -34 l 1,90,-1
 215 -34 l 1,91,-1
 214 -34 l 1,92,-1
 213 -34 l 1,93,-1
 212 -34 l 1,94,-1
 211 -34 l 1,95,-1
 210 -34 l 1,96,-1
 209 -34 l 1,97,-1
 208 -34 l 1,98,-1
 207 -34 l 1,99,-1
 206 -34 l 1,100,-1
 205 -34 l 1,101,-1
 204 -34 l 1,102,-1
 203 -34 l 1,103,-1
 202 -34 l 1,104,-1
 201 -34 l 1,105,-1
 200 -34 l 1,106,-1
 199 -34 l 1,107,-1
 198 -34 l 1,108,-1
 197 -34 l 1,109,-1
 196 -34 l 1,110,-1
 195 -34 l 1,111,-1
 194 -34 l 1,112,-1
 193 -34 l 1,113,-1
 192 -34 l 1,114,-1
 191 -34 l 1,115,-1
 190 -34 l 1,116,-1
 189 -34 l 1,117,-1
 188 -34 l 1,118,-1
 186 -34 l 1,119,120
 181 -29 181 -29 173 -21 c 128,-1,121
 165 -13 165 -13 158 -6 c 128,-1,122
 151 1 151 1 145 7 c 1,79,80
69 85 m 1,123,124
 69 91 69 91 69 103.5 c 128,-1,125
 69 116 69 116 69 122 c 1,126,-1
 188 122 l 1,127,128
 175 109 175 109 149 83 c 128,-1,129
 123 57 123 57 110 44 c 1,130,-1
 69 85 l 1,123,124
288 222 m 1,131,-1
 288 342 l 1,132,-1
 289 342 l 1,133,-1
 290 342 l 1,134,-1
 291 342 l 1,135,-1
 292 342 l 1,136,-1
 293 342 l 1,137,-1
 294 342 l 1,138,-1
 295 342 l 1,139,-1
 296 342 l 1,140,-1
 297 342 l 1,141,-1
 298 342 l 1,142,-1
 299 342 l 1,143,-1
 300 342 l 1,144,-1
 301 342 l 1,145,-1
 302 342 l 1,146,-1
 303 342 l 1,147,-1
 304 342 l 1,148,-1
 305 342 l 1,149,-1
 306 342 l 1,150,-1
 307 342 l 1,151,-1
 308 342 l 1,152,-1
 309 341 l 1,153,-1
 310 341 l 1,154,-1
 311 341 l 1,155,-1
 312 341 l 1,156,-1
 313 341 l 1,157,-1
 314 341 l 1,158,-1
 315 341 l 1,159,-1
 316 341 l 1,160,-1
 317 341 l 1,161,-1
 318 341 l 1,162,-1
 319 341 l 1,163,-1
 320 341 l 1,164,-1
 321 341 l 1,165,-1
 322 341 l 1,166,-1
 323 341 l 1,167,-1
 325 341 l 1,168,169
 345 321 345 321 366 301 c 1,170,-1
 288 222 l 1,131,-1
323 186 m 1,171,-1
 401 264 l 1,172,173
 421 243 421 243 442 223 c 1,174,175
 442 217 442 217 442 204.5 c 128,-1,176
 442 192 442 192 442 186 c 1,177,-1
 323 186 l 1,171,-1
402 45 m 1,178,179
 389 58 389 58 363 84 c 128,-1,180
 337 110 337 110 324 123 c 1,181,-1
 443 123 l 1,182,183
 443 116 443 116 443 104 c 128,-1,184
 443 92 443 92 443 85 c 1,185,-1
 402 45 l 1,178,179
288 -31 m 1,186,-1
 288 88 l 1,187,188
 301 75 301 75 327 49 c 128,-1,189
 353 23 353 23 366 10 c 1,190,-1
 325 -31 l 1,191,192
 306 -31 306 -31 288 -31 c 1,186,-1
69 248 m 1,193,-1
 69 341 l 1,194,-1
 163 341 l 1,195,196
 136 315 136 315 121 300 c 1,197,-1
 225 198 l 1,198,-1
 225 186 l 1,199,-1
 212 186 l 1,200,201
 144 254 144 254 110 288 c 1,202,203
 104 282 104 282 69 248 c 1,193,-1
288 123 m 1,204,-1
 300 123 l 1,205,-1
 403 20 l 1,206,-1
 444 61 l 1,207,-1
 444 -33 l 1,208,-1
 351 -33 l 1,209,-1
 392 9 l 1,210,-1
 288 112 l 1,211,-1
 288 123 l 1,204,-1
388 304 m 1,212,-1
 350 342 l 1,213,-1
 444 342 l 1,214,-1
 444 248 l 1,215,-1
 402 290 l 1,216,-1
 299 186 l 1,217,-1
 289 186 l 1,218,-1
 289 199 l 1,219,-1
 381 292 l 1,220,-1
 388 304 l 1,212,-1
211 122 m 1,221,-1
 223 122 l 1,222,-1
 223 109 l 1,223,-1
 122 7 l 1,224,-1
 163 -33 l 1,225,-1
 70 -33 l 1,226,-1
 70 60 l 1,227,-1
 111 19 l 1,228,-1
 211 122 l 1,221,-1
EndSplineSet
Validated: 33
EndChar

StartChar: CoreOS
Encoding: 62213 62213 9
Width: 496
GlyphClass: 1
Flags: W
LayerCount: 2
Fore
SplineSet
247.5 403 m 128,-1,1
 350 403 350 403 423 330 c 128,-1,2
 496 257 496 257 496 154.5 c 128,-1,3
 496 52 496 52 423 -20.5 c 128,-1,4
 350 -93 350 -93 247.5 -93 c 128,-1,5
 145 -93 145 -93 72.5 -20.5 c 128,-1,6
 0 52 0 52 0 154.5 c 128,-1,7
 0 257 0 257 72.5 330 c 128,-1,0
 145 403 145 403 247.5 403 c 128,-1,1
248 380 m 0,8,9
 218 380 218 380 194.5 337.5 c 128,-1,10
 171 295 171 295 162 228 c 0,11,12
 161 224 161 224 161 219 c 0,13,14
 158 198 158 198 158 176 c 0,15,16
 157 166 157 166 157 154.5 c 128,-1,17
 157 143 157 143 158 134 c 0,18,19
 158 112 158 112 161 91 c 1,20,21
 189 87 189 87 220 86 c 0,22,23
 234 85 234 85 248 85 c 128,-1,24
 262 85 262 85 275 86 c 0,25,26
 307 87 307 87 335 91 c 0,27,28
 336 91 336 91 341 92 c 0,29,30
 400 100 400 100 436.5 117 c 128,-1,31
 473 134 473 134 473 155 c 0,32,33
 473 248 473 248 407 314 c 128,-1,34
 341 380 341 380 248 380 c 0,8,9
248 267 m 0,35,36
 300 267 300 267 334 228 c 0,37,38
 338 223 338 223 341 218 c 0,39,40
 360 190 360 190 360 155 c 0,41,42
 360 143 360 143 338 134 c 128,-1,43
 316 125 316 125 281 122 c 0,44,45
 265 120 265 120 248 120 c 128,-1,46
 231 120 231 120 215 122 c 1,47,48
 213 138 213 138 213 155 c 128,-1,49
 213 172 213 172 215 188 c 0,50,51
 217 208 217 208 220 224 c 0,52,53
 231 267 231 267 248 267 c 0,35,36
EndSplineSet
Validated: 1
EndChar

StartChar: Debian
Encoding: 62214 62214 10
Width: 409
GlyphClass: 1
Flags: W
LayerCount: 2
Fore
SplineSet
0 243 m 1,0,1
 1 245 1 245 0.5 248 c 128,-1,2
 0 251 0 251 0.5 254 c 128,-1,3
 1 257 1 257 5 261 c 1,4,5
 1 246 1 246 0 243 c 1,0,1
17 299 m 1,6,7
 17 298 17 298 20.5 298.5 c 128,-1,8
 24 299 24 299 20 291 c 0,9,10
 17 289 17 289 15 287 c 2,11,-1
 14 287 l 1,12,13
 18 293 18 293 17 299 c 1,6,7
214 406 m 2,14,-1
 211 406 l 1,15,16
 212 407 212 407 234 408 c 1,17,18
 232 408 232 408 224.5 407.5 c 128,-1,19
 217 407 217 407 214 406 c 2,14,-1
397 179 m 1,20,21
 394 152 394 152 381 129 c 1,22,23
 392 151 392 151 396 176 c 1,24,-1
 397 179 l 1,20,21
165 129 m 2,25,-1
 168 121 l 1,26,27
 160 134 160 134 159 140 c 1,28,29
 163 131 163 131 165 129 c 2,25,-1
152 128 m 1,30,31
 156 121 156 121 161 113 c 128,-1,32
 166 105 166 105 168 101 c 1,33,34
 165 103 165 103 151 122 c 1,35,-1
 152 128 l 1,30,31
362 189 m 1,36,37
 362 181 362 181 354 157 c 1,38,-1
 346 153 l 1,39,40
 343 147 343 147 343.5 144 c 128,-1,41
 344 141 344 141 343 136 c 0,42,43
 313 110 313 110 308 109 c 0,44,45
 307 110 307 110 312 116 c 1,46,47
 308 113 308 113 304 109 c 128,-1,48
 300 105 300 105 296 102.5 c 128,-1,49
 292 100 292 100 283 98 c 1,50,-1
 283 99 l 1,51,52
 247 82 247 82 209 109.5 c 128,-1,53
 171 137 171 137 171 181 c 1,54,55
 171 180 171 180 169 176 c 1,56,57
 167 200 167 200 178.5 220.5 c 128,-1,58
 190 241 190 241 211 251 c 256,59,60
 232 261 232 261 253.5 257.5 c 128,-1,61
 275 254 275 254 290 240 c 1,62,63
 268 270 268 270 232 268 c 0,64,65
 214 268 214 268 198 258 c 128,-1,66
 182 248 182 248 176 235 c 1,67,68
 169 230 169 230 163.5 215.5 c 128,-1,69
 158 201 158 201 157 199 c 0,70,71
 151 161 151 161 163.5 138.5 c 128,-1,72
 176 116 176 116 207 93 c 0,73,74
 211 92 211 92 210.5 88.5 c 128,-1,75
 210 85 210 85 210 85 c 1,76,77
 191 94 191 94 177 110 c 1,78,79
 186 97 186 97 194 91 c 1,80,81
 188 93 188 93 176 106 c 128,-1,82
 164 119 164 119 163 119 c 1,83,84
 178 93 178 93 214.5 77 c 128,-1,85
 251 61 251 61 274 71 c 1,86,87
 244 69 244 69 225 76 c 0,88,89
 221 78 221 78 217.5 80.5 c 128,-1,90
 214 83 214 83 211.5 85.5 c 128,-1,91
 209 88 209 88 210 89 c 0,92,93
 280 62 280 62 335 106 c 0,94,95
 339 109 339 109 344.5 114.5 c 128,-1,96
 350 120 350 120 353.5 123 c 128,-1,97
 357 126 357 126 358 126 c 1,98,99
 356 123 356 123 356.5 121.5 c 128,-1,100
 357 120 357 120 355 117 c 1,101,102
 359 124 359 124 358.5 128.5 c 128,-1,103
 358 133 358 133 365 143 c 1,104,-1
 370 136 l 1,105,106
 369 142 369 142 377 158 c 128,-1,107
 385 174 385 174 384 184 c 0,108,109
 387 189 387 189 387 181 c 0,110,111
 387 174 387 174 384 164 c 1,112,113
 388 169 388 169 387.5 180.5 c 128,-1,114
 387 192 387 192 387 195 c 1,115,116
 392 183 392 183 392 181 c 1,117,118
 391 191 391 191 391.5 195 c 128,-1,119
 392 199 392 199 395 206 c 128,-1,120
 398 213 398 213 398 215 c 0,121,122
 398 216 398 216 396.5 215.5 c 128,-1,123
 395 215 395 215 394.5 215 c 128,-1,124
 394 215 394 215 393 217.5 c 128,-1,125
 392 220 392 220 391 227 c 0,126,127
 391 231 391 231 392.5 232 c 128,-1,128
 394 233 394 233 394 233 c 1,129,130
 390 235 390 235 386 251 c 0,131,132
 387 252 387 252 388.5 250 c 128,-1,133
 390 248 390 248 391 246 c 128,-1,134
 392 244 392 244 393 243 c 1,135,136
 393 246 393 246 391 254 c 128,-1,137
 389 262 389 262 389 266 c 0,138,139
 386 274 386 274 384 271 c 0,140,141
 383 269 383 269 381 273 c 0,142,143
 378 281 378 281 379 283.5 c 128,-1,144
 380 286 380 286 381.5 285.5 c 128,-1,145
 383 285 383 285 385.5 285 c 128,-1,146
 388 285 388 285 388 289 c 1,147,148
 398 274 398 274 409 236 c 1,149,150
 406 254 406 254 398 274 c 1,151,152
 400 273 400 273 399 281 c 0,153,154
 398 287 398 287 398 288 c 1,155,156
 399 288 399 288 403 281 c 1,157,158
 395 310 395 310 373 335.5 c 128,-1,159
 351 361 351 361 325 374 c 1,160,161
 334 366 334 366 332 366 c 0,162,163
 327 369 327 369 323.5 371.5 c 128,-1,164
 320 374 320 374 319.5 375 c 128,-1,165
 319 376 319 376 318 377.5 c 128,-1,166
 317 379 317 379 317 380 c 0,167,168
 312 384 312 384 304 382 c 128,-1,169
 296 380 296 380 294 380 c 0,170,171
 283 386 283 386 276 388.5 c 128,-1,172
 269 391 269 391 259.5 394 c 128,-1,173
 250 397 250 397 242 400 c 1,174,-1
 243 395 l 1,175,176
 237 398 237 398 225.5 396 c 128,-1,177
 214 394 214 394 207 395 c 1,178,-1
 218 399 l 1,179,180
 211 398 211 398 203 399 c 128,-1,181
 195 400 195 400 188 398 c 1,182,183
 188 398 188 398 200 405 c 1,184,185
 195 404 195 404 184 402 c 0,186,187
 174 402 174 402 175 403 c 1,188,189
 172 402 172 402 157 396 c 128,-1,190
 142 390 142 390 134 386 c 128,-1,191
 126 382 126 382 114.5 375 c 128,-1,192
 103 368 103 368 96 361 c 1,193,-1
 95 366 l 1,194,195
 92 362 92 362 80.5 352 c 128,-1,196
 69 342 69 342 60.5 332.5 c 128,-1,197
 52 323 52 323 51 317 c 1,198,-1
 48 316 l 1,199,200
 48 316 48 316 36 290 c 0,201,202
 30 279 30 279 28 284 c 1,203,204
 16 259 16 259 3 218 c 0,205,206
 5 215 5 215 5 205 c 128,-1,207
 5 195 5 195 4.5 183.5 c 128,-1,208
 4 172 4 172 4 159 c 0,209,210
 0 75 0 75 54 0 c 128,-1,211
 108 -75 108 -75 182 -95 c 0,212,213
 193 -99 193 -99 234 -100 c 1,214,215
 225 -98 225 -98 213 -96 c 128,-1,216
 201 -94 201 -94 190 -90 c 0,217,218
 184 -87 184 -87 179.5 -83.5 c 128,-1,219
 175 -80 175 -80 170 -74.5 c 128,-1,220
 165 -69 165 -69 162 -66 c 1,221,-1
 166 -73 l 1,222,223
 156 -70 156 -70 151 -66 c 128,-1,224
 146 -62 146 -62 137 -59 c 1,225,-1
 142 -53 l 1,226,227
 137 -53 137 -53 130.5 -47 c 128,-1,228
 124 -41 124 -41 121 -36 c 1,229,-1
 114 -37 l 1,230,231
 101 -20 101 -20 101 -12 c 1,232,-1
 99 -16 l 1,233,234
 98 -15 98 -15 94 -9 c 0,235,236
 75 16 75 16 78 17 c 0,237,238
 79 17 79 17 82 16 c 1,239,240
 73 24 73 24 71 27 c 2,241,-1
 74 31 l 1,242,243
 60 49 60 49 61 57 c 1,244,245
 65 51 65 51 71 49 c 1,246,247
 64 65 64 65 59.5 70 c 128,-1,248
 55 75 55 75 52 73.5 c 128,-1,249
 49 72 49 72 45.5 76.5 c 128,-1,250
 42 81 42 81 37 96 c 1,251,-1
 40 97 l 1,252,253
 40 97 40 97 34 107 c 1,254,-1
 36 120 l 1,255,256
 31 126 31 126 29.5 138.5 c 128,-1,257
 28 151 28 151 29 161.5 c 128,-1,258
 30 172 30 172 31.5 190 c 128,-1,259
 33 208 33 208 34 214 c 256,260,261
 35 220 35 220 42.5 234 c 128,-1,262
 50 248 50 248 52 255 c 1,263,-1
 48 256 l 1,264,265
 57 271 57 271 80.5 293.5 c 128,-1,266
 104 316 104 316 117 315 c 1,267,-1
 120 320 l 1,268,-1
 118 319 l 2,269,270
 114 316 114 316 113 318 c 0,271,272
 122 327 122 327 128 330.5 c 128,-1,273
 134 334 134 334 142 334.5 c 128,-1,274
 150 335 150 335 153 336 c 2,275,-1
 157 340 l 1,276,277
 156 339 156 339 153 339 c 0,278,279
 147 338 147 338 147 340 c 0,280,281
 157 342 157 342 168.5 349 c 128,-1,282
 180 356 180 356 199 358 c 0,283,284
 200 357 200 357 196 355 c 0,285,286
 189 353 189 353 188 352 c 1,287,288
 203 360 203 360 232.5 358 c 128,-1,289
 262 356 262 356 284 346 c 0,290,291
 312 333 312 333 335 301.5 c 128,-1,292
 358 270 358 270 359 237 c 1,293,-1
 361 237 l 1,294,295
 361 232 361 232 361 220 c 128,-1,296
 361 208 361 208 360.5 198 c 128,-1,297
 360 188 360 188 357 180 c 1,298,-1
 362 189 l 1,299,-1
 362 189 l 1,36,37
221 399 m 1,300,-1
 218 399 l 1,301,-1
 221 399 l 1,300,-1
212 402 m 1,302,303
 212 402 212 402 224 400 c 1,304,305
 223 400 223 400 221 399 c 1,306,307
 222 400 222 400 215 401 c 0,308,309
 213 402 213 402 212 402 c 1,302,303
306 194 m 0,310,311
 305 191 305 191 304 195 c 0,312,313
 302 199 302 199 302 199 c 2,314,315
 303 202 303 202 304 204 c 256,316,317
 305 206 305 206 306 203 c 256,318,319
 307 200 307 200 306 194 c 0,310,311
290 151 m 1,320,321
 298 162 298 162 299 173 c 1,322,323
 299 169 299 169 292 158 c 0,324,325
 285 153 285 153 285 155 c 256,326,327
 285 157 285 157 288 162 c 0,328,329
 292 168 292 168 292 170 c 1,330,331
 287 162 287 162 285 158.5 c 128,-1,332
 283 155 283 155 284.5 154.5 c 128,-1,333
 286 154 286 154 288 153.5 c 128,-1,334
 290 153 290 153 290 151 c 1,335,-1
 290 151 l 1,320,321
244 140 m 1,336,337
 235 139 235 139 247 136 c 0,338,339
 252 134 252 134 257 134 c 0,340,341
 261 137 261 137 265 141 c 1,342,343
 256 138 256 138 244 140 c 1,344,-1
 244 140 l 1,336,337
EndSplineSet
Validated: 37
EndChar

StartChar: Devuan
Encoding: 62215 62215 11
Width: 488
GlyphClass: 1
Flags: W
LayerCount: 2
Fore
SplineSet
0 390 m 1,0,1
 128 371 128 371 226.5 342.5 c 128,-1,2
 325 314 325 314 379.5 283.5 c 128,-1,3
 434 253 434 253 460.5 224 c 128,-1,4
 487 195 487 195 488 170 c 0,5,6
 489 136 489 136 446.5 97.5 c 128,-1,7
 404 59 404 59 343 29 c 128,-1,8
 282 -1 282 -1 220.5 -26 c 128,-1,9
 159 -51 159 -51 116 -64 c 2,10,-1
 73 -78 l 2,11,12
 71 -79 71 -79 68.5 -79.5 c 128,-1,13
 66 -80 66 -80 57.5 -81.5 c 128,-1,14
 49 -83 49 -83 42 -80 c 0,15,16
 20 -75 20 -75 8 -56 c 0,17,18
 -5 -33 -5 -33 10 -8 c 0,19,20
 22 12 22 12 47 15 c 0,21,22
 57 18 57 18 74.5 22 c 128,-1,23
 92 26 92 26 139.5 39 c 128,-1,24
 187 52 187 52 227.5 66.5 c 128,-1,25
 268 81 268 81 311 103.5 c 128,-1,26
 354 126 354 126 376 149 c 128,-1,27
 398 172 398 172 395.5 201 c 128,-1,28
 393 230 393 230 355.5 259 c 128,-1,29
 318 288 318 288 228.5 322 c 128,-1,30
 139 356 139 356 0 390 c 1,0,1
0 390 m 1024,31,-1
EndSplineSet
Validated: 33
EndChar

StartChar: Docker
Encoding: 62216 62216 12
Width: 507
GlyphClass: 1
Flags: W
LayerCount: 2
Fore
SplineSet
263 225 m 1,0,-1
 315 225 l 1,1,-1
 315 172 l 1,2,-1
 341 172 l 2,3,4
 359 172 359 172 377 178 c 0,5,6
 387 181 387 181 395 186 c 1,7,8
 384 199 384 199 383 219 c 0,9,10
 380 251 380 251 395 269 c 2,11,-1
 401 276 l 1,12,-1
 407 270 l 1,13,14
 436 247 436 247 440 218 c 1,15,16
 473 228 473 228 500 212 c 2,17,-1
 507 208 l 1,18,-1
 503 201 l 2,19,20
 483 162 483 162 428 165 c 1,21,22
 395 83 395 83 326.5 41.5 c 128,-1,23
 258 0 258 0 167 0 c 0,24,25
 63 0 63 0 18 78 c 1,26,-1
 17 78 l 1,27,-1
 13 88 l 2,28,29
 -3 123 -3 123 1 164 c 1,30,-1
 1 172 l 1,31,-1
 46 172 l 1,32,-1
 46 225 l 1,33,-1
 98 225 l 1,34,-1
 98 277 l 1,35,-1
 201 277 l 1,36,-1
 201 328 l 1,37,-1
 263 328 l 1,38,-1
 263 225 l 1,0,-1
92 213 m 1,39,-1
 96 213 l 1,40,-1
 96 175 l 1,41,-1
 92 175 l 1,42,-1
 92 213 l 1,39,-1
85 213 m 1,43,-1
 89 213 l 1,44,-1
 89 175 l 1,45,-1
 85 175 l 1,46,-1
 85 213 l 1,43,-1
78 213 m 1,47,-1
 82 213 l 1,48,-1
 82 175 l 1,49,-1
 78 175 l 1,50,-1
 78 213 l 1,47,-1
72 213 m 1,51,-1
 75 213 l 1,52,-1
 75 175 l 1,53,-1
 72 175 l 1,54,-1
 72 213 l 1,51,-1
65 213 m 1,55,-1
 68 213 l 1,56,-1
 68 175 l 1,57,-1
 65 175 l 1,58,-1
 65 213 l 1,55,-1
58 213 m 1,59,-1
 62 213 l 1,60,-1
 62 175 l 1,61,-1
 58 175 l 1,62,-1
 58 213 l 1,59,-1
54 216 m 1,63,-1
 54 171 l 1,64,-1
 99 171 l 1,65,-1
 99 216 l 1,66,-1
 54 216 l 1,63,-1
144 264 m 1,67,-1
 147 264 l 1,68,-1
 147 227 l 1,69,-1
 144 227 l 1,70,-1
 144 264 l 1,67,-1
137 264 m 1,71,-1
 141 264 l 1,72,-1
 141 227 l 1,73,-1
 137 227 l 1,74,-1
 137 264 l 1,71,-1
130 264 m 1,75,-1
 134 264 l 1,76,-1
 134 227 l 1,77,-1
 130 227 l 1,78,-1
 130 264 l 1,75,-1
123 264 m 1,79,-1
 127 264 l 1,80,-1
 127 227 l 1,81,-1
 123 227 l 1,82,-1
 123 264 l 1,79,-1
117 264 m 1,83,-1
 120 264 l 1,84,-1
 120 227 l 1,85,-1
 117 227 l 1,86,-1
 117 264 l 1,83,-1
110 264 m 1,87,-1
 113 264 l 1,88,-1
 113 227 l 1,89,-1
 110 227 l 1,90,-1
 110 264 l 1,87,-1
106 268 m 1,91,-1
 106 223 l 1,92,-1
 151 223 l 1,93,-1
 151 268 l 1,94,-1
 106 268 l 1,91,-1
144 213 m 1,95,-1
 147 213 l 1,96,-1
 147 175 l 1,97,-1
 144 175 l 1,98,-1
 144 213 l 1,95,-1
137 213 m 1,99,-1
 141 213 l 1,100,-1
 141 175 l 1,101,-1
 137 175 l 1,102,-1
 137 213 l 1,99,-1
130 213 m 1,103,-1
 134 213 l 1,104,-1
 134 175 l 1,105,-1
 130 175 l 1,106,-1
 130 213 l 1,103,-1
123 213 m 1,107,-1
 127 213 l 1,108,-1
 127 175 l 1,109,-1
 123 175 l 1,110,-1
 123 213 l 1,107,-1
117 213 m 1,111,-1
 120 213 l 1,112,-1
 120 175 l 1,113,-1
 117 175 l 1,114,-1
 117 213 l 1,111,-1
110 213 m 1,115,-1
 113 213 l 1,116,-1
 113 175 l 1,117,-1
 110 175 l 1,118,-1
 110 213 l 1,115,-1
106 216 m 1,119,-1
 106 171 l 1,120,-1
 151 171 l 1,121,-1
 151 216 l 1,122,-1
 106 216 l 1,119,-1
196 213 m 1,123,-1
 199 213 l 1,124,-1
 199 175 l 1,125,-1
 196 175 l 1,126,-1
 196 213 l 1,123,-1
189 213 m 1,127,-1
 192 213 l 1,128,-1
 192 175 l 1,129,-1
 189 175 l 1,130,-1
 189 213 l 1,127,-1
182 213 m 1,131,-1
 186 213 l 1,132,-1
 186 175 l 1,133,-1
 182 175 l 1,134,-1
 182 213 l 1,131,-1
175 213 m 1,135,-1
 179 213 l 1,136,-1
 179 175 l 1,137,-1
 175 175 l 1,138,-1
 175 213 l 1,135,-1
168 213 m 1,139,-1
 172 213 l 1,140,-1
 172 175 l 1,141,-1
 168 175 l 1,142,-1
 168 213 l 1,139,-1
162 213 m 1,143,-1
 165 213 l 1,144,-1
 165 175 l 1,145,-1
 162 175 l 1,146,-1
 162 213 l 1,143,-1
158 216 m 1,147,-1
 158 171 l 1,148,-1
 203 171 l 1,149,-1
 203 216 l 1,150,-1
 158 216 l 1,147,-1
196 264 m 1,151,-1
 199 264 l 1,152,-1
 199 227 l 1,153,-1
 196 227 l 1,154,-1
 196 264 l 1,151,-1
189 264 m 1,155,-1
 192 264 l 1,156,-1
 192 227 l 1,157,-1
 189 227 l 1,158,-1
 189 264 l 1,155,-1
182 264 m 1,159,-1
 186 264 l 1,160,-1
 186 227 l 1,161,-1
 182 227 l 1,162,-1
 182 264 l 1,159,-1
175 264 m 1,163,-1
 179 264 l 1,164,-1
 179 227 l 1,165,-1
 175 227 l 1,166,-1
 175 264 l 1,163,-1
168 264 m 1,167,-1
 172 264 l 1,168,-1
 172 227 l 1,169,-1
 168 227 l 1,170,-1
 168 264 l 1,167,-1
162 264 m 1,171,-1
 165 264 l 1,172,-1
 165 227 l 1,173,-1
 162 227 l 1,174,-1
 162 264 l 1,171,-1
158 268 m 1,175,-1
 158 223 l 1,176,-1
 203 223 l 1,177,-1
 203 268 l 1,178,-1
 158 268 l 1,175,-1
247 213 m 1,179,-1
 251 213 l 1,180,-1
 251 175 l 1,181,-1
 247 175 l 1,182,-1
 247 213 l 1,179,-1
241 213 m 1,183,-1
 244 213 l 1,184,-1
 244 175 l 1,185,-1
 241 175 l 1,186,-1
 241 213 l 1,183,-1
234 213 m 1,187,-1
 237 213 l 1,188,-1
 237 175 l 1,189,-1
 234 175 l 1,190,-1
 234 213 l 1,187,-1
227 213 m 1,191,-1
 231 213 l 1,192,-1
 231 175 l 1,193,-1
 227 175 l 1,194,-1
 227 213 l 1,191,-1
220 213 m 1,195,-1
 224 213 l 1,196,-1
 224 175 l 1,197,-1
 220 175 l 1,198,-1
 220 213 l 1,195,-1
214 213 m 1,199,-1
 217 213 l 1,200,-1
 217 175 l 1,201,-1
 214 175 l 1,202,-1
 214 213 l 1,199,-1
210 216 m 1,203,-1
 210 171 l 1,204,-1
 255 171 l 1,205,-1
 255 216 l 1,206,-1
 210 216 l 1,203,-1
247 264 m 1,207,-1
 251 264 l 1,208,-1
 251 227 l 1,209,-1
 247 227 l 1,210,-1
 247 264 l 1,207,-1
241 264 m 1,211,-1
 244 264 l 1,212,-1
 244 227 l 1,213,-1
 241 227 l 1,214,-1
 241 264 l 1,211,-1
234 264 m 1,215,-1
 237 264 l 1,216,-1
 237 227 l 1,217,-1
 234 227 l 1,218,-1
 234 264 l 1,215,-1
227 264 m 1,219,-1
 231 264 l 1,220,-1
 231 227 l 1,221,-1
 227 227 l 1,222,-1
 227 264 l 1,219,-1
220 264 m 1,223,-1
 224 264 l 1,224,-1
 224 227 l 1,225,-1
 220 227 l 1,226,-1
 220 264 l 1,223,-1
214 264 m 1,227,-1
 217 264 l 1,228,-1
 217 227 l 1,229,-1
 214 227 l 1,230,-1
 214 264 l 1,227,-1
210 268 m 1,231,-1
 210 223 l 1,232,-1
 255 223 l 1,233,-1
 255 268 l 1,234,-1
 210 268 l 1,231,-1
247 316 m 1,235,-1
 251 316 l 1,236,-1
 251 279 l 1,237,-1
 247 279 l 1,238,-1
 247 316 l 1,235,-1
241 316 m 1,239,-1
 244 316 l 1,240,-1
 244 279 l 1,241,-1
 241 279 l 1,242,-1
 241 316 l 1,239,-1
234 316 m 1,243,-1
 237 316 l 1,244,-1
 237 279 l 1,245,-1
 234 279 l 1,246,-1
 234 316 l 1,243,-1
227 316 m 1,247,-1
 231 316 l 1,248,-1
 231 279 l 1,249,-1
 227 279 l 1,250,-1
 227 316 l 1,247,-1
220 316 m 1,251,-1
 224 316 l 1,252,-1
 224 279 l 1,253,-1
 220 279 l 1,254,-1
 220 316 l 1,251,-1
214 316 m 1,255,-1
 217 316 l 1,256,-1
 217 279 l 1,257,-1
 214 279 l 1,258,-1
 214 316 l 1,255,-1
210 320 m 1,259,-1
 210 275 l 1,260,-1
 255 275 l 1,261,-1
 255 320 l 1,262,-1
 210 320 l 1,259,-1
299 213 m 1,263,-1
 303 213 l 1,264,-1
 303 175 l 1,265,-1
 299 175 l 1,266,-1
 299 213 l 1,263,-1
292 213 m 1,267,-1
 296 213 l 1,268,-1
 296 175 l 1,269,-1
 292 175 l 1,270,-1
 292 213 l 1,267,-1
286 213 m 1,271,-1
 289 213 l 1,272,-1
 289 175 l 1,273,-1
 286 175 l 1,274,-1
 286 213 l 1,271,-1
279 213 m 1,275,-1
 282 213 l 1,276,-1
 282 175 l 1,277,-1
 279 175 l 1,278,-1
 279 213 l 1,275,-1
272 213 m 1,279,-1
 276 213 l 1,280,-1
 276 175 l 1,281,-1
 272 175 l 1,282,-1
 272 213 l 1,279,-1
265 213 m 1,283,-1
 269 213 l 1,284,-1
 269 175 l 1,285,-1
 265 175 l 1,286,-1
 265 213 l 1,283,-1
262 216 m 1,287,-1
 262 171 l 1,288,-1
 306 171 l 1,289,-1
 306 216 l 1,290,-1
 262 216 l 1,287,-1
148 99 m 1,291,292
 143 99 143 99 139.5 95 c 128,-1,293
 136 91 136 91 136 86 c 128,-1,294
 136 81 136 81 139.5 77.5 c 128,-1,295
 143 74 143 74 148 74 c 128,-1,296
 153 74 153 74 157 77.5 c 128,-1,297
 161 81 161 81 161 86 c 128,-1,298
 161 91 161 91 157 95 c 128,-1,299
 153 99 153 99 148 99 c 1,300,-1
 148 99 l 1,291,292
148 95 m 1,301,302
 150 95 150 95 151 94 c 1,303,304
 150 93 150 93 150 91 c 0,305,306
 150 88 150 88 153 88 c 0,307,308
 155 88 155 88 156 90 c 1,309,310
 157 88 157 88 157 86 c 0,311,312
 157 77 157 77 148 77 c 128,-1,313
 139 77 139 77 139 86 c 128,-1,314
 139 95 139 95 148 95 c 1,315,-1
 148 95 l 1,301,302
181 9 m 1,316,317
 140 29 140 29 124 65 c 1,318,319
 107 60 107 60 83 59 c 0,320,321
 74 59 74 59 64 59 c 0,322,323
 53 59 53 59 40 59 c 1,324,325
 90 10 90 10 167 9 c 0,326,327
 174 9 174 9 181 9 c 1,316,317
EndSplineSet
Validated: 37
EndChar

StartChar: elementary
Encoding: 62217 62217 13
Width: 512
GlyphClass: 1
Flags: W
LayerCount: 2
Fore
SplineSet
256 410 m 128,-1,1
 362 410 362 410 437 335 c 128,-1,2
 512 260 512 260 512 154 c 128,-1,3
 512 48 512 48 437 -27 c 128,-1,4
 362 -102 362 -102 256 -102 c 128,-1,5
 150 -102 150 -102 75 -27 c 128,-1,6
 0 48 0 48 0 154 c 128,-1,7
 0 260 0 260 75 335 c 128,-1,0
 150 410 150 410 256 410 c 128,-1,1
256 389 m 0,8,9
 159 389 159 389 90 320 c 128,-1,10
 21 251 21 251 21 154 c 0,11,12
 21 87 21 87 56 31 c 1,13,14
 95 36 95 36 132 49 c 1,15,16
 125 56 125 56 120 64 c 0,17,18
 94 101 94 101 91 147 c 0,19,20
 87 190 87 190 104 232 c 128,-1,21
 121 274 121 274 153 306 c 0,22,23
 193 347 193 347 239 355 c 0,24,25
 265 360 265 360 289 354 c 0,26,27
 314 347 314 347 331 328 c 0,28,29
 349 310 349 310 354 283 c 0,30,31
 359 259 359 259 354 232 c 0,32,33
 344 189 344 189 304 143 c 0,34,35
 253 83 253 83 183 45 c 1,36,37
 209 31 209 31 240 29 c 0,38,39
 277 27 277 27 317 45 c 0,40,41
 349 59 349 59 382 88 c 0,42,43
 445 143 445 143 482 218 c 1,44,45
 461 293 461 293 398.5 341 c 128,-1,46
 336 389 336 389 256 389 c 0,8,9
257 341 m 0,47,48
 233 341 233 341 210 328 c 0,49,50
 172 308 172 308 145 255 c 0,51,52
 124 213 124 213 120 175 c 0,53,54
 116 128 116 128 136 92 c 0,55,56
 146 74 146 74 162 61 c 1,57,58
 170 64 170 64 176 68 c 0,59,60
 250 104 250 104 298 166 c 0,61,62
 329 208 329 208 334 247 c 0,63,64
 336 270 336 270 329 291 c 0,65,66
 321 313 321 313 304 326 c 0,67,68
 284 341 284 341 257 341 c 0,47,48
488 185 m 1,69,70
 455 123 455 123 403 74 c 0,71,72
 354 29 354 29 304 11 c 0,73,74
 242 -10 242 -10 188 10 c 0,75,76
 169 18 169 18 152 30 c 1,77,78
 115 14 115 14 75 5 c 1,79,80
 108 -35 108 -35 155 -58 c 128,-1,81
 202 -81 202 -81 256 -81 c 0,82,83
 353 -81 353 -81 421.5 -12 c 128,-1,84
 490 57 490 57 490 154 c 0,85,86
 490 170 490 170 488 185 c 1,69,70
EndSplineSet
Validated: 33
EndChar

StartChar: Fedora
Encoding: 62218 62218 14
Width: 512
GlyphClass: 1
Flags: W
LayerCount: 2
Fore
SplineSet
256 410 m 128,-1,1
 362 410 362 410 437 335 c 128,-1,2
 512 260 512 260 512 154 c 128,-1,3
 512 48 512 48 437 -27 c 128,-1,4
 362 -102 362 -102 256 -102 c 2,5,-1
 59 -102 l 1,6,-1
 58 -102 l 2,7,8
 34 -102 34 -102 17 -85 c 128,-1,9
 0 -68 0 -68 0 -44 c 2,10,-1
 0 154 l 2,11,12
 0 260 0 260 75 335 c 128,-1,0
 150 410 150 410 256 410 c 128,-1,1
308 305 m 0,13,14
 278 305 278 305 254.5 285 c 128,-1,15
 231 265 231 265 228 235 c 0,16,17
 227 231 227 231 227 226 c 2,18,-1
 227 65 l 2,19,20
 227 42 227 42 212 27.5 c 128,-1,21
 197 13 197 13 175 13 c 0,22,23
 154 13 154 13 138.5 28.5 c 128,-1,24
 123 44 123 44 123 65 c 0,25,26
 123 88 123 88 139 102.5 c 128,-1,27
 155 117 155 117 178 118 c 2,28,-1
 179 118 l 1,29,-1
 209 118 l 1,30,-1
 209 161 l 1,31,-1
 179 161 l 2,32,33
 138 161 138 161 110 133.5 c 128,-1,34
 82 106 82 106 80 65 c 0,35,36
 80 26 80 26 108 -1.5 c 128,-1,37
 136 -29 136 -29 175 -29 c 0,38,39
 212 -29 212 -29 239 -4 c 128,-1,40
 266 21 266 21 270 57 c 1,41,-1
 270 95 l 2,42,43
 270 99 270 99 270 104 c 128,-1,44
 270 109 270 109 270 118 c 1,45,-1
 307 118 l 2,46,47
 321 118 321 118 326.5 129 c 128,-1,48
 332 140 332 140 326.5 150.5 c 128,-1,49
 321 161 321 161 307 161 c 2,50,-1
 270 161 l 1,51,52
 270 161 270 161 270 193.5 c 128,-1,53
 270 226 270 226 270 226 c 2,54,55
 270 240 270 240 281.5 251 c 128,-1,56
 293 262 293 262 308 262 c 0,57,58
 325 262 325 262 337 253 c 128,-1,59
 349 244 349 244 349 226 c 0,60,61
 349 221 349 221 349 219 c 0,62,63
 347 210 347 210 352 202.5 c 128,-1,64
 357 195 357 195 366.5 194 c 128,-1,65
 376 193 376 193 383 198.5 c 128,-1,66
 390 204 390 204 391 213 c 0,67,68
 391 218 391 218 391 226 c 0,69,70
 391 259 391 259 366 282 c 128,-1,71
 341 305 341 305 308 305 c 0,13,14
EndSplineSet
Validated: 2097185
EndChar

StartChar: Fedora
Encoding: 62219 62219 15
Width: 512
GlyphClass: 1
Flags: W
LayerCount: 2
Fore
SplineSet
256 410 m 128,-1,1
 362 410 362 410 437 335 c 128,-1,2
 512 260 512 260 512 154 c 128,-1,3
 512 48 512 48 437 -27 c 128,-1,4
 362 -102 362 -102 256 -102 c 2,5,-1
 59 -102 l 1,6,-1
 58 -102 l 2,7,8
 34 -102 34 -102 17 -85 c 128,-1,9
 0 -68 0 -68 0 -44 c 2,10,-1
 0 154 l 2,11,12
 0 260 0 260 75 335 c 128,-1,0
 150 410 150 410 256 410 c 128,-1,1
259 392 m 0,13,14
 254 392 254 392 249 392 c 0,15,16
 217 391 217 391 187 382 c 0,17,18
 141 368 141 368 104 337 c 0,19,20
 65 305 65 305 43 260 c 0,21,22
 25 225 25 225 20 187 c 0,23,24
 18 171 18 171 18 153 c 0,25,26
 18 137 18 137 18 112.5 c 128,-1,27
 18 88 18 88 18 73 c 0,28,29
 18 -5 18 -5 18 -45 c 0,30,31
 19 -65 19 -65 35 -77 c 0,32,33
 46 -84 46 -84 59 -84 c 0,34,35
 91 -84 91 -84 183 -84 c 0,36,37
 245 -84 245 -84 262 -84 c 0,38,39
 316 -83 316 -83 364 -58 c 0,40,41
 407 -36 407 -36 439 1 c 0,42,43
 469 37 469 37 483 82 c 0,44,45
 494 119 494 119 494 157 c 0,46,47
 493 198 493 198 480 235 c 0,48,49
 464 280 464 280 432 314.5 c 128,-1,50
 400 349 400 349 357 369 c 0,51,52
 326 384 326 384 291 389 c 0,53,54
 275 392 275 392 259 392 c 0,13,14
308 305 m 0,55,56
 341 305 341 305 366 282 c 128,-1,57
 391 259 391 259 391 226 c 0,58,59
 391 218 391 218 391 213 c 0,60,61
 390 204 390 204 383 198.5 c 128,-1,62
 376 193 376 193 366.5 194 c 128,-1,63
 357 195 357 195 352 202.5 c 128,-1,64
 347 210 347 210 349 219 c 0,65,66
 349 221 349 221 349 226 c 0,67,68
 349 244 349 244 337 253 c 128,-1,69
 325 262 325 262 308 262 c 0,70,71
 293 262 293 262 281.5 251 c 128,-1,72
 270 240 270 240 270 226 c 2,73,74
 270 226 270 226 270 161 c 1,75,-1
 307 161 l 2,76,77
 321 161 321 161 326.5 150.5 c 128,-1,78
 332 140 332 140 326.5 129 c 128,-1,79
 321 118 321 118 307 118 c 2,80,-1
 270 118 l 1,81,82
 270 109 270 109 270 104 c 128,-1,83
 270 99 270 99 270 95 c 0,84,85
 270 73 270 73 270 57 c 0,86,87
 266 21 266 21 239 -4 c 128,-1,88
 212 -29 212 -29 175 -29 c 0,89,90
 136 -29 136 -29 108 -1.5 c 128,-1,91
 80 26 80 26 80 65 c 0,92,93
 82 106 82 106 110 133.5 c 128,-1,94
 138 161 138 161 179 161 c 2,95,-1
 209 161 l 1,96,-1
 209 118 l 1,97,-1
 179 118 l 1,98,-1
 178 118 l 2,99,100
 155 117 155 117 139 102.5 c 128,-1,101
 123 88 123 88 123 65 c 0,102,103
 123 44 123 44 138.5 28.5 c 128,-1,104
 154 13 154 13 175 13 c 0,105,106
 197 13 197 13 212 27.5 c 128,-1,107
 227 42 227 42 227 65 c 2,108,-1
 227 226 l 2,109,110
 227 231 227 231 228 235 c 0,111,112
 231 265 231 265 254.5 285 c 128,-1,113
 278 305 278 305 308 305 c 0,55,56
EndSplineSet
Validated: 2097185
EndChar

StartChar: FreeBSD
Encoding: 62220 62220 16
Width: 452
GlyphClass: 1
Flags: W
LayerCount: 2
Fore
SplineSet
23 364 m 0,0,1
 49 364 49 364 100 337 c 1,2,3
 55 309 55 309 27 263 c 1,4,5
 -13 339 -13 339 6 358 c 0,6,7
 11 364 11 364 23 364 c 0,0,1
226 360 m 0,8,9
 279 360 279 360 325 336 c 1,10,11
 318 332 318 332 311 328 c 1,12,13
 291 334 291 334 282 325 c 0,14,15
 271 314 271 314 282 287 c 128,-1,16
 293 260 293 260 319.5 233.5 c 128,-1,17
 346 207 346 207 373 196 c 128,-1,18
 400 185 400 185 411 196 c 0,19,20
 419 204 419 204 415 221 c 1,21,22
 419 229 419 229 424 237 c 1,23,24
 447 191 447 191 447 139 c 0,25,26
 447 48 447 48 382.5 -17 c 128,-1,27
 318 -82 318 -82 226.5 -82 c 128,-1,28
 135 -82 135 -82 70 -17 c 128,-1,29
 5 48 5 48 5 139.5 c 128,-1,30
 5 231 5 231 70 295.5 c 128,-1,31
 135 360 135 360 226 360 c 0,8,9
446 358 m 128,-1,33
 462 342 462 342 435.5 285.5 c 128,-1,34
 409 229 409 229 393 213 c 0,35,36
 385 205 385 205 365.5 212.5 c 128,-1,37
 346 220 346 220 327 239 c 128,-1,38
 308 258 308 258 300.5 277.5 c 128,-1,39
 293 297 293 297 301 305 c 0,40,41
 317 321 317 321 373.5 347.5 c 128,-1,32
 430 374 430 374 446 358 c 128,-1,33
EndSplineSet
Validated: 33
EndChar

StartChar: Gentoo
Encoding: 62221 62221 17
Width: 489
GlyphClass: 1
Flags: W
LayerCount: 2
Fore
SplineSet
201 410 m 0,0,1
 237 410 237 410 269 396 c 0,2,3
 337 366 337 366 406.5 303.5 c 128,-1,4
 476 241 476 241 486 203 c 0,5,6
 490 190 490 190 489 171.5 c 128,-1,7
 488 153 488 153 482 142 c 0,8,9
 462 105 462 105 386 43 c 0,10,11
 322 -11 322 -11 250 -52 c 128,-1,12
 178 -93 178 -93 121 -101 c 0,13,14
 80 -107 80 -107 50 -90 c 0,15,16
 23 -75 23 -75 8 -45 c 0,17,18
 0 -29 0 -29 0 2 c 0,19,20
 0 34 0 34 45 81 c 0,21,22
 67 104 67 104 118 148 c 1,23,24
 113 151 113 151 97 159.5 c 128,-1,25
 81 168 81 168 71 173 c 128,-1,26
 61 178 61 178 49 187 c 128,-1,27
 37 196 37 196 29 204 c 0,28,29
 7 228 7 228 10 258 c 0,30,31
 15 301 15 301 62 348.5 c 128,-1,32
 109 396 109 396 174 407 c 0,33,34
 187 410 187 410 201 410 c 0,0,1
200 408 m 0,35,36
 198 408 198 408 195 408 c 0,37,38
 124 405 124 405 69.5 354 c 128,-1,39
 15 303 15 303 19 261 c 0,40,41
 19 253 19 253 24 245 c 128,-1,42
 29 237 29 237 36.5 230 c 128,-1,43
 44 223 44 223 53.5 216 c 128,-1,44
 63 209 63 209 73 203 c 128,-1,45
 83 197 83 197 93.5 191.5 c 128,-1,46
 104 186 104 186 113 182 c 128,-1,47
 122 178 122 178 129 175 c 128,-1,48
 136 172 136 172 140 170.5 c 128,-1,49
 144 169 144 169 144 168 c 0,50,51
 105 135 105 135 81 113 c 0,52,53
 36 72 36 72 19 44 c 128,-1,54
 2 16 2 16 14 -16 c 0,55,56
 23 -43 23 -43 41.5 -54.5 c 128,-1,57
 60 -66 60 -66 82.5 -65 c 128,-1,58
 105 -64 105 -64 132 -59 c 0,59,60
 197 -46 197 -46 282.5 5 c 128,-1,61
 368 56 368 56 426.5 114 c 128,-1,62
 485 172 485 172 480 203 c 0,63,64
 473 239 473 239 402.5 301 c 128,-1,65
 332 363 332 363 272 392 c 0,66,67
 238 409 238 409 200 408 c 0,35,36
198 397 m 0,68,69
 234 398 234 398 290 366 c 0,70,71
 351 332 351 332 413 267 c 0,72,73
 440 237 440 237 449 220 c 0,74,75
 457 204 457 204 452 187 c 0,76,77
 450 179 450 179 415 144 c 128,-1,78
 380 109 380 109 341 79 c 0,79,80
 245 4 245 4 168 -24 c 0,81,82
 138 -36 138 -36 107.5 -39 c 128,-1,83
 77 -42 77 -42 54 -32 c 0,84,85
 39 -24 39 -24 33 -8.5 c 128,-1,86
 27 7 27 7 28 23 c 0,87,88
 29 30 29 30 33 39 c 128,-1,89
 37 48 37 48 45.5 58 c 128,-1,90
 54 68 54 68 61 76 c 128,-1,91
 68 84 68 84 81 96 c 128,-1,92
 94 108 94 108 101 114.5 c 128,-1,93
 108 121 108 121 124 134.5 c 128,-1,94
 140 148 140 148 145 152 c 0,95,96
 174 177 174 177 160 184 c 0,97,98
 153 187 153 187 129.5 198 c 128,-1,99
 106 209 106 209 95 214.5 c 128,-1,100
 84 220 84 220 68 229.5 c 128,-1,101
 52 239 52 239 42 247 c 0,102,103
 28 259 28 259 32 278 c 0,104,105
 41 320 41 320 83 351 c 0,106,107
 118 378 118 378 134.5 385.5 c 128,-1,108
 151 393 151 393 187 397 c 0,109,110
 193 397 193 397 198 397 c 0,68,69
222 320 m 0,111,112
 221 320 221 320 219 320 c 0,113,114
 182 319 182 319 179 271 c 0,115,116
 178 248 178 248 210.5 231 c 128,-1,117
 243 214 243 214 260 220 c 0,118,119
 286 229 286 229 296 242.5 c 128,-1,120
 306 256 306 256 301.5 268.5 c 128,-1,121
 297 281 297 281 286 291.5 c 128,-1,122
 275 302 275 302 260 309 c 0,123,124
 239 320 239 320 222 320 c 0,111,112
225 291 m 0,125,126
 250 292 250 292 268.5 274.5 c 128,-1,127
 287 257 287 257 264 236 c 0,128,129
 263 236 263 236 263 236 c 1,130,131
 263 243 263 243 241.5 248 c 128,-1,132
 220 253 220 253 217 246 c 1,133,134
 196 261 196 261 212 285 c 0,135,136
 216 291 216 291 225 291 c 0,125,126
EndSplineSet
Validated: 33
EndChar

StartChar: Linux
Encoding: 62222 62222 18
Width: 491
GlyphClass: 1
Flags: W
LayerCount: 2
Fore
SplineSet
228 -68 m 1,0,1
 159 -68 159 -68 108.5 -21.5 c 128,-1,2
 58 25 58 25 58 92 c 2,3,-1
 58 203 l 1,4,-1
 58 231 l 1,5,-1
 0 231 l 1,6,-1
 0 372 l 1,7,-1
 244 371 l 1,8,-1
 320 370 l 2,9,10
 390 370 390 370 440.5 324 c 128,-1,11
 491 278 491 278 491 210 c 2,12,-1
 491 -68 l 1,13,-1
 228 -68 l 1,14,-1
 228 -68 l 1,0,1
454 6 m 2,15,-1
 454 210 l 2,16,17
 454 261 454 261 415 297 c 128,-1,18
 376 333 376 333 320 333 c 2,19,-1
 244 333 l 1,20,-1
 37 334 l 1,21,-1
 37 268 l 1,22,-1
 60 268 l 2,23,24
 73 268 73 268 84 257.5 c 128,-1,25
 95 247 95 247 95 232 c 2,26,-1
 95 92 l 2,27,28
 95 41 95 41 134 5 c 128,-1,29
 173 -31 173 -31 228 -31 c 2,30,-1
 410 -31 l 2,31,32
 428 -31 428 -31 441 -20.5 c 128,-1,33
 454 -10 454 -10 454 6 c 2,15,-1
274 260 m 0,34,35
 299 260 299 260 318 242 c 1,36,37
 336 260 336 260 361 260 c 0,38,39
 388 260 388 260 406.5 241 c 128,-1,40
 425 222 425 222 425 195 c 2,41,-1
 425 85 l 2,42,43
 422 57 422 57 402 36 c 0,44,45
 378 12 378 12 345 12 c 2,46,-1
 200 12 l 2,47,48
 175 15 175 15 154 35 c 0,49,50
 131 58 131 58 131 91 c 2,51,-1
 131 293 l 1,52,-1
 169 293 l 1,53,-1
 169 98 l 2,54,55
 169 79 169 79 180.5 65.5 c 128,-1,56
 192 52 192 52 207 52 c 2,57,-1
 337 51 l 2,58,59
 357 51 357 51 371 63 c 128,-1,60
 385 75 385 75 385 92 c 2,61,-1
 385 195 l 2,62,63
 385 205 385 205 378 212 c 128,-1,64
 371 219 371 219 361.5 219 c 128,-1,65
 352 219 352 219 345 212 c 128,-1,66
 338 205 338 205 338 195 c 2,67,-1
 338 107 l 1,68,-1
 298 107 l 1,69,-1
 298 195 l 2,70,71
 298 205 298 205 291 212 c 128,-1,72
 284 219 284 219 274 219 c 128,-1,73
 264 219 264 219 257 212 c 128,-1,74
 250 205 250 205 250 195 c 2,75,-1
 250 107 l 1,76,-1
 210 107 l 1,77,-1
 210 195 l 2,78,79
 210 222 210 222 229 241 c 128,-1,80
 248 260 248 260 274 260 c 0,34,35
EndSplineSet
Validated: 2097157
EndChar

StartChar: Linux
Encoding: 62223 62223 19
Width: 512
GlyphClass: 1
Flags: W
LayerCount: 2
Fore
SplineSet
0 384 m 1,0,-1
 255 382 l 1,1,-1
 334 382 l 2,2,3
 407 382 407 382 459.5 333.5 c 128,-1,4
 512 285 512 285 512 215 c 2,5,-1
 512 -76 l 1,6,-1
 238 -76 l 2,7,8
 166 -76 166 -76 113 -27.5 c 128,-1,9
 60 21 60 21 60 92 c 2,10,-1
 60 190 l 1,11,-1
 60 220 l 1,12,-1
 0 220 l 1,13,-1
 0 384 l 1,0,-1
13 372 m 1,14,-1
 13 231 l 1,15,-1
 71 231 l 1,16,-1
 71 203 l 1,17,-1
 71 92 l 2,18,19
 71 25 71 25 121.5 -21.5 c 128,-1,20
 172 -68 172 -68 241 -68 c 2,21,-1
 504 -68 l 1,22,-1
 504 210 l 2,23,24
 504 278 504 278 453.5 324 c 128,-1,25
 403 370 403 370 333 370 c 2,26,-1
 257 371 l 1,27,-1
 13 372 l 1,14,-1
50 334 m 1,28,-1
 257 333 l 1,29,-1
 333 333 l 2,30,31
 388 333 388 333 427 297 c 128,-1,32
 466 261 466 261 466 210 c 2,33,-1
 466 6 l 2,34,35
 466 -10 466 -10 453.5 -20.5 c 128,-1,36
 441 -31 441 -31 423 -31 c 2,37,-1
 241 -31 l 2,38,39
 186 -31 186 -31 147 5 c 128,-1,40
 108 41 108 41 108 92 c 2,41,-1
 108 232 l 2,42,43
 108 247 108 247 97 257.5 c 128,-1,44
 86 268 86 268 73 268 c 2,45,-1
 50 268 l 1,46,-1
 50 334 l 1,28,-1
144 293 m 1,47,-1
 144 91 l 2,48,49
 144 58 144 58 167 35 c 0,50,51
 187 15 187 15 213 12 c 2,52,-1
 357 12 l 2,53,54
 391 12 391 12 415 36 c 0,55,56
 435 57 435 57 438 85 c 2,57,-1
 438 195 l 2,58,59
 438 222 438 222 419 241 c 128,-1,60
 400 260 400 260 374 260 c 0,61,62
 349 260 349 260 330 242 c 1,63,64
 312 260 312 260 287 260 c 0,65,66
 260 260 260 260 241.5 241 c 128,-1,67
 223 222 223 222 223 195 c 2,68,-1
 223 107 l 1,69,-1
 263 107 l 1,70,-1
 263 195 l 2,71,72
 263 205 263 205 270 212 c 128,-1,73
 277 219 277 219 286.5 219 c 128,-1,74
 296 219 296 219 303 212 c 128,-1,75
 310 205 310 205 310 195 c 2,76,-1
 310 107 l 1,77,-1
 350 107 l 1,78,-1
 350 195 l 2,79,80
 350 205 350 205 357 212 c 128,-1,81
 364 219 364 219 374 219 c 128,-1,82
 384 219 384 219 390.5 212 c 128,-1,83
 397 205 397 205 397 195 c 2,84,-1
 398 92 l 2,85,86
 398 75 398 75 384 63 c 128,-1,87
 370 51 370 51 350 51 c 2,88,-1
 220 52 l 2,89,90
 204 52 204 52 193 65.5 c 128,-1,91
 182 79 182 79 182 98 c 2,92,-1
 182 293 l 1,93,-1
 144 293 l 1,47,-1
EndSplineSet
Validated: 2097153
EndChar

StartChar: Mageia
Encoding: 62224 62224 20
Width: 326
GlyphClass: 1
Flags: W
LayerCount: 2
Fore
SplineSet
126 212 m 1,0,1
 114 212 114 212 105.5 220.5 c 128,-1,2
 97 229 97 229 97 241 c 128,-1,3
 97 253 97 253 105.5 261.5 c 128,-1,4
 114 270 114 270 126 270 c 128,-1,5
 138 270 138 270 146.5 261.5 c 128,-1,6
 155 253 155 253 155 241 c 128,-1,7
 155 229 155 229 146.5 220.5 c 128,-1,8
 138 212 138 212 126 212 c 1,9,-1
 126 212 l 1,0,1
204 233 m 1,10,11
 193 233 193 233 185 241 c 128,-1,12
 177 249 177 249 177 260 c 128,-1,13
 177 271 177 271 185 279 c 128,-1,14
 193 287 193 287 204.5 287 c 128,-1,15
 216 287 216 287 223.5 279 c 128,-1,16
 231 271 231 271 231 260 c 128,-1,17
 231 249 231 249 223.5 241 c 128,-1,18
 216 233 216 233 204 233 c 1,19,-1
 204 233 l 1,10,11
182 310 m 128,-1,21
 182 300 182 300 175 293 c 128,-1,22
 168 286 168 286 158 286 c 128,-1,23
 148 286 148 286 141 293 c 128,-1,24
 134 300 134 300 134 310 c 128,-1,25
 134 320 134 320 141 327.5 c 128,-1,26
 148 335 148 335 158 335 c 128,-1,27
 168 335 168 335 175 327.5 c 128,-1,20
 182 320 182 320 182 310 c 128,-1,21
219 351 m 128,-1,29
 219 342 219 342 212.5 335.5 c 128,-1,30
 206 329 206 329 196.5 329 c 128,-1,31
 187 329 187 329 180.5 335.5 c 128,-1,32
 174 342 174 342 174 351 c 128,-1,33
 174 360 174 360 180.5 366.5 c 128,-1,34
 187 373 187 373 196.5 373 c 128,-1,35
 206 373 206 373 212.5 366.5 c 128,-1,28
 219 360 219 360 219 351 c 128,-1,29
169 391 m 128,-1,37
 169 383 169 383 163 377 c 128,-1,38
 157 371 157 371 149 371 c 128,-1,39
 141 371 141 371 135.5 377 c 128,-1,40
 130 383 130 383 130 391 c 128,-1,41
 130 399 130 399 135.5 404.5 c 128,-1,42
 141 410 141 410 149 410 c 128,-1,43
 157 410 157 410 163 404.5 c 128,-1,36
 169 399 169 399 169 391 c 128,-1,37
45 186 m 0,44,45
 60 201 60 201 81 188 c 0,46,47
 122 166 122 166 163 166 c 0,48,49
 187 166 187 166 203.5 170.5 c 128,-1,50
 220 175 220 175 244 188 c 0,51,52
 264 201 264 201 279 186 c 0,53,54
 326 126 326 126 326 73 c 0,55,56
 326 1 326 1 278 -50.5 c 128,-1,57
 230 -102 230 -102 162.5 -102 c 128,-1,58
 95 -102 95 -102 47.5 -50.5 c 128,-1,59
 0 1 0 1 0 73 c 0,60,61
 0 127 0 127 45 186 c 0,44,45
67 159 m 1,62,63
 31 108 31 108 31 73 c 0,64,65
 31 14 31 14 70 -27 c 128,-1,66
 109 -68 109 -68 163 -68 c 0,67,68
 216 -68 216 -68 254 -27 c 128,-1,69
 292 14 292 14 292 73 c 0,70,71
 292 112 292 112 258 159 c 1,72,73
 211 133 211 133 163 133 c 128,-1,74
 115 133 115 133 67 159 c 1,62,63
EndSplineSet
Validated: 37
EndChar

StartChar: Mandriva
Encoding: 62225 62225 21
Width: 512
GlyphClass: 1
Flags: W
LayerCount: 2
Fore
SplineSet
311 327 m 1,0,1
 310 334 310 334 307 335 c 128,-1,2
 304 336 304 336 300 330 c 2,3,-1
 242 239 l 2,4,5
 233 226 233 226 216 228 c 2,6,-1
 110 245 l 2,7,8
 104 246 104 246 102 243 c 128,-1,9
 100 240 100 240 104 235 c 2,10,-1
 172 152 l 2,11,12
 183 139 183 139 175 124 c 2,13,-1
 126 29 l 2,14,15
 123 23 123 23 125.5 20.5 c 128,-1,16
 128 18 128 18 134 20 c 2,17,-1
 234 59 l 2,18,19
 250 65 250 65 261 53 c 2,20,-1
 337 -23 l 2,21,22
 342 -28 342 -28 345 -26.5 c 128,-1,23
 348 -25 348 -25 348 -18 c 2,24,-1
 342 89 l 2,25,26
 341 105 341 105 356 113 c 2,27,-1
 452 161 l 2,28,29
 458 164 458 164 457.5 167.5 c 128,-1,30
 457 171 457 171 450 173 c 2,31,-1
 346 201 l 2,32,33
 340 202 340 202 334.5 208 c 128,-1,34
 329 214 329 214 328 221 c 2,35,-1
 311 327 l 1,36,-1
 311 327 l 1,0,1
487 208 m 1,37,-1
 469 174 l 1,38,-1
 487 208 l 1,37,-1
487 208 m 1,39,-1
 469 174 l 1,40,-1
 487 208 l 1,39,-1
487 208 m 1,41,42
 482 208 482 208 480 206 c 2,43,-1
 474 193 l 2,44,45
 468 183 468 183 467 180.5 c 128,-1,46
 466 178 466 178 469 174 c 1,47,48
 474 174 474 174 476 176 c 2,49,-1
 482 188 l 2,50,51
 488 199 488 199 489 201 c 128,-1,52
 490 203 490 203 487 208 c 1,53,-1
 487 208 l 1,41,42
512 168 m 1,54,-1
 472 168 l 1,55,-1
 512 168 l 1,54,-1
512 168 m 1,56,-1
 472 168 l 1,57,-1
 512 168 l 1,56,-1
512 168 m 1,58,59
 509 173 509 173 507 173 c 2,60,-1
 492 173 l 2,61,62
 480 173 480 173 477.5 173 c 128,-1,63
 475 173 475 173 472 168 c 1,64,65
 475 163 475 163 478 163 c 2,66,-1
 492 163 l 2,67,68
 504 163 504 163 506.5 163 c 128,-1,69
 509 163 509 163 512 168 c 1,70,-1
 512 168 l 1,58,59
490 129 m 1,71,-1
 469 162 l 1,72,-1
 490 129 l 1,71,-1
490 129 m 1,73,-1
 469 162 l 1,74,-1
 490 129 l 1,73,-1
490 129 m 1,75,76
 493 134 493 134 492 136 c 2,77,-1
 484 148 l 2,78,79
 478 158 478 158 476.5 160 c 128,-1,80
 475 162 475 162 469 162 c 1,81,82
 467 157 467 157 468 155 c 2,83,-1
 476 143 l 2,84,85
 482 132 482 132 483.5 130 c 128,-1,86
 485 128 485 128 490 129 c 1,87,-1
 490 129 l 1,75,76
444 128 m 1,88,-1
 463 162 l 1,89,-1
 444 128 l 1,88,-1
444 128 m 1,90,-1
 463 162 l 1,91,-1
 444 128 l 1,90,-1
444 128 m 1,92,93
 450 128 450 128 451 130 c 2,94,-1
 458 143 l 2,95,96
 464 153 464 153 465 155 c 128,-1,97
 466 157 466 157 463 162 c 1,98,99
 457 162 457 162 456 160 c 2,100,-1
 449 147 l 2,101,102
 443 137 443 137 442 135 c 128,-1,103
 441 133 441 133 444 128 c 1,104,-1
 444 128 l 1,92,93
459 168 m 1,105,-1
 459 168 l 1,106,-1
 459 168 l 1,105,-1
441 207 m 1,107,-1
 462 173 l 1,108,-1
 441 207 l 1,107,-1
441 207 m 1,109,-1
 462 173 l 1,110,-1
 441 207 l 1,109,-1
441 207 m 1,111,112
 438 202 438 202 440 200 c 2,113,-1
 447 188 l 2,114,115
 454 177 454 177 455 175 c 128,-1,116
 456 173 456 173 462 173 c 1,117,118
 465 178 465 178 464 181 c 2,119,-1
 456 193 l 2,120,121
 450 203 450 203 448.5 205 c 128,-1,122
 447 207 447 207 441 207 c 1,123,-1
 441 207 l 1,111,112
52 250 m 1,124,125
 7 199 7 199 1 131 c 0,126,127
 -2 94 -2 94 6 57.5 c 128,-1,128
 14 21 14 21 36 -2 c 0,129,130
 99 -69 99 -69 252 42 c 0,131,132
 257 45 257 45 265.5 54.5 c 128,-1,133
 274 64 274 64 279 68 c 1,134,135
 130 -40 130 -40 63 24 c 0,136,137
 24 61 24 61 28 152 c 0,138,139
 30 221 30 221 79 276 c 1,140,141
 75 271 75 271 65.5 263 c 128,-1,142
 56 255 56 255 52 250 c 1,143,-1
 52 250 l 1,124,125
EndSplineSet
Validated: 37
EndChar

StartChar: Manjaro
Encoding: 62226 62226 22
Width: 512
GlyphClass: 1
Flags: W
LayerCount: 2
Fore
SplineSet
362 -102 m 1,0,-1
 362 410 l 1,1,-1
 512 410 l 1,2,-1
 512 -102 l 1,3,-1
 362 -102 l 1,0,-1
181 -102 m 1,4,-1
 181 229 l 1,5,-1
 331 229 l 1,6,-1
 331 -102 l 1,7,-1
 181 -102 l 1,4,-1
0 410 m 1,8,-1
 53 410 l 1,9,-1
 150 410 l 1,10,-1
 331 410 l 1,11,-1
 331 260 l 1,12,-1
 150 260 l 1,13,-1
 150 -102 l 1,14,-1
 0 -102 l 1,15,-1
 0 410 l 1,8,-1
EndSplineSet
Validated: 1
EndChar

StartChar: NixOS
Encoding: 62227 62227 23
Width: 512
GlyphClass: 1
Flags: W
LayerCount: 2
Fore
SplineSet
156 149 m 1,0,-1
 281 -67 l 1,1,-1
 224 -68 l 1,2,-1
 190 -10 l 1,3,-1
 157 -68 l 1,4,-1
 128 -68 l 1,5,-1
 114 -43 l 1,6,-1
 161 40 l 1,7,-1
 128 99 l 1,8,-1
 156 149 l 1,0,-1
201 238 m 1,9,-1
 76 21 l 1,10,-1
 47 71 l 1,11,-1
 81 129 l 1,12,-1
 14 129 l 1,13,-1
 0 154 l 1,14,-1
 15 179 l 1,15,-1
 110 178 l 1,16,-1
 144 237 l 1,17,-1
 201 238 l 1,9,-1
211 65 m 1,18,-1
 460 65 l 1,19,-1
 432 15 l 1,20,-1
 365 15 l 1,21,-1
 398 -43 l 1,22,-1
 384 -67 l 1,23,-1
 355 -67 l 1,24,-1
 308 15 l 1,25,-1
 240 15 l 1,26,-1
 211 65 l 1,18,-1
356 159 m 1,27,-1
 231 375 l 1,28,-1
 289 376 l 1,29,-1
 322 318 l 1,30,-1
 355 376 l 1,31,-1
 384 376 l 1,32,-1
 398 351 l 1,33,-1
 351 268 l 1,34,-1
 385 209 l 1,35,-1
 356 159 l 1,27,-1
156 149 m 1,36,-1
 281 -67 l 1,37,-1
 224 -68 l 1,38,-1
 190 -10 l 1,39,-1
 157 -68 l 1,40,-1
 128 -68 l 1,41,-1
 114 -43 l 1,42,-1
 161 40 l 1,43,-1
 128 99 l 1,44,-1
 156 149 l 1,36,-1
301 244 m 1,45,-1
 52 244 l 1,46,-1
 80 294 l 1,47,-1
 147 293 l 1,48,-1
 113 351 l 1,49,-1
 128 376 l 1,50,-1
 157 376 l 1,51,-1
 204 294 l 1,52,-1
 272 293 l 1,53,-1
 301 244 l 1,45,-1
311 71 m 1,54,-1
 436 287 l 1,55,-1
 465 237 l 1,56,-1
 431 179 l 1,57,-1
 498 179 l 1,58,-1
 512 154 l 1,59,-1
 497 129 l 1,60,-1
 402 130 l 1,61,-1
 368 71 l 1,62,-1
 311 71 l 1,54,-1
EndSplineSet
Validated: 5
EndChar

StartChar: OpenSUSE
Encoding: 62228 62228 24
Width: 512
GlyphClass: 1
Flags: W
LayerCount: 2
Fore
SplineSet
458 134.5 m 128,-1,1
 449 135 449 135 443 141.5 c 128,-1,2
 437 148 437 148 437 157 c 128,-1,3
 437 166 437 166 443.5 172 c 128,-1,4
 450 178 450 178 459 177.5 c 128,-1,5
 468 177 468 177 474.5 170.5 c 128,-1,6
 481 164 481 164 480.5 155 c 128,-1,7
 480 146 480 146 473.5 140 c 128,-1,0
 467 134 467 134 458 134.5 c 128,-1,1
463 154 m 1,8,9
 472 154 472 154 472 160.5 c 128,-1,10
 472 167 472 167 462.5 167 c 128,-1,11
 453 167 453 167 453 160.5 c 128,-1,12
 453 154 453 154 463 154 c 1,13,-1
 463 154 l 1,8,9
212 10 m 1,14,-1
 212 10 l 1,15,-1
 180 26 l 1,16,-1
 179 31 l 2,17,18
 177 38 177 38 175 43 c 0,19,20
 167 65 167 65 149.5 80.5 c 128,-1,21
 132 96 132 96 111 100 c 0,22,23
 60 109 60 109 39 69 c 0,24,25
 27 46 27 46 40.5 20.5 c 128,-1,26
 54 -5 54 -5 82 -8 c 0,27,28
 109 -11 109 -11 121 4 c 0,29,30
 133 20 133 20 124 38 c 0,31,32
 116 55 116 55 98 57 c 0,33,34
 84 58 84 58 79 50 c 0,35,36
 77 46 77 46 77 43 c 0,37,38
 77 37 77 37 80.5 34.5 c 128,-1,39
 84 32 84 32 87 32 c 256,40,41
 90 32 90 32 93 32 c 2,42,-1
 95 33 l 1,43,-1
 96 33 l 1,44,-1
 96 34 l 1,45,46
 107 35 107 35 110 25 c 0,47,48
 110 24 110 24 110 22 c 0,49,50
 110 16 110 16 105 13 c 1,51,-1
 105 13 l 1,52,-1
 104 12 l 2,53,54
 102 11 102 11 99 10 c 0,55,56
 92 8 92 8 86 8 c 0,57,58
 75 8 75 8 64 17.5 c 128,-1,59
 53 27 53 27 53 43 c 0,60,61
 53 63 53 63 70 74 c 0,62,63
 96 91 96 91 126 73 c 0,64,65
 144 62 144 62 150.5 42.5 c 128,-1,66
 157 23 157 23 152 6 c 0,67,68
 145 -17 145 -17 125.5 -28.5 c 128,-1,69
 106 -40 106 -40 79 -37 c 0,70,71
 38 -34 38 -34 16 -1 c 0,72,73
 6 12 6 12 2 28 c 0,74,75
 -5 56 -5 56 7 85 c 0,76,77
 28 137 28 137 85 173 c 1,78,-1
 88 174 l 1,79,80
 125 197 125 197 162.5 208.5 c 128,-1,81
 200 220 200 220 219 221 c 128,-1,82
 238 222 238 222 268 221 c 0,83,84
 320 219 320 219 378 199 c 1,85,-1
 378 216 l 1,86,-1
 379 216 l 1,87,88
 453 206 453 206 484 188 c 0,89,90
 487 186 487 186 492 181 c 0,91,92
 497 175 497 175 504 156 c 128,-1,93
 511 137 511 137 512 129 c 1,94,95
 511 129 511 129 509 127 c 0,96,97
 485 111 485 111 464 112 c 0,98,99
 436 115 436 115 391 144 c 1,100,101
 399 126 399 126 400 124 c 0,102,103
 445 100 445 100 466 101 c 0,104,105
 487 101 487 101 507 114 c 1,106,-1
 510 114 l 1,107,108
 510 113 510 113 510 112 c 0,109,110
 509 107 509 107 508 104 c 2,111,-1
 507 103 l 2,112,113
 506 99 506 99 504 97 c 0,114,115
 500 93 500 93 483 86 c 0,116,117
 457 74 457 74 417 75 c 0,118,119
 408 75 408 75 392 77 c 0,120,121
 375 80 375 80 363.5 77 c 128,-1,122
 352 74 352 74 350 61 c 0,123,124
 348 49 348 49 353.5 34.5 c 128,-1,125
 359 20 359 20 363.5 13 c 128,-1,126
 368 6 368 6 370 3 c 2,127,-1
 370 2 l 1,128,-1
 369 2 l 1,129,130
 331 20 331 20 330 21 c 2,131,-1
 328 21 l 1,132,-1
 327 22 l 2,133,134
 322 27 322 27 307 45 c 0,135,136
 277 80 277 80 236 70 c 0,137,138
 228 68 228 68 221 61 c 0,139,140
 209 50 209 50 212 21 c 0,141,142
 212 14 212 14 213 11 c 2,143,-1
 213 10 l 1,144,-1
 212 10 l 1,14,-1
437 178 m 1,145,146
 428 170 428 170 427.5 157 c 128,-1,147
 427 144 427 144 435.5 135 c 128,-1,148
 444 126 444 126 456.5 125.5 c 128,-1,149
 469 125 469 125 478.5 133.5 c 128,-1,150
 488 142 488 142 488.5 154.5 c 128,-1,151
 489 167 489 167 480 176.5 c 128,-1,152
 471 186 471 186 458.5 186.5 c 128,-1,153
 446 187 446 187 437 178 c 1,154,-1
 437 178 l 1,145,146
388 7 m 1,155,156
 387 7 387 7 387 8 c 2,157,-1
 387 14 l 1,158,-1
 386 12 l 1,159,160
 386 12 386 12 385.5 12 c 128,-1,161
 385 12 385 12 384 12 c 2,162,-1
 383 14 l 1,163,-1
 383 8 l 2,164,165
 383 7 383 7 382 7 c 256,166,167
 381 7 381 7 381 8 c 2,168,-1
 381 15 l 1,169,-1
 378 15 l 1,170,-1
 378 8 l 2,171,172
 378 7 378 7 377 7 c 2,173,-1
 376 7 l 1,174,175
 376 7 376 7 376 8 c 2,176,-1
 376 15 l 1,177,-1
 373 15 l 2,178,179
 372 15 372 15 372 15 c 1,180,-1
 372 16 l 2,181,182
 372 17 372 17 373 17 c 2,183,-1
 383 17 l 1,184,185
 383 17 383 17 383 16 c 2,186,-1
 385 13 l 1,187,-1
 387 16 l 2,188,189
 387 17 387 17 388 17 c 2,190,-1
 389 17 l 1,191,-1
 389 8 l 2,192,193
 389 7 389 7 388 7 c 1,194,-1
 388 7 l 1,155,156
EndSplineSet
Validated: 37
EndChar

StartChar: Raspberry
Encoding: 62229 62229 25
Width: 401
GlyphClass: 1
Flags: W
LayerCount: 2
Fore
SplineSet
109 410 m 2,0,1
 109 410 109 410 122 406 c 0,2,3
 129 407 129 407 131 407 c 128,-1,4
 133 407 133 407 136.5 405 c 128,-1,5
 140 403 140 403 141 402 c 0,6,7
 152 405 152 405 161 395 c 0,8,9
 163 394 163 394 163 393 c 1,10,-1
 170 394 l 1,11,12
 192 381 192 381 200 349 c 1,13,14
 209 381 209 381 231 394 c 1,15,-1
 238 393 l 1,16,17
 238 394 238 394 240 395 c 0,18,19
 249 405 249 405 260 402 c 0,20,21
 261 403 261 403 264.5 405 c 128,-1,22
 268 407 268 407 270 407 c 128,-1,23
 272 407 272 407 279 406 c 0,24,25
 280 406 280 406 283.5 407.5 c 128,-1,26
 287 409 287 409 289 409.5 c 128,-1,27
 291 410 291 410 294.5 409.5 c 128,-1,28
 298 409 298 409 301 406 c 0,29,30
 315 412 315 412 323 404 c 1,31,32
 334 406 334 406 339 400 c 1,33,34
 358 400 358 400 363 392 c 1,35,36
 375 393 375 393 379.5 386 c 128,-1,37
 384 379 384 379 379 371 c 1,38,39
 386 360 386 360 378 350 c 1,40,41
 383 341 383 341 373 330 c 1,42,43
 375 320 375 320 365 312 c 1,44,45
 366 302 366 302 351 293 c 1,46,47
 349 281 349 281 334 277 c 1,48,49
 332 268 332 268 317 264 c 1,50,51
 339 251 339 251 351 233.5 c 128,-1,52
 363 216 363 216 363 184 c 1,53,-1
 367 178 l 1,54,55
 382 168 382 168 392 149.5 c 128,-1,56
 402 131 402 131 400.5 106 c 128,-1,57
 399 81 399 81 381 60 c 1,58,59
 379 51 379 51 370 24 c 1,60,61
 366 -5 366 -5 347.5 -23 c 128,-1,62
 329 -41 329 -41 316 -45 c 1,63,64
 289 -65 289 -65 264 -74 c 1,65,66
 237 -102 237 -102 201 -102 c 2,67,68
 201 -102 201 -102 200 -102 c 0,69,70
 164 -102 164 -102 137 -74 c 1,71,72
 112 -65 112 -65 85 -45 c 1,73,74
 72 -41 72 -41 53.5 -23 c 128,-1,75
 35 -5 35 -5 31 24 c 1,76,77
 22 50 22 50 21 60 c 1,78,79
 2 81 2 81 0.5 106 c 128,-1,80
 -1 131 -1 131 9 149.5 c 128,-1,81
 19 168 19 168 35 178 c 1,82,-1
 38 184 l 1,83,84
 38 216 38 216 50 233.5 c 128,-1,85
 62 251 62 251 84 264 c 1,86,87
 69 268 69 268 67 277 c 1,88,89
 52 281 52 281 50 293 c 1,90,91
 35 303 35 303 36 312 c 1,92,93
 26 320 26 320 28 330 c 1,94,95
 19 341 19 341 23 350 c 1,96,97
 15 360 15 360 22 371 c 1,98,99
 17 379 17 379 21.5 386 c 128,-1,100
 26 393 26 393 38 392 c 1,101,102
 44 400 44 400 62 400 c 1,103,104
 67 406 67 406 78 404 c 1,105,106
 86 412 86 412 100 406 c 1,107,108
 104 410 104 410 109 410 c 2,0,1
293 397 m 1,109,110
 284 394 284 394 274 385 c 1,111,112
 270 390 270 390 273 394 c 1,113,114
 263 389 263 389 258 381 c 1,115,116
 255 383 255 383 255 390 c 1,117,118
 252 388 252 388 238 373 c 1,119,120
 237 374 237 374 236 381 c 1,121,122
 226 371 226 371 219 358.5 c 128,-1,123
 212 346 212 346 213 331 c 128,-1,124
 214 316 214 316 230 309 c 1,125,126
 269 342 269 342 330 362 c 1,127,128
 262 328 262 328 237 300 c 1,129,130
 243 279 243 279 263 272.5 c 128,-1,131
 283 266 283 266 302 268 c 1,132,133
 296 270 296 270 295 273 c 0,134,135
 297 274 297 274 307 275 c 128,-1,136
 317 276 317 276 322 279 c 1,137,138
 317 280 317 280 315 283 c 1,139,140
 334 289 334 289 339 293 c 1,141,142
 332 293 332 293 329 295 c 1,143,144
 348 305 348 305 352 309 c 1,145,146
 343 310 343 310 342 311 c 1,147,148
 353 317 353 317 361 326 c 1,149,150
 354 325 354 325 351 327 c 1,151,152
 366 342 366 342 367 344 c 1,153,154
 360 342 360 342 356 344 c 1,155,156
 357 346 357 346 362.5 350.5 c 128,-1,157
 368 355 368 355 370 361 c 1,158,159
 361 360 361 360 360 361 c 0,160,161
 362 369 362 369 369 379 c 1,162,163
 367 379 367 379 362 379 c 0,164,165
 345 379 345 379 346 380 c 2,166,-1
 352 386 l 1,167,168
 342 388 342 388 326 383 c 1,169,170
 322 386 322 386 330 392 c 1,171,172
 318 391 318 391 308 387 c 1,173,174
 308 389 308 389 307.5 389.5 c 128,-1,175
 307 390 307 390 310 393 c 128,-1,176
 313 396 313 396 313 396 c 1,177,178
 301 394 301 394 290 387 c 1,179,180
 287 390 287 390 293 397 c 1,109,110
109 397 m 1,181,182
 115 390 115 390 111 387 c 1,183,184
 101 394 101 394 89 396 c 1,185,186
 89 396 89 396 92 393 c 128,-1,187
 95 390 95 390 94.5 389.5 c 128,-1,188
 94 389 94 389 94 387 c 1,189,190
 84 390 84 390 72 392 c 1,191,192
 79 386 79 386 76 383 c 0,193,194
 59 388 59 388 50 386 c 1,195,-1
 56 380 l 2,196,197
 56 379 56 379 40 379 c 0,198,199
 35 379 35 379 32 379 c 1,200,201
 39 369 39 369 41 361 c 0,202,203
 41 360 41 360 31 361 c 1,204,205
 34 355 34 355 39.5 350.5 c 128,-1,206
 45 346 45 346 46 344 c 0,207,208
 42 341 42 341 35 344 c 1,209,210
 36 342 36 342 51 327 c 1,211,212
 48 325 48 325 41 326 c 1,213,214
 49 317 49 317 60 311 c 1,215,216
 58 309 58 309 50 309 c 1,217,218
 54 305 54 305 73 295 c 1,219,220
 70 293 70 293 63 293 c 1,221,222
 67 289 67 289 87 283 c 1,223,224
 85 280 85 280 80 279 c 1,225,226
 85 276 85 276 95 275 c 128,-1,227
 105 274 105 274 107 273 c 1,228,229
 105 270 105 270 100 268 c 1,230,231
 111 267 111 267 122 268 c 128,-1,232
 133 269 133 269 147 277 c 128,-1,233
 161 285 161 285 164 300 c 1,234,235
 139 328 139 328 72 362 c 1,236,237
 132 342 132 342 172 309 c 1,238,239
 188 316 188 316 189 331 c 128,-1,240
 190 346 190 346 183 358.5 c 128,-1,241
 176 371 176 371 166 381 c 1,242,243
 165 374 165 374 163 373 c 0,244,245
 149 389 149 389 147 390 c 1,246,247
 147 382 147 382 144 381 c 0,248,249
 138 389 138 389 129 394 c 1,250,251
 132 390 132 390 128 385 c 1,252,253
 118 394 118 394 109 397 c 1,181,182
197 266 m 0,254,255
 179 266 179 266 163 255 c 128,-1,256
 147 244 147 244 147 234 c 0,257,258
 147 223 147 223 162 214 c 128,-1,259
 177 205 177 205 200 204 c 0,260,261
 224 204 224 204 238.5 212 c 128,-1,262
 253 220 253 220 253 231 c 0,263,264
 253 244 253 244 235.5 255 c 128,-1,265
 218 266 218 266 200 266 c 0,266,267
 199 266 199 266 197 266 c 0,254,255
119 256 m 0,268,269
 90 255 90 255 71.5 236.5 c 128,-1,270
 53 218 53 218 54 187 c 0,271,272
 55 173 55 173 102 213 c 0,273,274
 145 251 145 251 135 255 c 0,275,276
 127 256 127 256 119 256 c 0,268,269
276 254 m 1,277,-1
 276 255 l 1,278,279
 268 255 268 255 259 253 c 0,280,281
 247 251 247 251 290 214 c 0,282,283
 338 173 338 173 340 185 c 0,284,285
 341 217 341 217 323 235.5 c 128,-1,286
 305 254 305 254 276 254 c 1,277,-1
258 202 m 1,287,-1
 258 203 l 1,288,289
 244 203 244 203 233 195 c 0,290,291
 232 195 232 195 232 195 c 1,292,293
 214 183 214 183 211.5 159.5 c 128,-1,294
 209 136 209 136 223 115 c 128,-1,295
 237 94 237 94 260 87.5 c 128,-1,296
 283 81 283 81 300 92 c 1,297,-1
 301 93 l 1,298,299
 319 105 319 105 321.5 128.5 c 128,-1,300
 324 152 324 152 310 173 c 0,301,302
 290 201 290 201 260 202 c 0,303,304
 259 202 259 202 258 202 c 1,287,-1
140 200 m 1,305,-1
 140 199 l 1,306,307
 109 198 109 198 90 170 c 0,308,309
 76 148 76 148 78.5 124.5 c 128,-1,310
 81 101 81 101 99 89 c 256,311,312
 117 77 117 77 139.5 83.5 c 128,-1,313
 162 90 162 90 176.5 111.5 c 128,-1,314
 191 133 191 133 188 156.5 c 128,-1,315
 185 180 185 180 168 192 c 0,316,317
 167 192 167 192 167 192 c 1,318,319
 155 200 155 200 140 200 c 1,305,-1
345 168 m 0,320,321
 328 168 328 168 335 118 c 0,322,323
 342 71 342 71 356 69 c 0,324,325
 358 69 358 69 359 69 c 0,326,327
 371 79 371 79 376 97.5 c 128,-1,328
 381 116 381 116 374 136 c 128,-1,329
 367 156 367 156 347 168 c 0,330,331
 346 168 346 168 345 168 c 0,320,321
49 167 m 0,332,333
 47 167 47 167 46 166 c 0,334,335
 26 155 26 155 19 134.5 c 128,-1,336
 12 114 12 114 17 96 c 128,-1,337
 22 78 22 78 34 68 c 0,338,339
 42 64 42 64 50 84 c 0,340,341
 65 122 65 122 58 154 c 0,342,343
 55 167 55 167 49 167 c 0,332,333
202 93 m 0,344,345
 201 93 201 93 201 93 c 2,346,347
 176 93 176 93 159 77 c 128,-1,348
 142 61 142 61 142 39 c 0,349,350
 142 37 142 37 142 34 c 0,351,352
 142 12 142 12 159 -3.5 c 128,-1,353
 176 -19 176 -19 200 -19 c 128,-1,354
 224 -19 224 -19 241.5 -3.5 c 128,-1,355
 259 12 259 12 259 34 c 0,356,357
 259 37 259 37 258 39 c 0,358,359
 258 61 258 61 241.5 76.5 c 128,-1,360
 225 92 225 92 202 93 c 0,344,345
329 73 m 0,361,362
 310 72 310 72 283 42 c 0,363,364
 269 25 269 25 264 2.5 c 128,-1,365
 259 -20 259 -20 268 -30 c 0,366,367
 276 -34 276 -34 287 -35 c 128,-1,368
 298 -36 298 -36 313 -28 c 128,-1,369
 328 -20 328 -20 339 -4 c 0,370,371
 352 15 352 15 351 37 c 128,-1,372
 350 59 350 59 341 68 c 0,373,374
 336 73 336 73 329 73 c 0,361,362
66 64 m 0,375,376
 59 64 59 64 54 61 c 0,377,378
 45 56 45 56 45.5 36.5 c 128,-1,379
 46 17 46 17 56 -2 c 0,380,381
 72 -25 72 -25 94 -31.5 c 128,-1,382
 116 -38 116 -38 124 -30 c 0,383,384
 134 -22 134 -22 130.5 -1 c 128,-1,385
 127 20 127 20 114 35 c 0,386,387
 88 65 88 65 66 64 c 0,375,376
205 -32 m 0,388,389
 202 -32 202 -32 200 -32 c 0,390,391
 181 -31 181 -31 161 -38 c 128,-1,392
 141 -45 141 -45 142 -54 c 0,393,394
 141 -62 141 -62 160 -74.5 c 128,-1,395
 179 -87 179 -87 199 -86 c 0,396,397
 218 -87 218 -87 236.5 -73.5 c 128,-1,398
 255 -60 255 -60 255 -51 c 0,399,400
 255 -43 255 -43 239 -37.5 c 128,-1,401
 223 -32 223 -32 205 -32 c 0,388,389
EndSplineSet
Validated: 33
EndChar

StartChar: Red
Encoding: 62230 62230 26
Width: 512
GlyphClass: 1
Flags: W
LayerCount: 2
Fore
SplineSet
256 408 m 128,-1,1
 362 408 362 408 437 333 c 128,-1,2
 512 258 512 258 512 152 c 0,3,4
 512 77 512 77 471 14 c 1,5,6
 456 17 456 17 440 17 c 0,7,8
 413 17 413 17 393 9 c 0,9,10
 391 8 391 8 391 5 c 2,11,12
 391 5 391 5 391 4 c 0,13,14
 393 0 393 0 390 -3 c 128,-1,15
 387 -6 387 -6 378 -8 c 0,16,17
 371 -9 371 -9 364 -14 c 128,-1,18
 357 -19 357 -19 350.5 -27 c 128,-1,19
 344 -35 344 -35 344 -35 c 2,20,21
 332 -44 332 -44 319 -43 c 1,22,23
 335 -21 335 -21 336 -18 c 0,24,25
 339 -12 339 -12 344.5 -5.5 c 128,-1,26
 350 1 350 1 352 4 c 0,27,28
 362 19 362 19 363 24 c 0,29,30
 365 28 365 28 365.5 36 c 128,-1,31
 366 44 366 44 366 45 c 128,-1,32
 366 46 366 46 369 55.5 c 128,-1,33
 372 65 372 65 373 69 c 0,34,35
 372 71 372 71 368.5 69.5 c 128,-1,36
 365 68 365 68 358.5 66 c 128,-1,37
 352 64 352 64 349 64 c 0,38,39
 344 64 344 64 337 66.5 c 128,-1,40
 330 69 330 69 326 69 c 256,41,42
 322 69 322 69 315 66 c 128,-1,43
 308 63 308 63 304 63 c 0,44,45
 303 63 303 63 298 65.5 c 128,-1,46
 293 68 293 68 288 68 c 0,47,48
 285 69 285 69 269 65.5 c 128,-1,49
 253 62 253 62 239 63 c 0,50,51
 223 63 223 63 208.5 76.5 c 128,-1,52
 194 90 194 90 188 99 c 0,53,54
 182 107 182 107 175 100 c 0,55,56
 171 98 171 98 167 99 c 128,-1,57
 163 100 163 100 162 103 c 0,58,59
 149 125 149 125 136 129 c 0,60,61
 123 132 123 132 115.5 124 c 128,-1,62
 108 116 108 116 109 106 c 0,63,64
 110 101 110 101 112.5 97 c 128,-1,65
 115 93 115 93 118 89.5 c 128,-1,66
 121 86 121 86 122 84 c 0,67,68
 128 73 128 73 135 70 c 256,69,70
 142 67 142 67 140 61 c 0,71,72
 139 57 139 57 130 57 c 0,73,74
 121 56 121 56 115 61 c 0,75,76
 108 65 108 65 103 73 c 0,77,78
 97 84 97 84 84 84 c 0,79,80
 79 84 79 84 74 81 c 0,81,82
 54 71 54 71 31 71 c 2,83,-1
 13 71 l 1,84,85
 0 110 0 110 0 152 c 0,86,87
 0 258 0 258 75 333 c 128,-1,0
 150 408 150 408 256 408 c 128,-1,1
299 356 m 0,88,89
 288 356 288 356 277 353 c 0,90,91
 276 353 276 353 271 351.5 c 128,-1,92
 266 350 266 350 262 349 c 128,-1,93
 258 348 258 348 251.5 347 c 128,-1,94
 245 346 245 346 237.5 346.5 c 128,-1,95
 230 347 230 347 221 349 c 0,96,97
 167 361 167 361 157 323 c 2,98,-1
 146 278 l 2,99,100
 143 273 143 273 145.5 266 c 128,-1,101
 148 259 148 259 153 252.5 c 128,-1,102
 158 246 158 246 176 238.5 c 128,-1,103
 194 231 194 231 223 225 c 0,104,105
 241 222 241 222 251 217 c 128,-1,106
 261 212 261 212 262.5 209 c 128,-1,107
 264 206 264 206 266 201 c 0,108,109
 270 183 270 183 279 177 c 0,110,111
 286 172 286 172 275 170 c 0,112,113
 274 170 274 170 273 170 c 0,114,115
 260 168 260 168 223 179.5 c 128,-1,116
 186 191 186 191 160 206 c 0,117,118
 124 228 124 228 137 254 c 1,119,120
 103 257 103 257 80 250.5 c 128,-1,121
 57 244 57 244 53 229 c 0,122,123
 45 202 45 202 101 162.5 c 128,-1,124
 157 123 157 123 234 100 c 0,125,126
 315 75 315 75 385 91.5 c 128,-1,127
 455 108 455 108 464 157 c 0,128,129
 468 180 468 180 451 196.5 c 128,-1,130
 434 213 434 213 400 220 c 1,131,132
 395 201 395 201 378 193 c 0,133,134
 377 192 377 192 376 193 c 128,-1,135
 375 194 375 194 376 196 c 0,136,137
 382 206 382 206 385 212 c 0,138,139
 390 224 390 224 384 244 c 0,140,141
 376 272 376 272 363 300.5 c 128,-1,142
 350 329 350 329 339 340 c 0,143,144
 325 355 325 355 299 356 c 0,88,89
299 344 m 2,145,-1
 301 344 l 2,146,147
 313 343 313 343 321.5 339 c 128,-1,148
 330 335 330 335 330 329 c 128,-1,149
 330 323 330 323 321 319.5 c 128,-1,150
 312 316 312 316 300 316 c 0,151,152
 292 316 292 316 285 318 c 0,153,154
 284 318 284 318 284 319 c 128,-1,155
 284 320 284 320 285 320 c 0,156,157
 303 324 303 324 302 330 c 0,158,159
 301 339 301 339 272 336 c 0,160,161
 270 336 270 336 267 335 c 1,162,-1
 267 335 l 1,163,164
 266 335 266 335 266 336 c 256,165,166
 266 337 266 337 267 337 c 0,167,168
 276 342 276 342 291 343 c 0,169,170
 295 344 295 344 299 344 c 2,145,-1
178 313 m 0,171,172
 181 313 181 313 184 310 c 0,173,174
 191 301 191 301 200 301 c 0,175,176
 203 301 203 301 212.5 302 c 128,-1,177
 222 303 222 303 229 303 c 0,178,179
 250 303 250 303 251 294 c 0,180,181
 251 291 251 291 248.5 289 c 128,-1,182
 246 287 246 287 236 286 c 0,183,184
 206 284 206 284 198 275 c 0,185,186
 194 272 194 272 190 274.5 c 128,-1,187
 186 277 186 277 183 281 c 2,188,-1
 180 286 l 2,189,190
 175 287 175 287 171 293.5 c 128,-1,191
 167 300 167 300 170 307 c 0,192,193
 173 313 173 313 178 313 c 0,171,172
311 37 m 1,194,-1
 312 37 l 1,195,196
 317 33 317 33 313 26 c 0,197,198
 311 21 311 21 307 18 c 0,199,200
 298 11 298 11 287 18 c 0,201,202
 280 23 280 23 274 22 c 0,203,204
 270 21 270 21 268.5 24 c 128,-1,205
 267 27 267 27 269 30 c 0,206,207
 270 34 270 34 275 35.5 c 128,-1,208
 280 37 280 37 288 33 c 0,209,210
 300 26 300 26 304 30 c 0,211,212
 307 32 307 32 311 37 c 1,194,-1
503 31 m 128,-1,214
 510 31 510 31 510 24 c 256,215,216
 510 17 510 17 503 17 c 128,-1,217
 496 17 496 17 496 24 c 256,218,213
 496 31 496 31 503 31 c 128,-1,214
503 30 m 256,219,220
 497 30 497 30 497 24 c 256,221,222
 497 18 497 18 503 18 c 256,223,224
 509 18 509 18 509 24 c 256,225,226
 509 30 509 30 503 30 c 256,219,220
501 28 m 1,227,-1
 504 28 l 2,228,229
 506 28 506 28 506 26 c 256,230,231
 506 24 506 24 504 23 c 1,232,-1
 506 20 l 1,233,-1
 505 20 l 1,234,-1
 503 23 l 1,235,-1
 502 23 l 1,236,-1
 502 20 l 1,237,-1
 501 20 l 1,238,-1
 501 28 l 1,227,-1
502 27 m 1,239,-1
 503 27 l 2,240,241
 505 27 505 27 505 25.5 c 128,-1,242
 505 24 505 24 503 24 c 2,243,-1
 502 24 l 1,244,-1
 502 27 l 1,239,-1
EndSplineSet
Validated: 37
EndChar

StartChar: Sabayon
Encoding: 62231 62231 27
Width: 512
GlyphClass: 1
Flags: W
LayerCount: 2
Fore
SplineSet
258 410 m 0,0,1
 361 409 361 409 435.5 336 c 128,-1,2
 510 263 510 263 512 159 c 0,3,4
 514 53 514 53 440.5 -23.5 c 128,-1,5
 367 -100 367 -100 261 -102 c 128,-1,6
 155 -104 155 -104 78.5 -30.5 c 128,-1,7
 2 43 2 43 0 149 c 128,-1,8
 -2 255 -2 255 71.5 331.5 c 128,-1,9
 145 408 145 408 251 410 c 0,10,11
 254 410 254 410 258 410 c 0,0,1
255 338 m 0,12,13
 249 337 249 337 247 331.5 c 128,-1,14
 245 326 245 326 244.5 316.5 c 128,-1,15
 244 307 244 307 244 304 c 0,16,17
 241 302 241 302 241.5 299.5 c 128,-1,18
 242 297 242 297 243 293 c 128,-1,19
 244 289 244 289 244 288 c 0,20,21
 243 283 243 283 247 278.5 c 128,-1,22
 251 274 251 274 256 274 c 128,-1,23
 261 274 261 274 263 279 c 0,24,25
 269 296 269 296 264 324 c 0,26,27
 262 324 262 324 261 331 c 128,-1,28
 260 338 260 338 255 338 c 0,12,13
253 263 m 0,29,30
 247 262 247 262 242.5 257.5 c 128,-1,31
 238 253 238 253 236.5 249 c 128,-1,32
 235 245 235 245 232 236 c 128,-1,33
 229 227 229 227 229 225 c 0,34,35
 224 204 224 204 222.5 177 c 128,-1,36
 221 150 221 150 221.5 128 c 128,-1,37
 222 106 222 106 221 79 c 0,38,39
 221 77 221 77 222 74 c 128,-1,40
 223 71 223 71 220 70 c 0,41,42
 216 61 216 61 209 60.5 c 128,-1,43
 202 60 202 60 191 65.5 c 128,-1,44
 180 71 180 71 177 72 c 0,45,46
 170 74 170 74 151 84 c 128,-1,47
 132 94 132 94 120 94 c 0,48,49
 103 100 103 100 92 86 c 128,-1,50
 81 72 81 72 97 61 c 0,51,52
 99 57 99 57 103 54 c 128,-1,53
 107 51 107 51 109.5 49.5 c 128,-1,54
 112 48 112 48 117.5 45 c 128,-1,55
 123 42 123 42 125 41 c 0,56,57
 136 34 136 34 158.5 16 c 128,-1,58
 181 -2 181 -2 200 -12.5 c 128,-1,59
 219 -23 219 -23 240 -24 c 0,60,61
 266 -29 266 -29 294 -3 c 0,62,63
 304 4 304 4 329 18 c 128,-1,64
 354 32 354 32 366 41 c 0,65,66
 396 59 396 59 406 84 c 1,67,68
 419 96 419 96 407.5 106 c 128,-1,69
 396 116 396 116 383 111 c 0,70,71
 375 108 375 108 349 88.5 c 128,-1,72
 323 69 323 69 305 66 c 1,73,74
 292 68 292 68 284 77 c 128,-1,75
 276 86 276 86 282 98 c 0,76,77
 283 99 283 99 281.5 103 c 128,-1,78
 280 107 280 107 282 109 c 0,79,80
 283 112 283 112 282.5 119 c 128,-1,81
 282 126 282 126 284 128 c 0,82,83
 284 134 284 134 284 159 c 128,-1,84
 284 184 284 184 284 190 c 0,85,86
 281 210 281 210 277 242 c 0,87,88
 276 242 276 242 274.5 245.5 c 128,-1,89
 273 249 273 249 272.5 249.5 c 128,-1,90
 272 250 272 250 270.5 252.5 c 128,-1,91
 269 255 269 255 268 256 c 128,-1,92
 267 257 267 257 265 259 c 128,-1,93
 263 261 263 261 261.5 261.5 c 128,-1,94
 260 262 260 262 258 262.5 c 128,-1,95
 256 263 256 263 253 263 c 0,29,30
454 148 m 0,96,97
 418 141 418 141 413 118 c 1,98,-1
 414 117 l 2,99,100
 421 105 421 105 434 109 c 0,101,102
 446 112 446 112 456.5 124.5 c 128,-1,103
 467 137 467 137 458 147 c 0,104,105
 456 148 456 148 454 148 c 0,96,97
48 127 m 1,106,107
 57 95 57 95 75 91 c 0,108,109
 82 92 82 92 87.5 98 c 128,-1,110
 93 104 93 104 85 109 c 0,111,112
 75 118 75 118 59 127 c 0,113,114
 58 127 58 127 48 127 c 1,106,107
EndSplineSet
Validated: 33
EndChar

StartChar: Slackware
Encoding: 62232 62232 28
Width: 512
GlyphClass: 1
Flags: W
LayerCount: 2
Fore
SplineSet
256 410 m 128,-1,1
 362 410 362 410 437 335 c 128,-1,2
 512 260 512 260 512 154 c 128,-1,3
 512 48 512 48 437 -27 c 128,-1,4
 362 -102 362 -102 256 -102 c 128,-1,5
 150 -102 150 -102 75 -27 c 128,-1,6
 0 48 0 48 0 154 c 128,-1,7
 0 260 0 260 75 335 c 128,-1,0
 150 410 150 410 256 410 c 128,-1,1
243 318 m 0,8,9
 203 318 203 318 170 301 c 0,10,11
 130 279 130 279 130 240 c 0,12,13
 130 203 130 203 169 183 c 0,14,15
 198 167 198 167 237 167 c 0,16,17
 271 167 271 167 290 159 c 0,18,19
 311 149 311 149 311 130 c 256,20,21
 311 111 311 111 291 101 c 0,22,23
 270 90 270 90 238 90 c 0,24,25
 207 90 207 90 187 107 c 0,26,27
 171 120 171 120 171 133 c 0,28,29
 171 141 171 141 163 146 c 0,30,31
 156 151 156 151 146 151 c 0,32,33
 137 151 137 151 131 146 c 0,34,35
 124 141 124 141 124 133 c 2,36,-1
 124 81 l 2,37,38
 125 69 125 69 130 61 c 0,39,40
 137 52 137 52 150 52 c 0,41,42
 164 52 164 52 169 56 c 0,43,44
 173 59 173 59 174 64 c 2,45,46
 174 64 174 64 174 65.5 c 128,-1,47
 174 67 174 67 174 67 c 1,48,49
 208 52 208 52 244 52 c 0,50,51
 295 52 295 52 327 74 c 0,52,53
 361 96 361 96 360 130 c 0,54,55
 360 177 360 177 312 197 c 0,56,57
 282 209 282 209 237 209 c 0,58,59
 211 209 211 209 195 220 c 0,60,61
 181 229 181 229 181 240 c 0,62,63
 181 254 181 254 196.5 267 c 128,-1,64
 212 280 212 280 242 280 c 0,65,66
 265 280 265 280 280 272.5 c 128,-1,67
 295 265 295 265 298.5 258.5 c 128,-1,68
 302 252 302 252 303 247 c 2,69,-1
 304 246 l 1,70,71
 308 231 308 231 327 231 c 0,72,73
 336 231 336 231 342 235 c 0,74,75
 349 240 349 240 349 248 c 2,76,-1
 349 297 l 2,77,78
 349 304 349 304 341 311 c 0,79,80
 333 317 333 317 324 317 c 256,81,82
 315 317 315 317 309 313 c 0,83,84
 305 311 305 311 302 307 c 1,85,86
 293 311 293 311 282 314 c 0,87,88
 262 318 262 318 243 318 c 0,8,9
78 109 m 2,89,90
 77 109 77 109 77 109 c 2,91,92
 72 108 72 108 72 103 c 2,93,-1
 73 21 l 2,94,95
 73 16 73 16 79 16 c 2,96,-1
 406 16 l 2,97,98
 411 16 411 16 411 21 c 2,99,-1
 411 31 l 2,100,101
 411 37 411 37 406 37 c 2,102,-1
 94 37 l 1,103,-1
 94 103 l 2,104,105
 94 108 94 108 89 109 c 2,106,-1
 78 109 l 2,89,90
EndSplineSet
Validated: 2097185
EndChar

StartChar: Slackware
Encoding: 62233 62233 29
Width: 512
GlyphClass: 1
Flags: W
LayerCount: 2
Fore
SplineSet
256 410 m 128,-1,1
 362 410 362 410 437 335 c 128,-1,2
 512 260 512 260 512 154 c 128,-1,3
 512 48 512 48 437 -27 c 128,-1,4
 362 -102 362 -102 256 -102 c 128,-1,5
 150 -102 150 -102 75 -27 c 128,-1,6
 0 48 0 48 0 154 c 128,-1,7
 0 260 0 260 75 335 c 128,-1,0
 150 410 150 410 256 410 c 128,-1,1
256 396 m 128,-1,9
 156 396 156 396 85 325 c 128,-1,10
 14 254 14 254 14 154 c 128,-1,11
 14 54 14 54 85 -17 c 128,-1,12
 156 -88 156 -88 256 -88 c 128,-1,13
 356 -88 356 -88 427 -17 c 128,-1,14
 498 54 498 54 498 154 c 128,-1,15
 498 254 498 254 427 325 c 128,-1,8
 356 396 356 396 256 396 c 128,-1,9
243 318 m 0,16,17
 262 318 262 318 282 314 c 0,18,19
 293 311 293 311 302 307 c 1,20,21
 305 311 305 311 309 313 c 0,22,23
 315 317 315 317 324 317 c 256,24,25
 333 317 333 317 341 311 c 0,26,27
 349 304 349 304 349 297 c 2,28,-1
 349 248 l 2,29,30
 349 240 349 240 342 235 c 0,31,32
 336 231 336 231 327 231 c 0,33,34
 308 231 308 231 304 246 c 1,35,-1
 303 247 l 2,36,37
 302 252 302 252 298.5 258.5 c 128,-1,38
 295 265 295 265 280 272.5 c 128,-1,39
 265 280 265 280 242 280 c 0,40,41
 212 280 212 280 196.5 267 c 128,-1,42
 181 254 181 254 181 240 c 0,43,44
 181 229 181 229 195 220 c 0,45,46
 211 209 211 209 237 209 c 0,47,48
 282 209 282 209 312 197 c 0,49,50
 360 177 360 177 360 130 c 0,51,52
 361 96 361 96 327 74 c 0,53,54
 295 52 295 52 244 52 c 0,55,56
 208 52 208 52 174 67 c 1,57,58
 174 67 174 67 174 65.5 c 128,-1,59
 174 64 174 64 174 64 c 2,60,61
 173 59 173 59 169 56 c 0,62,63
 164 52 164 52 150 52 c 0,64,65
 137 52 137 52 130 61 c 0,66,67
 125 69 125 69 124 81 c 2,68,-1
 124 133 l 2,69,70
 124 141 124 141 131 146 c 0,71,72
 137 151 137 151 146 151 c 0,73,74
 156 151 156 151 163 146 c 0,75,76
 171 141 171 141 171 133 c 0,77,78
 171 120 171 120 187 107 c 0,79,80
 207 90 207 90 238 90 c 0,81,82
 270 90 270 90 291 101 c 0,83,84
 311 111 311 111 311 130 c 256,85,86
 311 149 311 149 290 159 c 0,87,88
 271 167 271 167 237 167 c 0,89,90
 198 167 198 167 169 183 c 0,91,92
 130 203 130 203 130 240 c 0,93,94
 130 279 130 279 170 301 c 0,95,96
 203 318 203 318 243 318 c 0,16,17
78 109 m 2,97,-1
 89 109 l 2,98,99
 94 108 94 108 94 103 c 2,100,-1
 94 37 l 1,101,-1
 406 37 l 2,102,103
 411 37 411 37 411 31 c 2,104,-1
 411 21 l 2,105,106
 411 16 411 16 406 16 c 2,107,-1
 79 16 l 2,108,109
 73 16 73 16 73 21 c 2,110,-1
 72 103 l 2,111,112
 72 108 72 108 77 109 c 2,113,114
 77 109 77 109 78 109 c 2,97,-1
EndSplineSet
Validated: 2097185
EndChar

StartChar: Tux
Encoding: 62234 62234 30
Width: 438
GlyphClass: 1
Flags: W
LayerCount: 2
Fore
SplineSet
164 387 m 0,0,1
 183 411 183 411 211 410 c 0,2,3
 229 410 229 410 239 407 c 0,4,5
 271 399 271 399 288 368 c 0,6,7
 299 349 299 349 300 316 c 0,8,9
 300 296 300 296 302 268 c 1,10,11
 307 260 307 260 318 237 c 0,12,13
 322 228 322 228 328 218 c 0,14,15
 329 218 329 218 355 185 c 0,16,17
 370 166 370 166 381 128 c 0,18,19
 390 94 390 94 387 68 c 0,20,21
 387 66 387 66 383 57 c 1,22,23
 386 57 386 57 390 54 c 0,24,25
 400 48 400 48 400 29 c 0,26,27
 400 19 400 19 414 7 c 0,28,29
 417 4 417 4 423.5 0 c 128,-1,30
 430 -4 430 -4 432 -7 c 0,31,32
 440 -14 440 -14 437 -25 c 0,33,34
 433 -35 433 -35 423 -41 c 0,35,36
 417 -46 417 -46 400.5 -53.5 c 128,-1,37
 384 -61 384 -61 377 -67 c 0,38,39
 371 -71 371 -71 360.5 -81 c 128,-1,40
 350 -91 350 -91 343 -95 c 0,41,42
 322 -108 322 -108 298 -97 c 0,43,44
 280 -90 280 -90 277 -73 c 1,45,46
 245 -65 245 -65 217 -65 c 0,47,48
 193 -64 193 -64 192 -64 c 0,49,50
 176 -65 176 -65 175 -69 c 0,51,52
 169 -94 169 -94 139 -100 c 0,53,54
 128 -103 128 -103 107 -94 c 0,55,56
 101 -91 101 -91 68 -83 c 0,57,58
 62 -81 62 -81 19 -69 c 0,59,60
 6 -67 6 -67 1 -56 c 0,61,62
 -3 -46 -3 -46 7 -28 c 0,63,64
 13 -17 13 -17 7 15 c 0,65,66
 4 30 4 30 16 37 c 0,67,68
 22 42 22 42 35 42.5 c 128,-1,69
 48 43 48 43 51 44 c 0,70,71
 55 47 55 47 59 55 c 128,-1,72
 63 63 63 63 66 66 c 0,73,74
 62 78 62 78 68 89 c 0,75,76
 91 136 91 136 94 146 c 0,77,78
 101 173 101 173 107 181 c 0,79,80
 113 188 113 188 124 202 c 128,-1,81
 135 216 135 216 138 220 c 0,82,83
 147 230 147 230 151 240 c 0,84,85
 151 246 151 246 150.5 257 c 128,-1,86
 150 268 150 268 150 272 c 0,87,88
 149 293 149 293 148 325 c 0,89,90
 146 365 146 365 164 387 c 0,0,1
246 349 m 0,91,92
 242 350 242 350 241 349 c 1,93,94
 253 346 253 346 260 334 c 1,95,-1
 261 335 l 1,96,97
 255 349 255 349 246 349 c 0,91,92
174 346 m 0,98,99
 173 345 173 345 172 345 c 1,100,101
 184 344 184 344 190 333 c 2,102,-1
 192 331 l 1,103,104
 192 335 192 335 189 338 c 0,105,106
 182 345 182 345 174 346 c 0,98,99
238 338 m 0,107,108
 233 339 233 339 226 335 c 0,109,110
 211 325 211 325 214 308 c 0,111,112
 216 299 216 299 227 296 c 1,113,114
 223 303 223 303 226 312 c 0,115,116
 228 317 228 317 233.5 319.5 c 128,-1,117
 239 322 239 322 244 319 c 0,118,119
 252 314 252 314 252 303.5 c 128,-1,120
 252 293 252 293 244 289 c 0,121,122
 244 288 244 288 246 287.5 c 128,-1,123
 248 287 248 287 251 286 c 128,-1,124
 254 285 254 285 255 285 c 0,125,126
 264 295 264 295 261 314 c 0,127,128
 260 324 260 324 253.5 331 c 128,-1,129
 247 338 247 338 238 338 c 0,107,108
173 335 m 2,130,-1
 172 335 l 2,131,132
 158 334 158 334 158 315 c 0,133,134
 159 294 159 294 163 287 c 0,135,136
 165 281 165 281 171 288 c 0,137,138
 172 289 172 289 173 289 c 1,139,140
 159 298 159 298 167 315 c 0,141,142
 170 321 170 321 176.5 318 c 128,-1,143
 183 315 183 315 184 309 c 0,144,145
 185 299 185 299 186 299 c 256,146,147
 187 299 187 299 189 300 c 0,148,149
 196 302 196 302 192 317 c 0,150,151
 186 335 186 335 173 335 c 2,130,-1
240 316 m 0,152,153
 238 316 238 316 237.5 314.5 c 128,-1,154
 237 313 237 313 239 313 c 0,155,156
 242 313 242 313 243.5 309 c 128,-1,157
 245 305 245 305 247 304 c 1,158,159
 249 308 249 308 246.5 312 c 128,-1,160
 244 316 244 316 240 316 c 0,152,153
176 315 m 0,161,162
 175 315 175 315 175 314 c 128,-1,163
 175 313 175 313 175 313 c 2,164,165
 178 312 178 312 178.5 308 c 128,-1,166
 179 304 179 304 180 303 c 0,167,168
 183 305 183 305 181.5 310 c 128,-1,169
 180 315 180 315 176 315 c 0,161,162
204 301 m 1,170,-1
 204 300 l 1,171,172
 188 300 188 300 174 288 c 0,173,174
 173 286 173 286 168 282 c 128,-1,175
 163 278 163 278 161 276 c 0,176,177
 155 268 155 268 158 261 c 1,178,179
 167 260 167 260 171 255 c 0,180,181
 183 245 183 245 206 250 c 0,182,183
 222 253 222 253 237 265 c 0,184,185
 239 266 239 266 241.5 269 c 128,-1,186
 244 272 244 272 246.5 273.5 c 128,-1,187
 249 275 249 275 253 274 c 0,188,189
 254 272 254 272 252 270.5 c 128,-1,190
 250 269 250 269 247 267.5 c 128,-1,191
 244 266 244 266 243 265 c 0,192,193
 229 252 229 252 216 249 c 0,194,195
 190 242 190 242 179 246 c 0,196,197
 176 246 176 246 171 250.5 c 128,-1,198
 166 255 166 255 164 256 c 1,199,200
 168 253 168 253 174.5 244.5 c 128,-1,201
 181 236 181 236 186 233 c 0,202,203
 202 224 202 224 224 236 c 0,204,205
 225 237 225 237 235.5 244.5 c 128,-1,206
 246 252 246 252 253 253 c 0,207,208
 256 254 256 254 257.5 256 c 128,-1,209
 259 258 259 258 259.5 259.5 c 128,-1,210
 260 261 260 261 260.5 264 c 128,-1,211
 261 267 261 267 261 268 c 0,212,213
 264 277 264 277 257 281 c 0,214,215
 254 283 254 283 247.5 284.5 c 128,-1,216
 241 286 241 286 238 287 c 0,217,218
 236 288 236 288 224 294.5 c 128,-1,219
 212 301 212 301 204 301 c 1,170,-1
211 295 m 0,220,221
 217 295 217 295 218 292 c 0,222,223
 218 289 218 289 212 291 c 256,224,225
 206 293 206 293 208 294 c 0,226,227
 209 295 209 295 211 295 c 0,220,221
188 294 m 1,228,229
 189 294 189 294 189 293 c 1,230,-1
 188 294 l 1,228,229
260 252 m 1,231,232
 258 249 258 249 254 247 c 0,233,234
 247 246 247 246 231 235 c 0,235,236
 210 221 210 221 190 226 c 0,237,238
 187 227 187 227 183.5 229.5 c 128,-1,239
 180 232 180 232 178 233.5 c 128,-1,240
 176 235 176 235 172.5 239.5 c 128,-1,241
 169 244 169 244 168 245 c 0,242,243
 165 250 165 250 165 245 c 0,244,245
 165 238 165 238 165 238 c 2,246,247
 165 229 165 229 151 209 c 0,248,249
 136 188 136 188 138 169 c 1,250,251
 105 120 105 120 105 68 c 1,252,253
 90 91 90 91 102 120 c 0,254,255
 113 145 113 145 117 158 c 1,256,257
 113 153 113 153 105 136 c 0,258,259
 94 114 94 114 94 99 c 0,260,261
 94 75 94 75 104 65 c 0,262,263
 120 48 120 48 148 26 c 0,264,265
 167 12 167 12 168 0 c 0,266,267
 168 -6 168 -6 164 -10 c 128,-1,268
 160 -14 160 -14 154 -14 c 1,269,270
 168 -33 168 -33 171 -38 c 0,271,272
 180 -42 180 -42 191 -43 c 0,273,274
 209 -47 209 -47 229 -42 c 0,275,276
 253 -36 253 -36 284 -6 c 1,277,278
 286 13 286 13 285 35 c 0,279,280
 283 52 283 52 291 59 c 0,281,282
 297 63 297 63 315 61 c 1,283,284
 319 90 319 90 317 112 c 0,285,286
 313 153 313 153 288 178 c 1,287,288
 285 199 285 199 276 218 c 0,289,290
 263 245 263 245 260 252 c 1,231,232
269 232 m 1024,291,292
303 175 m 1,293,294
 307 171 307 171 317 165 c 0,295,296
 336 155 336 155 342 136 c 0,297,298
 350 114 350 114 338 77 c 0,299,300
 336 74 336 74 336.5 73.5 c 128,-1,301
 337 73 337 73 340 74 c 0,302,303
 347 90 347 90 349 103 c 0,304,305
 355 135 355 135 334 156 c 0,306,307
 330 160 330 160 303 175 c 1,293,294
335 71 m 0,308,309
 329 69 329 69 324 63 c 1,310,-1
 326 63 l 1,311,312
 332 68 332 68 350 69 c 0,313,314
 352 69 352 69 356 69 c 2,315,-1
 358 70 l 1,316,317
 353 70 353 70 345 70.5 c 128,-1,318
 337 71 337 71 335 71 c 0,308,309
83 67 m 0,319,320
 80 67 80 67 77 66 c 0,321,322
 71 64 71 64 65.5 54.5 c 128,-1,323
 60 45 60 45 57 42 c 0,324,325
 52 38 52 38 40.5 38 c 128,-1,326
 29 38 29 38 28 37 c 0,327,328
 15 36 15 36 15 21 c 0,329,330
 15 16 15 16 16.5 6 c 128,-1,331
 18 -4 18 -4 18 -12 c 128,-1,332
 18 -20 18 -20 15 -27 c 0,333,334
 14 -29 14 -29 11.5 -35 c 128,-1,335
 9 -41 9 -41 8.5 -43 c 128,-1,336
 8 -45 8 -45 9 -52 c 0,337,338
 10 -55 10 -55 13.5 -57 c 128,-1,339
 17 -59 17 -59 23 -61 c 128,-1,340
 29 -63 29 -63 30 -63 c 0,341,342
 40 -67 40 -67 82 -77 c 0,343,344
 95 -79 95 -79 119 -90 c 0,345,346
 138 -98 138 -98 153 -87 c 0,347,348
 164 -81 164 -81 168 -67.5 c 128,-1,349
 172 -54 172 -54 166 -42 c 0,350,351
 163 -33 163 -33 152 -20 c 128,-1,352
 141 -7 141 -7 138 0 c 0,353,354
 121 29 121 29 108 47 c 0,355,356
 94 66 94 66 83 67 c 0,319,320
319 54 m 0,357,358
 317 56 317 56 301 57 c 0,359,360
 291 56 291 56 292 45 c 0,361,362
 293 17 293 17 293 5 c 0,363,364
 292 -6 292 -6 288.5 -26.5 c 128,-1,365
 285 -47 285 -47 285 -54 c 0,366,367
 283 -77 283 -77 292 -85 c 0,368,369
 310 -99 310 -99 331 -93 c 0,370,371
 337 -91 337 -91 342.5 -87 c 128,-1,372
 348 -83 348 -83 355.5 -76 c 128,-1,373
 363 -69 363 -69 365 -67 c 0,374,375
 370 -63 370 -63 376.5 -58.5 c 128,-1,376
 383 -54 383 -54 388 -51.5 c 128,-1,377
 393 -49 393 -49 401 -45 c 128,-1,378
 409 -41 409 -41 414 -39 c 0,379,380
 429 -30 429 -30 431 -19 c 0,381,382
 431 -12 431 -12 419 -4 c 0,383,384
 402 9 402 9 397 17 c 0,385,386
 394 20 394 20 393.5 28.5 c 128,-1,387
 393 37 393 37 392 38 c 0,388,389
 390 49 390 49 380 51 c 1,390,391
 375 33 375 33 355.5 24 c 128,-1,392
 336 15 336 15 323 27 c 0,393,394
 315 37 315 37 319 54 c 0,357,358
EndSplineSet
Validated: 33
EndChar

StartChar: Ubuntu
Encoding: 62235 62235 31
Width: 479
GlyphClass: 1
Flags: W
LayerCount: 2
Fore
SplineSet
351 383 m 128,-1,1
 379 383 379 383 399 363 c 128,-1,2
 419 343 419 343 419 315 c 128,-1,3
 419 287 419 287 399 267 c 128,-1,4
 379 247 379 247 351 247 c 128,-1,5
 323 247 323 247 303 267 c 128,-1,6
 283 287 283 287 283 315 c 128,-1,7
 283 343 283 343 303 363 c 128,-1,0
 323 383 323 383 351 383 c 128,-1,1
258 376 m 0,8,9
 266 376 266 376 274 376 c 1,10,11
 260 358 260 358 255 336 c 0,12,13
 254 328 254 328 253 320 c 1,14,15
 213 320 213 320 177.5 301 c 128,-1,16
 142 282 142 282 120 249 c 1,17,18
 105 258 105 258 88 262 c 0,19,20
 78 264 78 264 68 264 c 0,21,22
 65 264 65 264 63 264 c 1,23,24
 92 316 92 316 145 346.5 c 128,-1,25
 198 377 198 377 258 376 c 0,8,9
442 277 m 1,26,27
 493 199 493 199 474 107 c 0,28,29
 463 56 463 56 431 16 c 1,30,31
 423 46 423 46 398 66 c 1,32,33
 413 91 413 91 419 119 c 0,34,35
 432 178 432 178 404 232 c 1,36,37
 430 248 430 248 442 277 c 1,26,27
431 16 m 1024,38,-1
68 234 m 128,-1,40
 96 234 96 234 116 214 c 128,-1,41
 136 194 136 194 136 166 c 128,-1,42
 136 138 136 138 116 118 c 128,-1,43
 96 98 96 98 68 98 c 128,-1,44
 40 98 40 98 20 118 c 128,-1,45
 0 138 0 138 0 166 c 128,-1,46
 0 194 0 194 20 214 c 128,-1,39
 40 234 40 234 68 234 c 128,-1,40
108 77 m 1,47,48
 145 7 145 7 221 -9 c 0,49,50
 230 -11 230 -11 238 -12 c 1,51,52
 239 -43 239 -43 258 -69 c 1,53,54
 234 -69 234 -69 210 -64 c 0,55,56
 155 -52 155 -52 113 -16.5 c 128,-1,57
 71 19 71 19 50 70 c 1,58,59
 80 64 80 64 108 77 c 1,47,48
336 59 m 128,-1,61
 364 59 364 59 384 39 c 128,-1,62
 404 19 404 19 404 -9.5 c 128,-1,63
 404 -38 404 -38 384 -57.5 c 128,-1,64
 364 -77 364 -77 336 -77 c 128,-1,65
 308 -77 308 -77 288 -57.5 c 128,-1,66
 268 -38 268 -38 268 -9.5 c 128,-1,67
 268 19 268 19 288 39 c 128,-1,60
 308 59 308 59 336 59 c 128,-1,61
EndSplineSet
Validated: 2097185
EndChar

StartChar: Ubuntu
Encoding: 62236 62236 32
Width: 512
GlyphClass: 1
Flags: W
LayerCount: 2
Fore
SplineSet
256 409 m 128,-1,1
 362 409 362 409 437 334 c 128,-1,2
 512 259 512 259 512 152.5 c 128,-1,3
 512 46 512 46 437 -29 c 128,-1,4
 362 -104 362 -104 256 -104 c 128,-1,5
 150 -104 150 -104 75 -29 c 128,-1,6
 0 46 0 46 0 152.5 c 128,-1,7
 0 259 0 259 75 334 c 128,-1,0
 150 409 150 409 256 409 c 128,-1,1
331.5 344 m 128,-1,9
 308 344 308 344 291.5 327 c 128,-1,10
 275 310 275 310 275 286.5 c 128,-1,11
 275 263 275 263 291.5 246.5 c 128,-1,12
 308 230 308 230 331.5 230 c 128,-1,13
 355 230 355 230 372 246.5 c 128,-1,14
 389 263 389 263 389 286.5 c 128,-1,15
 389 310 389 310 372 327 c 128,-1,8
 355 344 355 344 331.5 344 c 128,-1,9
254 338 m 0,16,17
 203 338 203 338 159 312.5 c 128,-1,18
 115 287 115 287 90 244 c 1,19,20
 92 244 92 244 95 244 c 0,21,22
 103 244 103 244 112 242 c 0,23,24
 126 239 126 239 138 231 c 1,25,26
 157 259 157 259 186.5 275 c 128,-1,27
 216 291 216 291 250 291 c 1,28,29
 250 298 250 298 251 304 c 0,30,31
 255 322 255 322 267 337 c 1,32,33
 260 338 260 338 254 338 c 0,16,17
408 255 m 1,34,35
 398 231 398 231 376 217 c 1,36,37
 399 172 399 172 389 123 c 0,38,39
 384 99 384 99 371 78 c 1,40,41
 392 62 392 62 398 36 c 1,42,-1
 398 36 l 1,43,44
 425 70 425 70 434 113 c 0,45,46
 451 189 451 189 408 255 c 1,34,35
94.5 219 m 128,-1,48
 71 219 71 219 54.5 202.5 c 128,-1,49
 38 186 38 186 38 162 c 128,-1,50
 38 138 38 138 54.5 121.5 c 128,-1,51
 71 105 71 105 94.5 105 c 128,-1,52
 118 105 118 105 135 121.5 c 128,-1,53
 152 138 152 138 152 162 c 128,-1,54
 152 186 152 186 135 202.5 c 128,-1,47
 118 219 118 219 94.5 219 c 128,-1,48
129 88 m 1,55,56
 105 77 105 77 80 82 c 1,57,58
 97 39 97 39 132.5 9 c 128,-1,59
 168 -21 168 -21 213 -30 c 0,60,61
 233 -35 233 -35 254 -34 c 1,62,63
 238 -13 238 -13 237 13 c 1,64,65
 230 14 230 14 223 15 c 0,66,67
 159 29 159 29 129 88 c 1,55,56
319.5 72 m 128,-1,69
 296 72 296 72 279 55.5 c 128,-1,70
 262 39 262 39 262 15.5 c 128,-1,71
 262 -8 262 -8 279 -25 c 128,-1,72
 296 -42 296 -42 319.5 -42 c 128,-1,73
 343 -42 343 -42 359.5 -25 c 128,-1,74
 376 -8 376 -8 376 15.5 c 128,-1,75
 376 39 376 39 359.5 55.5 c 128,-1,68
 343 72 343 72 319.5 72 c 128,-1,69
EndSplineSet
Validated: 2097189
EndChar

StartChar: Alma
Encoding: 62237 62237 33
Width: 512
GlyphClass: 1
Flags: W
LayerCount: 2
Fore
SplineSet
471 122 m 0,0,1
 487 123 487 123 499 113 c 128,-1,2
 511 103 511 103 512 87 c 0,3,4
 513 70 513 70 502.5 58 c 128,-1,5
 492 46 492 46 476 44 c 0,6,7
 460 43 460 43 448 53.5 c 128,-1,8
 436 64 436 64 435 80 c 256,9,10
 434 96 434 96 444 108 c 128,-1,11
 454 120 454 120 471 122 c 0,0,1
206 -57 m 0,12,13
 206 -41 206 -41 216.5 -30 c 128,-1,14
 227 -19 227 -19 242.5 -19 c 128,-1,15
 258 -19 258 -19 270 -30.5 c 128,-1,16
 282 -42 282 -42 282 -58 c 0,17,18
 282 -73 282 -73 271.5 -84.5 c 128,-1,19
 261 -96 261 -96 246 -97 c 0,20,21
 228 -97 228 -97 217 -86.5 c 128,-1,22
 206 -76 206 -76 206 -57 c 0,12,13
265 188 m 1,23,24
 261 186 261 186 259 191 c 0,25,26
 235 234 235 234 243.5 284 c 128,-1,27
 252 334 252 334 292 366 c 0,28,29
 303 375 303 375 319.5 376 c 128,-1,30
 336 377 336 377 345 368 c 0,31,32
 350 364 350 364 352 353 c 0,33,34
 355 329 355 329 364 318 c 0,35,36
 378 302 378 302 399 304 c 0,37,38
 400 304 400 304 403 304 c 128,-1,39
 406 304 406 304 407.5 304 c 128,-1,40
 409 304 409 304 412 303.5 c 128,-1,41
 415 303 415 303 416 302.5 c 128,-1,42
 417 302 417 302 419.5 301.5 c 128,-1,43
 422 301 422 301 423.5 299.5 c 128,-1,44
 425 298 425 298 426.5 296 c 128,-1,45
 428 294 428 294 430 292 c 0,46,47
 433 286 433 286 432 269.5 c 128,-1,48
 431 253 431 253 426 249 c 0,49,50
 423 247 423 247 417 249 c 0,51,52
 390 259 390 259 358 253 c 0,53,54
 348 252 348 252 348 262 c 0,55,56
 346 283 346 283 338 297 c 0,57,58
 327 314 327 314 312.5 314.5 c 128,-1,59
 298 315 298 315 286 300 c 0,60,61
 274 283 274 283 267 242 c 0,62,63
 264 225 264 225 265 188 c 1,23,24
286 175 m 1,64,65
 284 179 284 179 288 182 c 0,66,67
 325 216 325 216 373 219.5 c 128,-1,68
 421 223 421 223 463 191 c 0,69,70
 474 182 474 182 479 167 c 128,-1,71
 484 152 484 152 479 141 c 0,72,73
 474 134 474 134 466 131 c 0,74,75
 444 121 444 121 436 110 c 0,76,77
 425 94 425 94 430 73 c 0,78,79
 430 72 430 72 431 68.5 c 128,-1,80
 432 65 432 65 432 64.5 c 128,-1,81
 432 64 432 64 432.5 60.5 c 128,-1,82
 433 57 433 57 433 56 c 128,-1,83
 433 55 433 55 432.5 52.5 c 128,-1,84
 432 50 432 50 431 48 c 128,-1,85
 430 46 430 46 429 44 c 128,-1,86
 428 42 428 42 426 40 c 0,87,88
 421 36 421 36 405.5 33.5 c 128,-1,89
 390 31 390 31 384 34 c 0,90,91
 381 37 381 37 382 43 c 0,92,93
 385 69 385 69 372 101 c 0,94,95
 368 111 368 111 377 113 c 0,96,97
 396 119 396 119 408 131 c 0,98,99
 422 144 422 144 419 159 c 128,-1,100
 416 174 416 174 398 181 c 0,101,102
 379 190 379 190 339 186 c 0,103,104
 316 184 316 184 286 175 c 1,64,65
275 153 m 1,105,106
 278 156 278 156 282 153 c 0,107,108
 324 127 324 127 341 82.5 c 128,-1,109
 358 38 358 38 341 -11 c 0,110,111
 336 -24 336 -24 322 -33.5 c 128,-1,112
 308 -43 308 -43 296 -40 c 0,113,114
 289 -39 289 -39 283 -31 c 0,115,116
 269 -13 269 -13 254 -8 c 0,117,118
 236 -2 236 -2 218 -13 c 0,119,120
 217 -13 217 -13 214 -15 c 128,-1,121
 211 -17 211 -17 210 -17.5 c 128,-1,122
 209 -18 209 -18 206 -19.5 c 128,-1,123
 203 -21 203 -21 202 -21 c 128,-1,124
 201 -21 201 -21 198.5 -21.5 c 128,-1,125
 196 -22 196 -22 194 -21.5 c 128,-1,126
 192 -21 192 -21 189.5 -20.5 c 128,-1,127
 187 -20 187 -20 185 -19 c 0,128,129
 179 -15 179 -15 172 -0.5 c 128,-1,130
 165 14 165 14 167 20 c 0,131,132
 169 23 169 23 176 23 c 0,133,134
 202 28 202 28 229 50 c 0,135,136
 237 57 237 57 243 49 c 0,137,138
 253 32 253 32 269 24 c 0,139,140
 285 15 285 15 298.5 22 c 128,-1,141
 312 29 312 29 314 48 c 256,142,143
 316 67 316 67 302 106 c 0,144,145
 292 129 292 129 275 153 c 1,105,106
249 148 m 0,146,147
 244 124 244 124 228 101 c 0,148,149
 182 35 182 35 100 43 c 0,150,151
 86 44 86 44 75 54 c 128,-1,152
 64 64 64 64 63 76 c 0,153,154
 62 86 62 86 68 93 c 0,155,156
 79 107 79 107 82 117 c 0,157,158
 88 142 88 142 66 164 c 0,159,160
 39 191 39 191 72 212 c 0,161,162
 75 214 75 214 82 217 c 0,163,164
 90 222 90 222 92 214 c 0,165,166
 102 190 102 190 132 169 c 0,167,168
 139 162 139 162 133 154 c 0,169,170
 117 137 117 137 116 115 c 0,171,172
 115 101 115 101 122.5 93 c 128,-1,173
 130 85 130 85 144 85 c 256,174,175
 158 85 158 85 176 94 c 0,176,177
 206 109 206 109 242 147 c 0,178,179
 248 149 248 149 249 148 c 0,146,147
111 325 m 0,180,181
 113 325 113 325 121 323 c 0,182,183
 167 314 167 314 181 357 c 0,184,185
 192 388 192 388 221 373 c 1,186,187
 221 373 221 373 221.5 372.5 c 128,-1,188
 222 372 222 372 223 372 c 0,189,190
 236 364 236 364 237 359.5 c 128,-1,191
 238 355 238 355 228 342 c 0,192,193
 215 324 215 324 211 298 c 0,194,195
 209 286 209 286 197 290 c 0,196,197
 177 298 177 298 155 290 c 0,198,199
 144 287 144 287 139 277 c 128,-1,200
 134 267 134 267 138 255 c 0,201,202
 140 249 140 249 143 244 c 128,-1,203
 146 239 146 239 151 234 c 128,-1,204
 156 229 156 229 159 227 c 128,-1,205
 162 225 162 225 170 220 c 128,-1,206
 178 215 178 215 179 214 c 0,207,208
 187 208 187 208 231 190 c 0,209,210
 231 189 231 189 232 189 c 0,211,212
 237 188 237 188 237 185 c 0,213,214
 236 182 236 182 229 182 c 0,215,216
 162 181 162 181 126 211 c 0,217,218
 77 251 77 251 82 300 c 0,219,220
 88 321 88 321 111 325 c 0,180,181
42 89 m 0,221,222
 27 87 27 87 14 97.5 c 128,-1,223
 1 108 1 108 0 124 c 0,224,225
 -1 139 -1 139 9.5 152 c 128,-1,226
 20 165 20 165 35 166 c 0,227,228
 51 168 51 168 64 158 c 128,-1,229
 77 148 77 148 78 133 c 0,230,231
 80 118 80 118 69.5 104 c 128,-1,232
 59 90 59 90 42 89 c 0,221,222
395 388 m 0,233,234
 410 389 410 389 423 378 c 128,-1,235
 436 367 436 367 437 352 c 0,236,237
 439 336 439 336 428 324 c 128,-1,238
 417 312 417 312 402 310 c 0,239,240
 386 309 386 309 373.5 319.5 c 128,-1,241
 361 330 361 330 359 346 c 0,242,243
 358 362 358 362 368 374 c 128,-1,244
 378 386 378 386 395 388 c 0,233,234
176 372 m 0,245,246
 177 355 177 355 167 343 c 128,-1,247
 157 331 157 331 140 328 c 0,248,249
 126 326 126 326 113 336 c 128,-1,250
 100 346 100 346 98 360 c 0,251,252
 96 378 96 378 105.5 390.5 c 128,-1,253
 115 403 115 403 132 404 c 0,254,255
 147 406 147 406 160.5 396 c 128,-1,256
 174 386 174 386 176 372 c 0,245,246
EndSplineSet
Validated: 33
EndChar

StartChar: ArchLabs
Encoding: 62238 62238 34
Width: 512
GlyphClass: 1
Flags: W
LayerCount: 2
Fore
SplineSet
257 409 m 1,0,1
 295 309 295 309 371 160.5 c 128,-1,2
 447 12 447 12 512 -103 c 1,3,4
 408 -42 408 -42 331 -21 c 1,5,6
 346 17 346 17 346.5 49 c 128,-1,7
 347 81 347 81 336 105 c 128,-1,8
 325 129 325 129 312 150.5 c 128,-1,9
 299 172 299 172 287 199 c 128,-1,10
 275 226 275 226 273 253 c 1,11,12
 228 224 228 224 204 185.5 c 128,-1,13
 180 147 180 147 178 96 c 128,-1,14
 176 45 176 45 203 -16 c 1,15,16
 158 -26 158 -26 117 -43.5 c 128,-1,17
 76 -61 76 -61 0 -104 c 1,18,19
 177 207 177 207 257 409 c 1,0,1
268 197 m 1,20,21
 268 173 268 173 280 148.5 c 128,-1,22
 292 124 292 124 303 105 c 128,-1,23
 314 86 314 86 319 61 c 128,-1,24
 324 36 324 36 306.5 0 c 128,-1,25
 289 -36 289 -36 246 -83 c 1,26,27
 273 -52 273 -52 276.5 -7.5 c 128,-1,28
 280 37 280 37 269.5 66.5 c 128,-1,29
 259 96 259 96 248 96 c 0,30,31
 242 96 242 96 232.5 80 c 128,-1,32
 223 64 223 64 219 42 c 128,-1,33
 215 20 215 20 225 -3 c 1,34,35
 221 3 221 3 215.5 15.5 c 128,-1,36
 210 28 210 28 205 51.5 c 128,-1,37
 200 75 200 75 202 98.5 c 128,-1,38
 204 122 204 122 220.5 149.5 c 128,-1,39
 237 177 237 177 268 197 c 1,20,21
EndSplineSet
Validated: 33
EndChar

StartChar: Artix
Encoding: 62239 62239 35
Width: 499
GlyphClass: 1
Flags: W
LayerCount: 2
Fore
SplineSet
250 410 m 1,0,-1
 404 94 l 1,1,-1
 162 229 l 1,2,-1
 250 410 l 1,0,-1
135 175 m 1,3,-1
 401 64 l 1,4,-1
 0 -102 l 1,5,-1
 135 175 l 1,3,-1
430 39 m 1,6,-1
 499 -102 l 1,7,-1
 304 -33 l 1,8,-1
 430 39 l 1,6,-1
EndSplineSet
Validated: 1
EndChar

StartChar: Budgie
Encoding: 62240 62240 36
Width: 512
GlyphClass: 1
Flags: W
LayerCount: 2
Fore
SplineSet
245 410 m 1,0,-1
 269 410 l 1,1,2
 360 404 360 404 425 346 c 0,3,4
 464 312 464 312 487 264 c 128,-1,5
 510 216 510 216 512 164 c 2,6,-1
 512 141 l 1,7,8
 506 50 506 50 449 -15 c 0,9,10
 415 -54 415 -54 367.5 -76.5 c 128,-1,11
 320 -99 320 -99 268 -102 c 2,12,-1
 245 -102 l 1,13,14
 153 -98 153 -98 86 -37 c 0,15,16
 48 -4 48 -4 25.5 43.5 c 128,-1,17
 3 91 3 91 0 142 c 2,18,-1
 0 165 l 2,19,20
 2 217 2 217 24.5 264.5 c 128,-1,21
 47 312 47 312 86 345 c 0,22,23
 153 406 153 406 245 410 c 1,0,-1
314 275 m 0,24,25
 276 275 276 275 252 258 c 0,26,27
 234 245 234 245 209 213 c 128,-1,28
 184 181 184 181 172 170 c 0,29,30
 153 149 153 149 121 159 c 0,31,32
 91 169 91 169 82 200 c 1,33,34
 72 147 72 147 88 106 c 0,35,36
 107 59 107 59 151 31 c 0,37,38
 221 -12 221 -12 303 8 c 0,39,40
 359 22 359 22 396 61 c 1,41,42
 433 110 433 110 430 165 c 1,43,44
 438 170 438 170 452 178 c 1,45,46
 434 184 434 184 427 187 c 1,47,48
 423 219 423 219 405 238 c 0,49,50
 379 268 379 268 329 274 c 0,51,52
 322 275 322 275 314 275 c 0,24,25
200 147 m 0,53,54
 209 162 209 162 227 164 c 0,55,56
 242 166 242 166 254 154.5 c 128,-1,57
 266 143 266 143 264 128 c 0,58,59
 257 103 257 103 238 98 c 0,60,61
 229 96 229 96 219 95.5 c 128,-1,62
 209 95 209 95 196 97.5 c 128,-1,63
 183 100 183 100 178 101 c 128,-1,64
 173 102 173 102 155 107 c 128,-1,65
 137 112 137 112 137 112 c 1,66,67
 183 119 183 119 200 147 c 0,53,54
353 219 m 128,-1,69
 360 219 360 219 365 215 c 1,70,71
 363 215 363 215 362 215 c 0,72,73
 356 215 356 215 356 210 c 128,-1,74
 356 205 356 205 361.5 205 c 128,-1,75
 367 205 367 205 367 210 c 0,76,77
 367 211 367 211 367 212 c 1,78,79
 370 208 370 208 370 203 c 0,80,81
 370 196 370 196 365 191 c 128,-1,82
 360 186 360 186 353 186 c 128,-1,83
 346 186 346 186 341.5 191 c 128,-1,84
 337 196 337 196 337 203 c 128,-1,85
 337 210 337 210 341.5 214.5 c 128,-1,68
 346 219 346 219 353 219 c 128,-1,69
EndSplineSet
Validated: 33
EndChar

StartChar: Deepin
Encoding: 62241 62241 37
Width: 512
GlyphClass: 1
Flags: W
LayerCount: 2
Fore
SplineSet
344 395 m 0,0,1
 409 371 409 371 453 318 c 128,-1,2
 497 265 497 265 508 200.5 c 128,-1,3
 519 136 519 136 496 67 c 0,4,5
 473 1 473 1 419.5 -43 c 128,-1,6
 366 -87 366 -87 301.5 -98 c 128,-1,7
 237 -109 237 -109 168 -86 c 0,8,9
 103 -63 103 -63 59 -9.5 c 128,-1,10
 15 44 15 44 4 108.5 c 128,-1,11
 -7 173 -7 173 15 242 c 0,12,13
 35 297 35 297 76 336.5 c 128,-1,14
 117 376 117 376 171 395 c 1,15,16
 170 394 170 394 176 396.5 c 128,-1,17
 182 399 182 399 198 403 c 128,-1,18
 214 407 214 407 232 409 c 0,19,20
 291 414 291 414 344 395 c 0,0,1
177 -62 m 0,21,22
 267 -95 267 -95 353.5 -54.5 c 128,-1,23
 440 -14 440 -14 472 75 c 0,24,25
 502 157 502 157 469 240 c 1,26,27
 450 245 450 245 434 251 c 0,28,29
 428 253 428 253 417.5 256 c 128,-1,30
 407 259 407 259 382.5 262.5 c 128,-1,31
 358 266 358 266 342 264 c 0,32,33
 314 261 314 261 286 253 c 0,34,35
 281 252 281 252 278 243 c 0,36,37
 274 234 274 234 264 221.5 c 128,-1,38
 254 209 254 209 239 203 c 0,39,40
 238 203 238 203 236 202.5 c 128,-1,41
 234 202 234 202 230.5 198.5 c 128,-1,42
 227 195 227 195 228 191 c 0,43,44
 229 189 229 189 230 187 c 128,-1,45
 231 185 231 185 235.5 182 c 128,-1,46
 240 179 240 179 247 184 c 0,47,48
 252 186 252 186 259 190.5 c 128,-1,49
 266 195 266 195 281.5 212.5 c 128,-1,50
 297 230 297 230 306 251 c 0,51,52
 307 252 307 252 309.5 252.5 c 128,-1,53
 312 253 312 253 319 253.5 c 128,-1,54
 326 254 326 254 332 253 c 0,55,56
 332 250 332 250 330 245 c 128,-1,57
 328 240 328 240 321 226 c 128,-1,58
 314 212 314 212 306.5 200 c 128,-1,59
 299 188 299 188 286.5 175.5 c 128,-1,60
 274 163 274 163 261 156 c 0,61,62
 259 155 259 155 256 154 c 128,-1,63
 253 153 253 153 245.5 152 c 128,-1,64
 238 151 238 151 232.5 153 c 128,-1,65
 227 155 227 155 224 164.5 c 128,-1,66
 221 174 221 174 223 190 c 0,67,68
 224 193 224 193 225 197 c 128,-1,69
 226 201 226 201 231.5 213 c 128,-1,70
 237 225 237 225 246.5 236 c 128,-1,71
 256 247 256 247 275 261 c 128,-1,72
 294 275 294 275 319 285 c 0,73,74
 376 312 376 312 411 325 c 1,75,76
 377 356 377 356 335 371 c 0,77,78
 334 371 334 371 311 377 c 1,79,80
 277 354 277 354 247.5 312.5 c 128,-1,81
 218 271 218 271 206 236 c 0,82,83
 203 229 203 229 200 217 c 128,-1,84
 197 205 197 205 199 177 c 128,-1,85
 201 149 201 149 217 132 c 0,86,87
 219 130 219 130 221.5 128 c 128,-1,88
 224 126 224 126 232.5 123 c 128,-1,89
 241 120 241 120 250 120 c 128,-1,90
 259 120 259 120 273 126.5 c 128,-1,91
 287 133 287 133 300 146 c 0,92,93
 304 149 304 149 309.5 155 c 128,-1,94
 315 161 315 161 328.5 187 c 128,-1,95
 342 213 342 213 350 247 c 1,96,97
 357 243 357 243 357 241 c 0,98,99
 358 239 358 239 356 223.5 c 128,-1,100
 354 208 354 208 346 182 c 128,-1,101
 338 156 338 156 326 137 c 0,102,103
 324 135 324 135 322 131.5 c 128,-1,104
 320 128 320 128 312 119.5 c 128,-1,105
 304 111 304 111 295 105 c 128,-1,106
 286 99 286 99 271.5 94.5 c 128,-1,107
 257 90 257 90 242 92 c 0,108,109
 178 99 178 99 144 180 c 0,110,111
 134 203 134 203 130.5 247.5 c 128,-1,112
 127 292 127 292 134 349 c 1,113,114
 66 306 66 306 40 233 c 0,115,116
 22 185 22 185 28 131 c 1,117,118
 41 121 41 121 55.5 112.5 c 128,-1,119
 70 104 70 104 92 92 c 128,-1,120
 114 80 114 80 134.5 72 c 128,-1,121
 155 64 155 64 181.5 57 c 128,-1,122
 208 50 208 50 230.5 51 c 128,-1,123
 253 52 253 52 280 57 c 0,124,125
 309 65 309 65 329 85 c 128,-1,126
 349 105 349 105 354 121 c 2,127,-1
 360 136 l 2,128,129
 367 156 367 156 367.5 181 c 128,-1,130
 368 206 368 206 366 221 c 2,131,-1
 363 236 l 1,132,133
 384 198 384 198 389 161.5 c 128,-1,134
 394 125 394 125 385.5 100 c 128,-1,135
 377 75 377 75 366 55.5 c 128,-1,136
 355 36 355 36 345 27 c 2,137,-1
 334 17 l 2,138,139
 296 -18 296 -18 242.5 -32.5 c 128,-1,140
 189 -47 189 -47 137 -43 c 1,141,142
 157 -55 157 -55 177 -62 c 0,21,22
EndSplineSet
Validated: 33
EndChar

StartChar: Endeavour
Encoding: 62242 62242 38
Width: 509
GlyphClass: 1
Flags: W
LayerCount: 2
Fore
SplineSet
47 23 m 0,0,1
 4 30 4 30 0 32 c 1,2,3
 1 37 1 37 69 119 c 0,4,5
 202 278 202 278 253 335 c 0,6,7
 257 339 257 339 267.5 351 c 128,-1,8
 278 363 278 363 283 368 c 0,9,10
 294 381 294 381 296 381 c 1,11,12
 296 381 296 381 294.5 378.5 c 128,-1,13
 293 376 293 376 289.5 372 c 128,-1,14
 286 368 286 368 284 365 c 0,15,16
 250 318 250 318 100 77 c 2,17,-1
 65 21 l 1,18,-1
 61 21 l 2,19,20
 57 21 57 21 47 23 c 0,0,1
62 -41 m 0,21,22
 30 -40 30 -40 29.5 -39.5 c 128,-1,23
 29 -39 29 -39 46.5 -10 c 128,-1,24
 64 19 64 19 65 19.5 c 128,-1,25
 66 20 66 20 96 17 c 0,26,27
 189 8 189 8 277 2 c 0,28,29
 300 1 300 1 334 1 c 128,-1,30
 368 1 368 1 377 2 c 0,31,32
 438 13 438 13 449 55 c 0,33,34
 452 67 452 67 452 82 c 0,35,36
 451 106 451 106 443 132 c 0,37,38
 418 217 418 217 319 350 c 0,39,40
 310 362 310 362 303 371.5 c 128,-1,41
 296 381 296 381 298 381 c 0,42,43
 303 377 303 377 309 370 c 0,44,45
 348 328 348 328 389 279 c 0,46,47
 495 151 495 151 507 74 c 0,48,49
 515 22 515 22 479 -4 c 0,50,51
 455 -22 455 -22 402 -28 c 0,52,53
 262 -45 262 -45 62 -41 c 0,21,22
295 368 m 2,54,55
 295 368 295 368 295.5 369 c 128,-1,56
 296 370 296 370 296 370 c 1,57,58
 300 364 300 364 327 327 c 0,59,60
 378 255 378 255 407 200 c 0,61,62
 408 199 408 199 412 190 c 0,63,64
 426 162 426 162 434 138 c 0,65,66
 437 130 437 130 439 123 c 0,67,68
 441 114 441 114 443 106 c 0,69,70
 443 104 443 104 444 99 c 0,71,72
 448 71 448 71 440 52 c 0,73,74
 432 31 432 31 411 20 c 0,75,76
 392 10 392 10 357 8 c 0,77,78
 344 7 344 7 328 8 c 0,79,80
 298 8 298 8 247 11 c 0,81,82
 182 16 182 16 81 25 c 0,83,84
 81 26 81 26 79 26 c 256,85,86
 77 26 77 26 77 26 c 1,87,88
 93 52 93 52 143 132 c 0,89,90
 211 241 211 241 247 297 c 0,91,92
 285 355 285 355 295 368 c 2,54,55
EndSplineSet
Validated: 33
EndChar

StartChar: Ferris
Encoding: 62243 62243 39
Width: 512
GlyphClass: 1
Flags: W
LayerCount: 2
Fore
SplineSet
254 323 m 128,-1,1
 258 323 258 323 260 319 c 2,2,-1
 272 298 l 2,3,4
 275 297 275 297 278 297 c 2,5,-1
 295 316 l 2,6,7
 298 319 298 319 301.5 318 c 128,-1,8
 305 317 305 317 307 313 c 2,9,-1
 315 290 l 2,10,11
 318 289 318 289 321 288 c 2,12,-1
 341 302 l 2,13,14
 344 305 344 305 347.5 303.5 c 128,-1,15
 351 302 351 302 352 298 c 2,16,-1
 356 273 l 2,17,18
 358 272 358 272 361 270 c 2,19,-1
 383 280 l 2,20,21
 386 282 386 282 389.5 279.5 c 128,-1,22
 393 277 393 277 393 273 c 2,23,-1
 392 248 l 2,24,25
 394 246 394 246 397 244 c 2,26,-1
 420 250 l 2,27,28
 424 251 424 251 427 248 c 128,-1,29
 430 245 430 245 429 241 c 2,30,-1
 423 216 l 2,31,32
 425 214 425 214 427 212 c 2,33,-1
 451 212 l 2,34,35
 455 213 455 213 457 209.5 c 128,-1,36
 459 206 459 206 458 202 c 2,37,-1
 448 179 l 2,38,39
 450 176 450 176 451 173 c 2,40,-1
 474 169 l 2,41,42
 478 169 478 169 479.5 165 c 128,-1,43
 481 161 481 161 479 158 c 2,44,-1
 465 137 l 2,45,46
 465 136 465 136 466 133 c 2,47,-1
 509 102 l 2,48,49
 516 98 516 98 509.5 86 c 128,-1,50
 503 74 503 74 456 9 c 0,51,52
 445 -9 445 -9 444 -9 c 0,53,54
 443 -8 443 -8 444 -2.5 c 128,-1,55
 445 3 445 3 448.5 13.5 c 128,-1,56
 452 24 452 24 458 34 c 0,57,58
 481 86 481 86 474 90 c 0,59,60
 473 91 473 91 471 92 c 1,61,62
 470 90 470 90 469 89 c 0,63,64
 464 80 464 80 432 34 c 0,65,66
 425 21 425 21 424 22 c 2,67,68
 424 22 424 22 425 26.5 c 128,-1,69
 426 31 426 31 429 39 c 128,-1,70
 432 47 432 47 437 55 c 0,71,72
 449 80 449 80 452 93 c 1,73,74
 444 86 444 86 431 80 c 1,75,76
 422 65 422 65 406.5 52.5 c 128,-1,77
 391 40 391 40 380 35 c 2,78,-1
 369 30 l 1,79,80
 351 10 351 10 333 0 c 128,-1,81
 315 -10 315 -10 303 -9.5 c 128,-1,82
 291 -9 291 -9 281 -5.5 c 128,-1,83
 271 -2 271 -2 267 3 c 2,84,-1
 262 8 l 1,85,86
 281 7 281 7 298 15 c 128,-1,87
 315 23 315 23 321 32 c 2,88,-1
 328 40 l 1,89,90
 307 46 307 46 290.5 46.5 c 128,-1,91
 274 47 274 47 268 45 c 2,92,-1
 262 42 l 1,93,94
 265 47 265 47 269 51 c 1,95,96
 258 51 258 51 247 51 c 2,97,98
 247 51 247 51 245.5 51 c 128,-1,99
 244 51 244 51 243 51 c 1,100,101
 247 47 247 47 250 43 c 1,102,103
 225 42 225 42 183 37 c 1,104,105
 185 35 185 35 190.5 30.5 c 128,-1,106
 196 26 196 26 212 19 c 128,-1,107
 228 12 228 12 243 10 c 1,108,109
 242 7 242 7 239.5 3 c 128,-1,110
 237 -1 237 -1 228.5 -7.5 c 128,-1,111
 220 -14 220 -14 210.5 -15 c 128,-1,112
 201 -16 201 -16 184.5 -6.5 c 128,-1,113
 168 3 168 3 151 26 c 0,114,115
 148 26 148 26 143.5 27.5 c 128,-1,116
 139 29 139 29 124 41 c 128,-1,117
 109 53 109 53 94 74 c 1,118,119
 81 79 81 79 72 85 c 1,120,121
 77 72 77 72 86 55 c 0,122,123
 91 47 91 47 95 39.5 c 128,-1,124
 99 32 99 32 100 27.5 c 128,-1,125
 101 23 101 23 101 22.5 c 128,-1,126
 101 22 101 22 98 25.5 c 128,-1,127
 95 29 95 29 91 35 c 0,128,129
 55 79 55 79 49 87 c 0,130,131
 47 91 47 91 46 93 c 1,132,-1
 41 88 l 2,133,134
 35 83 35 83 68 34 c 0,135,136
 76 24 76 24 81.5 13.5 c 128,-1,137
 87 3 87 3 89 -2.5 c 128,-1,138
 91 -8 91 -8 90 -8 c 0,139,140
 89 -9 89 -9 74 8 c 0,141,142
 14 67 14 67 5 78 c 0,143,144
 1 83 1 83 0 87 c 128,-1,145
 -1 91 -1 91 1 93 c 2,146,-1
 2 94 l 1,147,-1
 42 136 l 2,148,149
 42 137 42 137 42 137 c 1,150,-1
 28 158 l 2,151,152
 26 161 26 161 27.5 165 c 128,-1,153
 29 169 29 169 33 169 c 2,154,-1
 57 173 l 2,155,156
 58 176 58 176 59 179 c 2,157,-1
 49 202 l 2,158,159
 48 206 48 206 50 209.5 c 128,-1,160
 52 213 52 213 56 212 c 2,161,-1
 80 212 l 2,162,163
 82 214 82 214 84 216 c 2,164,-1
 79 241 l 2,165,166
 78 245 78 245 80.5 248 c 128,-1,167
 83 251 83 251 87 250 c 2,168,-1
 111 244 l 2,169,170
 113 246 113 246 115 248 c 2,171,-1
 114 273 l 2,172,173
 114 277 114 277 117.5 279.5 c 128,-1,174
 121 282 121 282 124 280 c 2,175,-1
 146 270 l 2,176,177
 149 271 149 271 152 273 c 2,178,-1
 156 298 l 2,179,180
 156 302 156 302 160 303.5 c 128,-1,181
 164 305 164 305 167 302 c 2,182,-1
 186 288 l 2,183,184
 190 289 190 289 192 290 c 2,185,-1
 201 313 l 2,186,187
 202 317 202 317 206 318 c 128,-1,188
 210 319 210 319 212 316 c 2,189,-1
 229 297 l 2,190,191
 232 297 232 297 235 298 c 2,192,-1
 248 319 l 2,193,0
 250 323 250 323 254 323 c 128,-1,1
313 159 m 0,194,195
 307 159 307 159 301 157 c 1,196,197
 302 157 302 157 303 157 c 0,198,199
 308 157 308 157 311.5 152.5 c 128,-1,200
 315 148 315 148 315 141.5 c 128,-1,201
 315 135 315 135 311.5 130.5 c 128,-1,202
 308 126 308 126 303.5 126 c 128,-1,203
 299 126 299 126 295.5 130.5 c 128,-1,204
 292 135 292 135 292 142 c 0,205,206
 292 150 292 150 297 154 c 1,207,-1
 292 150 l 1,208,209
 284 137 284 137 284 126 c 128,-1,210
 284 115 284 115 288 111 c 2,211,-1
 292 106 l 2,212,213
 298 97 298 97 308 97 c 128,-1,214
 318 97 318 97 325 101 c 2,215,-1
 331 106 l 2,216,217
 338 112 338 112 338 123 c 128,-1,218
 338 134 338 134 335 142 c 2,219,-1
 331 150 l 2,220,221
 323 159 323 159 313 159 c 0,194,195
219 159 m 2,222,-1
 202 156 l 2,223,224
 202 155 202 155 202 154.5 c 128,-1,225
 202 154 202 154 202 154 c 1,226,227
 204 157 204 157 208 157 c 0,228,229
 213 157 213 157 216.5 152.5 c 128,-1,230
 220 148 220 148 220 141 c 128,-1,231
 220 134 220 134 216.5 129.5 c 128,-1,232
 213 125 213 125 208 125 c 128,-1,233
 203 125 203 125 199.5 129.5 c 128,-1,234
 196 134 196 134 196 141 c 0,235,236
 196 144 196 144 197 147 c 1,237,238
 188 126 188 126 192.5 114.5 c 128,-1,239
 197 103 197 103 208 99 c 2,240,-1
 218 95 l 1,241,242
 235 96 235 96 242 106.5 c 128,-1,243
 249 117 249 117 247 127 c 2,244,-1
 246 137 l 2,245,246
 240 159 240 159 219 159 c 2,222,-1
390 68 m 1,247,248
 374 63 374 63 355 60 c 1,249,-1
 360 52 l 1,250,-1
 372 55 l 2,251,252
 382 61 382 61 390 68 c 1,247,248
133 61 m 1,253,254
 141 52 141 52 148 50 c 0,255,256
 150 53 150 53 154 57 c 1,257,258
 143 59 143 59 133 61 c 1,253,254
EndSplineSet
Validated: 37
EndChar

StartChar: Flathub
Encoding: 62244 62244 40
Width: 512
GlyphClass: 1
Flags: W
LayerCount: 2
Fore
SplineSet
69 -2 m 2,0,-1
 0 43 l 1,1,-1
 0 116 l 1,2,-1
 0 189 l 1,3,-1
 128 272 l 2,4,5
 255 355 255 355 255.5 355 c 128,-1,6
 256 355 256 355 384 272 c 2,7,-1
 512 189 l 1,8,-1
 512 116 l 1,9,-1
 512 43 l 1,10,-1
 443 -2 l 2,11,12
 374 -46 374 -46 373.5 -46.5 c 128,-1,13
 373 -47 373 -47 315 -9 c 2,14,-1
 256 29 l 1,15,-1
 198 -9 l 2,16,17
 139 -47 139 -47 138.5 -47 c 128,-1,18
 138 -47 138 -47 69 -2 c 2,0,-1
137 46 m 2,19,-1
 137 104 l 1,20,-1
 81 140 l 2,21,22
 26 176 26 176 25 177 c 1,23,24
 25 177 25 177 25 174.5 c 128,-1,25
 25 172 25 172 25 165.5 c 128,-1,26
 25 159 25 159 24.5 148 c 128,-1,27
 24 137 24 137 24 119 c 2,28,-1
 24 60 l 1,29,-1
 80 24 l 2,30,31
 136 -12 136 -12 136.5 -12 c 128,-1,32
 137 -12 137 -12 137 46 c 2,19,-1
372 46 m 2,33,-1
 372 104 l 1,34,-1
 370 105 l 2,35,36
 369 106 369 106 314.5 141.5 c 128,-1,37
 260 177 260 177 260 177 c 129,-1,38
 260 177 260 177 260 119 c 2,39,-1
 260 60 l 1,40,-1
 315 24 l 2,41,42
 371 -12 371 -12 371 -12 c 2,43,44
 372 -12 372 -12 372 -9.5 c 128,-1,45
 372 -7 372 -7 372 -0.5 c 128,-1,46
 372 6 372 6 372 17 c 128,-1,47
 372 28 372 28 372 46 c 2,33,-1
431 146 m 0,48,49
 448 157 448 157 458 164 c 128,-1,50
 468 171 468 171 474.5 175 c 128,-1,51
 481 179 481 179 483.5 180.5 c 128,-1,52
 486 182 486 182 485 183 c 2,53,54
 485 183 485 183 429.5 219 c 128,-1,55
 374 255 374 255 373.5 255 c 128,-1,56
 373 255 373 255 317.5 219 c 128,-1,57
 262 183 262 183 262 182.5 c 128,-1,58
 262 182 262 182 318 145.5 c 128,-1,59
 374 109 374 109 375 109.5 c 128,-1,60
 376 110 376 110 431 146 c 0,48,49
195.5 145.5 m 128,-1,62
 251 182 251 182 251 182.5 c 128,-1,63
 251 183 251 183 195 219 c 128,-1,64
 139 255 139 255 138 255 c 2,65,66
 138 255 138 255 82.5 219 c 128,-1,67
 27 183 27 183 26.5 182.5 c 128,-1,68
 26 182 26 182 82 145.5 c 128,-1,69
 138 109 138 109 139 109 c 128,-1,61
 140 109 140 109 195.5 145.5 c 128,-1,62
312.5 222 m 128,-1,71
 368 258 368 258 368 258 c 257,72,73
 368 258 368 258 360.5 263 c 128,-1,74
 353 268 353 268 340.5 276.5 c 128,-1,75
 328 285 328 285 312 295 c 2,76,-1
 256 332 l 1,77,-1
 200 295 l 2,78,79
 144 259 144 259 144 258.5 c 128,-1,80
 144 258 144 258 200 222 c 128,-1,81
 256 186 256 186 256.5 186 c 128,-1,70
 257 186 257 186 312.5 222 c 128,-1,71
EndSplineSet
Validated: 33
EndChar

StartChar: GNU
Encoding: 62245 62245 41
Width: 500
GlyphClass: 1
Flags: W
LayerCount: 2
Fore
SplineSet
16 305 m 1,0,-1
 16 304 l 1,1,2
 23 291 23 291 31 282 c 0,3,4
 46 265 46 265 68 260 c 0,5,6
 91 256 91 256 117 260 c 0,7,8
 140 264 140 264 153 261 c 0,9,10
 179 256 179 256 190 229 c 0,11,12
 196 213 196 213 250 63 c 1,13,14
 273 127 273 127 307 221 c 0,15,16
 312 237 312 237 320 246 c 0,17,18
 337 264 337 264 364 263 c 0,19,20
 369 262 369 262 380 260.5 c 128,-1,21
 391 259 391 259 397 259 c 0,22,23
 430 258 430 258 446 265 c 0,24,25
 467 274 467 274 484 305 c 0,26,27
 487 304 487 304 493 301.5 c 128,-1,28
 499 299 499 299 500 299 c 1,29,30
 495 286 495 286 489 276 c 0,31,32
 470 239 470 239 447 226 c 0,33,34
 423 213 423 213 383 215 c 0,35,36
 382 215 382 215 377 215.5 c 128,-1,37
 372 216 372 216 371 215 c 0,38,39
 362 209 362 209 352 190 c 0,40,41
 341 167 341 167 321 105 c 0,42,43
 295 25 295 25 286 3 c 0,44,45
 282 3 282 3 251.5 3 c 128,-1,46
 221 3 221 3 217 3 c 0,47,48
 215 2 215 2 214 3 c 128,-1,49
 213 4 213 4 212.5 6 c 128,-1,50
 212 8 212 8 212 9 c 0,51,52
 207 21 207 21 174 121 c 0,53,54
 156 174 156 174 145 195 c 0,55,56
 136 212 136 212 127 216 c 1,57,58
 104 213 104 213 84 216 c 0,59,60
 53 220 53 220 33 242 c 0,61,62
 15 261 15 261 0 299 c 1,63,64
 5 301 5 301 16 305 c 1,0,-1
EndSplineSet
Validated: 33
EndChar

StartChar: illumos
Encoding: 62246 62246 42
Width: 394
GlyphClass: 1
Flags: W
LayerCount: 2
Fore
SplineSet
12 410 m 1,0,1
 14 408 14 408 19 396 c 0,2,3
 30 380 30 380 49 367 c 0,4,5
 52 365 52 365 58 361.5 c 128,-1,6
 64 358 64 358 65 357 c 1,7,8
 66 358 66 358 65.5 360 c 128,-1,9
 65 362 65 362 64.5 365.5 c 128,-1,10
 64 369 64 369 64 370 c 0,11,12
 63 373 63 373 64 374 c 0,13,14
 66 375 66 375 68 371 c 0,15,16
 76 359 76 359 85 338 c 2,17,-1
 86 334 l 1,18,19
 95 319 95 319 121 290 c 0,20,21
 157 250 157 250 250 187 c 0,22,23
 252 186 252 186 256.5 183 c 128,-1,24
 261 180 261 180 263.5 177.5 c 128,-1,25
 266 175 266 175 267 171 c 1,26,27
 271 182 271 182 277 191 c 0,28,29
 292 214 292 214 310 225 c 0,30,31
 333 241 333 241 363 233 c 0,32,33
 384 227 384 227 393 221 c 0,34,35
 396 218 396 218 392 218 c 0,36,37
 389 219 389 219 385 220 c 0,38,39
 361 222 361 222 338 203 c 0,40,41
 329 194 329 194 321 195 c 1,42,43
 315 183 315 183 313 175 c 0,44,45
 313 174 313 174 312 171 c 128,-1,46
 311 168 311 168 310.5 167 c 128,-1,47
 310 166 310 166 311 164 c 0,48,49
 321 149 321 149 318 128 c 0,50,51
 314 104 314 104 306 84 c 0,52,53
 300 69 300 69 287 49 c 0,54,55
 273 28 273 28 266 21 c 0,56,57
 263 18 263 18 263 19 c 0,58,59
 263 21 263 21 265 23 c 0,60,61
 266 24 266 24 270 31 c 128,-1,62
 274 38 274 38 275 43 c 1,63,64
 257 16 257 16 228 -8 c 1,65,66
 193 -62 193 -62 149 -92 c 0,67,68
 133 -102 133 -102 131 -102 c 0,69,70
 130 -100 130 -100 131.5 -98 c 128,-1,71
 133 -96 133 -96 135 -93.5 c 128,-1,72
 137 -91 137 -91 138 -90 c 0,73,74
 153 -71 153 -71 164 -65 c 0,75,76
 166 -63 166 -63 167 -63 c 0,77,78
 180 -55 180 -55 195 -33 c 1,79,80
 146 -64 146 -64 99 -73 c 0,81,82
 98 -73 98 -73 95 -74 c 128,-1,83
 92 -75 92 -75 90 -74.5 c 128,-1,84
 88 -74 88 -74 89 -72 c 0,85,86
 98 -64 98 -64 116 -56 c 0,87,88
 121 -53 121 -53 131.5 -50.5 c 128,-1,89
 142 -48 142 -48 144 -48 c 0,90,91
 169 -38 169 -38 195 -13 c 1,92,93
 166 -27 166 -27 135 -32 c 0,94,95
 115 -35 115 -35 105 -33 c 0,96,97
 98 -30 98 -30 112 -26 c 0,98,99
 133 -22 133 -22 150 -15 c 0,100,101
 195 7 195 7 222 43 c 1,102,103
 224 56 224 56 226 65 c 0,104,105
 228 68 228 68 226.5 69 c 128,-1,106
 225 70 225 70 222 69 c 0,107,108
 205 69 205 69 200 71 c 1,109,-1
 205 73 l 2,110,111
 215 74 215 74 224 82 c 0,112,113
 234 90 234 90 237 95 c 1,114,115
 228 90 228 90 204 85 c 0,116,117
 185 82 185 82 179 83 c 1,118,119
 181 84 181 84 194 87 c 0,120,121
 207 94 207 94 219 107 c 0,122,123
 219 108 219 108 217.5 107.5 c 128,-1,124
 216 107 216 107 213 106.5 c 128,-1,125
 210 106 210 106 209 106 c 0,126,127
 185 105 185 105 173 109 c 0,128,129
 169 111 169 111 174 111 c 0,130,131
 175 111 175 111 177 111.5 c 128,-1,132
 179 112 179 112 180 112 c 0,133,134
 195 114 195 114 209 129 c 1,135,136
 195 125 195 125 173 128 c 0,137,138
 156 131 156 131 152 135 c 1,139,-1
 161 136 l 2,140,141
 176 136 176 136 192 149 c 1,142,143
 191 150 191 150 189.5 149.5 c 128,-1,144
 188 149 188 149 185.5 148.5 c 128,-1,145
 183 148 183 148 182 148 c 0,146,147
 167 145 167 145 137 154 c 0,148,149
 119 160 119 160 115 164 c 1,150,151
 118 164 118 164 130 160 c 1,152,153
 148 161 148 161 168 168 c 1,154,155
 149 168 149 168 124 182 c 0,156,157
 110 191 110 191 107 196 c 1,158,-1
 116 194 l 2,159,160
 129 189 129 189 147 194 c 1,161,162
 146 194 146 194 141.5 194 c 128,-1,163
 137 194 137 194 135 195 c 0,164,165
 114 200 114 200 92 221 c 0,166,167
 81 232 81 232 80 237 c 0,168,169
 81 238 81 238 82.5 237 c 128,-1,170
 84 236 84 236 86 234.5 c 128,-1,171
 88 233 88 233 89 232 c 0,172,173
 105 223 105 223 128 227 c 1,174,175
 120 229 120 229 106 233 c 0,176,177
 90 237 90 237 67 258 c 0,178,179
 53 272 53 272 51 276 c 1,180,181
 54 275 54 275 64 267 c 0,182,183
 74 262 74 262 90 258 c 0,184,185
 93 258 93 258 91 258 c 0,186,187
 88 260 88 260 87 260 c 0,188,189
 61 272 61 272 39 301 c 0,190,191
 38 303 38 303 36.5 305.5 c 128,-1,192
 35 308 35 308 34 309.5 c 128,-1,193
 33 311 33 311 33 311 c 1,194,195
 39 309 39 309 52 298 c 256,196,197
 65 287 65 287 84 287 c 1,198,199
 74 290 74 290 55 300 c 0,200,201
 40 308 40 308 22 333 c 0,202,203
 11 348 11 348 10 354 c 1,204,205
 12 352 12 352 20 343 c 0,206,207
 23 339 23 339 34 333 c 1,208,209
 16 350 16 350 4 377 c 0,210,211
 3 379 3 379 2 381.5 c 128,-1,212
 1 384 1 384 0.5 386 c 128,-1,213
 0 388 0 388 0 388 c 1,214,215
 4 386 4 386 13 374 c 0,216,217
 18 367 18 367 28 360 c 1,218,219
 24 368 24 368 18 386 c 0,220,221
 12 405 12 405 12 410 c 1,0,1
132 -51 m 1024,222,-1
EndSplineSet
Validated: 37
EndChar

StartChar: Kali
Encoding: 62247 62247 43
Width: 683
GlyphClass: 1
Flags: W
LayerCount: 2
Fore
SplineSet
107 410 m 0,0,1
 198 411 198 411 254 403.5 c 128,-1,2
 310 396 310 396 358 377 c 2,3,-1
 380 369 l 2,4,5
 384 367 384 367 384 363 c 2,6,-1
 384 337 l 2,7,8
 387 310 387 310 400.5 298.5 c 128,-1,9
 414 287 414 287 431.5 286 c 128,-1,10
 449 285 449 285 481 276 c 128,-1,11
 513 267 513 267 541 247 c 1,12,13
 515 275 515 275 476 304 c 1,14,-1
 476 305 l 2,15,16
 473 307 473 307 471 309 c 0,17,18
 470 310 470 310 469 311 c 256,19,20
 468 312 468 312 467.5 312.5 c 128,-1,21
 467 313 467 313 467 314 c 256,22,23
 467 315 467 315 466 317 c 0,24,25
 466 319 466 319 466 319 c 1,26,-1
 466 320 l 2,27,28
 466 321 466 321 466 321 c 2,29,30
 467 326 467 326 472 329 c 0,31,32
 475 330 475 330 478 330 c 0,33,34
 480 330 480 330 483 329 c 128,-1,35
 486 328 486 328 491 325 c 0,36,37
 542 294 542 294 579 246 c 0,38,39
 579 245 579 245 580.5 243.5 c 128,-1,40
 582 242 582 242 583 241 c 0,41,42
 585 239 585 239 586 237 c 2,43,44
 586 237 586 237 586 236 c 1,45,-1
 587 236 l 2,46,47
 588 234 588 234 589 232 c 1,48,49
 589 232 589 232 589 232 c 129,-1,50
 589 232 589 232 589 231 c 0,51,52
 590 229 590 229 591 228 c 0,53,54
 591 227 591 227 591.5 226 c 128,-1,55
 592 225 592 225 593 224 c 0,56,57
 598 213 598 213 603 208 c 0,58,59
 607 204 607 204 604 199 c 0,60,61
 605 198 605 198 606 197 c 0,62,63
 618 188 618 188 630 187 c 0,64,65
 635 186 635 186 635.5 181 c 128,-1,66
 636 176 636 176 631 174 c 0,67,68
 629 173 629 173 625.5 172 c 128,-1,69
 622 171 622 171 621 171 c 128,-1,70
 620 171 620 171 618 169.5 c 128,-1,71
 616 168 616 168 614.5 167 c 128,-1,72
 613 166 613 166 611 163.5 c 128,-1,73
 609 161 609 161 607 158 c 0,74,75
 602 152 602 152 597 158 c 0,76,77
 587 171 587 171 572 180 c 0,78,79
 569 181 569 181 559 186 c 0,80,81
 548 190 548 190 545.5 193 c 128,-1,82
 543 196 543 196 539 209 c 0,83,84
 538 211 538 211 536 212 c 0,85,86
 532 215 532 215 516 222 c 0,87,88
 476 239 476 239 462 243 c 0,89,90
 449 247 449 247 431 247 c 0,91,92
 402 247 402 247 385.5 230 c 128,-1,93
 369 213 369 213 367.5 189 c 128,-1,94
 366 165 366 165 380.5 147 c 128,-1,95
 395 129 395 129 424 126 c 0,96,97
 429 126 429 126 444 125 c 0,98,99
 446 125 446 125 449 124.5 c 128,-1,100
 452 124 452 124 453 124 c 0,101,102
 457 124 457 124 458 124 c 0,103,104
 491 124 491 124 527 116 c 0,105,106
 619 97 619 97 657 45 c 0,107,108
 667 32 667 32 676 11 c 0,109,110
 680 1 680 1 682 -6 c 0,111,112
 683 -10 683 -10 683 -13 c 0,113,114
 683 -20 683 -20 679 -25 c 0,115,116
 677 -27 677 -27 673.5 -28 c 128,-1,117
 670 -29 670 -29 667 -28 c 0,118,119
 663 -27 663 -27 660.5 -24 c 128,-1,120
 658 -21 658 -21 656 -17 c 0,121,122
 649 4 649 4 628 26 c 128,-1,123
 607 48 607 48 583 55 c 1,124,125
 615 16 615 16 629 -40 c 0,126,127
 634 -58 634 -58 635 -74 c 0,128,129
 636 -82 636 -82 636 -87 c 0,130,131
 636 -91 636 -91 635 -93 c 0,132,133
 634 -96 634 -96 632 -98 c 0,134,135
 628 -102 628 -102 623 -102 c 0,136,137
 616 -102 616 -102 612 -97 c 0,138,139
 611 -95 611 -95 610 -91 c 0,140,141
 608 -87 608 -87 608 -81 c 0,142,143
 608 -78 608 -78 606 -69 c 0,144,145
 603 -59 603 -59 598 -47 c 0,146,147
 545 84 545 84 451 80 c 0,148,149
 427 81 427 81 410 84 c 0,150,151
 377 89 377 89 354.5 112 c 128,-1,152
 332 135 332 135 325 166 c 0,153,154
 320 195 320 195 331.5 223.5 c 128,-1,155
 343 252 343 252 371 272 c 1,156,-1
 364 288 l 2,157,158
 363 289 363 289 361 294 c 1,159,160
 297 291 297 291 244 275.5 c 128,-1,161
 191 260 191 260 124 230 c 0,162,163
 104 220 104 220 88 213 c 0,164,165
 81 210 81 210 77 208 c 0,166,167
 74 207 74 207 73 206 c 0,168,169
 72 206 72 206 71 206 c 0,170,171
 69 206 69 206 68 206 c 0,172,173
 66 206 66 206 65 206 c 0,174,175
 62 207 62 207 59.5 209 c 128,-1,176
 57 211 57 211 57 215 c 0,177,178
 56 218 56 218 57 221 c 128,-1,179
 58 224 58 224 59.5 226 c 128,-1,180
 61 228 61 228 64 231 c 0,181,182
 69 235 69 235 79 241 c 0,183,184
 98 253 98 253 123 265 c 0,185,186
 183 295 183 295 274 319 c 1,187,188
 236 319 236 319 235 319 c 0,189,190
 157 315 157 315 59 303 c 0,191,192
 42 301 42 301 27 299 c 0,193,194
 20 298 20 298 17 298 c 256,195,196
 14 298 14 298 13 298 c 128,-1,197
 12 298 12 298 11 298 c 128,-1,198
 10 298 10 298 9 299 c 2,199,-1
 7 299 l 2,200,201
 5 300 5 300 4 302 c 0,202,203
 2 304 2 304 1 307 c 0,204,205
 -1 311 -1 311 1 315 c 128,-1,206
 3 319 3 319 7 322 c 0,207,208
 10 323 10 323 17 325 c 0,209,210
 25 327 25 327 57 333 c 0,211,212
 141 348 141 348 288 355 c 1,213,214
 204 376 204 376 76 384 c 0,215,216
 57 385 57 385 55 385 c 0,217,218
 51 386 51 386 49 386 c 0,219,220
 48 386 48 386 47 387 c 2,221,-1
 45 387 l 2,222,223
 44 388 44 388 42 390 c 0,224,225
 39 394 39 394 39 398.5 c 128,-1,226
 39 403 39 403 43 406 c 0,227,228
 44 407 44 407 46 408 c 2,229,-1
 47 409 l 2,230,231
 48 409 48 409 49 409 c 256,232,233
 50 409 50 409 50 409 c 2,234,235
 53 410 53 410 68 410 c 0,236,237
 73 410 73 410 107 410 c 0,0,1
EndSplineSet
Validated: 37
EndChar

StartChar: OpenBSD
Encoding: 62248 62248 44
Width: 514
GlyphClass: 1
Flags: W
LayerCount: 2
Fore
SplineSet
307 -68 m 0,0,1
 303 -55 303 -55 301 -50 c 0,2,3
 300 -47 300 -47 297 -39 c 0,4,5
 294 -32 294 -32 292.5 -30.5 c 128,-1,6
 291 -29 291 -29 287 -29 c 2,7,-1
 284 -29 l 1,8,-1
 282 -34 l 2,9,10
 281 -40 281 -40 281 -43 c 0,11,12
 281 -45 281 -45 280 -47.5 c 128,-1,13
 279 -50 279 -50 277.5 -52 c 128,-1,14
 276 -54 276 -54 275.5 -53 c 128,-1,15
 275 -52 275 -52 273 -40.5 c 128,-1,16
 271 -29 271 -29 271 -28 c 0,17,18
 270 -27 270 -27 262 -26 c 0,19,20
 261 -26 261 -26 255.5 -38 c 128,-1,21
 250 -50 250 -50 248 -56 c 0,22,23
 246 -64 246 -64 243 -61 c 0,24,25
 242 -59 242 -59 242 -50 c 0,26,27
 241 -36 241 -36 238 -23 c 0,28,29
 236 -18 236 -18 230 -17 c 0,30,31
 225 -15 225 -15 224.5 -15 c 128,-1,32
 224 -15 224 -15 222.5 -17 c 128,-1,33
 221 -19 221 -19 219 -26 c 0,34,35
 217 -32 217 -32 216 -33 c 128,-1,36
 215 -34 215 -34 213 -34 c 0,37,38
 209 -33 209 -33 208.5 -33 c 128,-1,39
 208 -33 208 -33 208 -29 c 0,40,41
 208 -26 208 -26 209 -20 c 0,42,43
 211 -10 211 -10 209 -10 c 0,44,45
 208 -9 208 -9 205.5 -8 c 128,-1,46
 203 -7 203 -7 202 -7 c 0,47,48
 196 -7 196 -7 184 -31 c 0,49,50
 181 -38 181 -38 180 -38 c 128,-1,51
 179 -38 179 -38 178 -36.5 c 128,-1,52
 177 -35 177 -35 178 -26 c 0,53,54
 182 -6 182 -6 181 2 c 0,55,56
 180 5 180 5 177 8 c 0,57,58
 166 16 166 16 165 15 c 0,59,60
 159 10 159 10 155 1 c 0,61,62
 152 -4 152 -4 148 -2 c 0,63,64
 146 -1 146 -1 151 12 c 0,65,66
 154 22 154 22 154 23.5 c 128,-1,67
 154 25 154 25 149.5 29 c 128,-1,68
 145 33 145 33 143 33 c 0,69,70
 130 29 130 29 120 15 c 0,71,72
 116 8 116 8 113 9 c 0,73,74
 111 10 111 10 116 20 c 0,75,76
 121 29 121 29 121 29 c 129,-1,77
 121 29 121 29 124 38 c 0,78,79
 130 53 130 53 125 59 c 0,80,81
 120 64 120 64 107 52 c 0,82,83
 103 48 103 48 102 48 c 0,84,85
 99 50 99 50 104.5 55.5 c 128,-1,86
 110 61 110 61 114 69 c 2,87,-1
 115 72 l 1,88,-1
 111 81 l 2,89,90
 107 90 107 90 107 91 c 0,91,92
 106 94 106 94 104 92 c 0,93,94
 103 91 103 91 99.5 82 c 128,-1,95
 96 73 96 73 95 71 c 0,96,97
 87 57 87 57 64 55 c 0,98,99
 60 55 60 55 60 56 c 0,100,101
 59 58 59 58 63 59 c 0,102,103
 65 60 65 60 67 63 c 0,104,105
 70 69 70 69 66 85 c 0,106,107
 61 105 61 105 48 126 c 0,108,109
 41 137 41 137 31 149.5 c 128,-1,110
 21 162 21 162 16 164 c 0,111,112
 10 167 10 167 5 164 c 0,113,114
 3 163 3 163 1.5 163.5 c 128,-1,115
 0 164 0 164 0 165 c 0,116,117
 0 168 0 168 15 176 c 0,118,119
 26 181 26 181 35 181 c 0,120,121
 45 181 45 181 53 176 c 0,122,123
 60 172 60 172 60 171.5 c 128,-1,124
 60 171 60 171 66 166 c 0,125,126
 72 162 72 162 79 156 c 0,127,128
 88 149 88 149 92 151 c 0,129,130
 94 152 94 152 95 154 c 0,131,132
 101 163 101 163 100 166 c 256,133,134
 99 169 99 169 88 173 c 0,135,136
 84 175 84 175 81 177 c 0,137,138
 74 180 74 180 81 180 c 0,139,140
 83 180 83 180 87 179 c 0,141,142
 98 177 98 177 101 179 c 0,143,144
 103 180 103 180 103 182.5 c 128,-1,145
 103 185 103 185 98.5 188 c 128,-1,146
 94 191 94 191 90 193 c 0,147,148
 77 201 77 201 78 205 c 0,149,150
 79 208 79 208 84 208 c 0,151,152
 86 208 86 208 93.5 205 c 128,-1,153
 101 202 101 202 104 202 c 2,154,-1
 108 201 l 1,155,-1
 110 206 l 2,156,157
 111 211 111 211 111 212.5 c 128,-1,158
 111 214 111 214 106.5 217 c 128,-1,159
 102 220 102 220 98 221.5 c 128,-1,160
 94 223 94 223 94 223 c 2,161,162
 94 225 94 225 106 224 c 2,163,-1
 113 223 l 1,164,-1
 109 227 l 2,165,166
 101 238 101 238 89 247 c 0,167,168
 84 250 84 250 84.5 252 c 128,-1,169
 85 254 85 254 87.5 254 c 128,-1,170
 90 254 90 254 98 250 c 0,171,172
 111 243 111 243 118 243 c 0,173,174
 128 243 128 243 128 246 c 0,175,176
 128 250 128 250 120 256 c 0,177,178
 114 261 114 261 118 261 c 0,179,180
 120 261 120 261 122 260 c 128,-1,181
 124 259 124 259 127 257.5 c 128,-1,182
 130 256 130 256 132.5 255 c 128,-1,183
 135 254 135 254 135 254.5 c 128,-1,184
 135 255 135 255 124 267 c 128,-1,185
 113 279 113 279 113 281 c 0,186,187
 115 288 115 288 122 285 c 0,188,189
 124 283 124 283 129 280 c 0,190,191
 147 266 147 266 151 267 c 0,192,193
 154 269 154 269 154 274 c 0,194,195
 154 283 154 283 140 299 c 0,196,197
 135 305 135 305 135 306 c 0,198,199
 135 309 135 309 137 309 c 0,200,201
 138 309 138 309 146 302 c 0,202,203
 158 290 158 290 166 288 c 0,204,205
 169 287 169 287 171 288 c 0,206,207
 175 290 175 290 173 296 c 0,208,209
 171 300 171 300 171 300.5 c 128,-1,210
 171 301 171 301 168.5 305.5 c 128,-1,211
 166 310 166 310 167 311 c 0,212,213
 168 313 168 313 174 306 c 0,214,215
 178 301 178 301 181 299 c 2,216,-1
 184 297 l 1,217,-1
 185 298 l 2,218,219
 187 301 187 301 185 307 c 0,220,221
 183 312 183 312 183 313.5 c 128,-1,222
 183 315 183 315 180 323.5 c 128,-1,223
 177 332 177 332 177 334.5 c 128,-1,224
 177 337 177 337 180 337.5 c 128,-1,225
 183 338 183 338 183.5 337.5 c 128,-1,226
 184 337 184 337 189 327 c 0,227,228
 196 314 196 314 199 311 c 0,229,230
 201 309 201 309 203 310 c 0,231,232
 208 314 208 314 208 319 c 0,233,234
 208 326 208 326 202 344 c 0,235,236
 198 355 198 355 199 355.5 c 128,-1,237
 200 356 200 356 201 356 c 0,238,239
 203 356 203 356 210 344 c 0,240,241
 222 323 222 323 232 323 c 0,242,243
 234 323 234 323 234.5 325.5 c 128,-1,244
 235 328 235 328 234.5 333.5 c 128,-1,245
 234 339 234 339 234 340.5 c 128,-1,246
 234 342 234 342 235 341.5 c 128,-1,247
 236 341 236 341 236.5 341 c 128,-1,248
 237 341 237 341 238.5 336 c 128,-1,249
 240 331 240 331 242.5 327.5 c 128,-1,250
 245 324 245 324 247.5 324 c 128,-1,251
 250 324 250 324 250.5 326.5 c 128,-1,252
 251 329 251 329 249 338 c 0,253,254
 247 355 247 355 250 356 c 0,255,256
 251 356 251 356 253 355 c 0,257,258
 255 353 255 353 256 349.5 c 128,-1,259
 257 346 257 346 261 336 c 0,260,261
 264 329 264 329 265 327.5 c 128,-1,262
 266 326 266 326 269 327 c 2,263,-1
 271 327 l 1,264,-1
 271 331 l 2,265,266
 271 341 271 341 269 346 c 0,267,268
 268 347 268 347 270 347 c 128,-1,269
 272 347 272 347 274 342 c 0,270,271
 278 331 278 331 280 331 c 0,272,273
 281 331 281 331 284 335 c 128,-1,274
 287 339 287 339 289 352 c 0,275,276
 290 360 290 360 290.5 364 c 128,-1,277
 291 368 291 368 291.5 370.5 c 128,-1,278
 292 373 292 373 292.5 373.5 c 128,-1,279
 293 374 293 374 294 373 c 0,280,281
 297 373 297 373 298 355 c 0,282,283
 299 345 299 345 299 342 c 0,284,285
 302 330 302 330 306 330 c 0,286,287
 308 330 308 330 312 342 c 0,288,289
 314 348 314 348 314.5 348 c 128,-1,290
 315 348 315 348 316.5 347.5 c 128,-1,291
 318 347 318 347 317 345 c 0,292,293
 317 343 317 343 317 335.5 c 128,-1,294
 317 328 317 328 317.5 327.5 c 128,-1,295
 318 327 318 327 320 326.5 c 128,-1,296
 322 326 322 326 323.5 329 c 128,-1,297
 325 332 325 332 326 337.5 c 128,-1,298
 327 343 327 343 328.5 346 c 128,-1,299
 330 349 330 349 331.5 348.5 c 128,-1,300
 333 348 333 348 334.5 346.5 c 128,-1,301
 336 345 336 345 336 340 c 0,302,303
 338 321 338 321 339 320 c 2,304,305
 339 320 339 320 342 318 c 0,306,307
 345 317 345 317 347 319 c 128,-1,308
 349 321 349 321 350 327 c 0,309,310
 352 334 352 334 354 333 c 0,311,312
 355 332 355 332 354.5 328 c 128,-1,313
 354 324 354 324 355 318 c 128,-1,314
 356 312 356 312 358 312 c 0,315,316
 360 311 360 311 367 317 c 0,317,318
 377 326 377 326 382 340 c 0,319,320
 382 341 382 341 383.5 341.5 c 128,-1,321
 385 342 385 342 386 341 c 128,-1,322
 387 340 387 340 384 328.5 c 128,-1,323
 381 317 381 317 380.5 310 c 128,-1,324
 380 303 380 303 381.5 301.5 c 128,-1,325
 383 300 383 300 385 301.5 c 128,-1,326
 387 303 387 303 392 307.5 c 128,-1,327
 397 312 397 312 398 312 c 0,328,329
 400 312 400 312 400 309 c 0,330,331
 400 308 400 308 396 304 c 0,332,333
 388 296 388 296 391 292 c 0,334,335
 393 290 393 290 394.5 292.5 c 128,-1,336
 396 295 396 295 399 299 c 128,-1,337
 402 303 402 303 403 303 c 0,338,339
 406 303 406 303 405 298 c 0,340,341
 405 296 405 296 404 294.5 c 128,-1,342
 403 293 403 293 401.5 288 c 128,-1,343
 400 283 400 283 401 281 c 0,344,345
 403 277 403 277 412 282 c 0,346,347
 419 285 419 285 419 284 c 0,348,349
 422 283 422 283 417 279 c 0,350,351
 408 272 408 272 412 269 c 0,352,353
 414 268 414 268 426 272 c 0,354,355
 437 276 437 276 446 282 c 2,356,-1
 451 286 l 1,357,-1
 453 284 l 2,358,359
 454 282 454 282 445 271 c 0,360,361
 432 257 432 257 432 254 c 0,362,363
 432 253 432 253 431 251 c 0,364,365
 428 246 428 246 430 244.5 c 128,-1,366
 432 243 432 243 442 245 c 0,367,368
 451 247 451 247 451 246 c 256,369,370
 451 245 451 245 443 240.5 c 128,-1,371
 435 236 435 236 435 234 c 0,372,373
 435 229 435 229 437 224 c 0,374,375
 438 223 438 223 442 220 c 0,376,377
 447 217 447 217 456 203 c 0,378,379
 459 199 459 199 460 196 c 128,-1,380
 461 193 461 193 459.5 191.5 c 128,-1,381
 458 190 458 190 456.5 190 c 128,-1,382
 455 190 455 190 455.5 187 c 128,-1,383
 456 184 456 184 456 181 c 128,-1,384
 456 178 456 178 459 176 c 0,385,386
 465 169 465 169 470 159 c 0,387,388
 472 153 472 153 474 150 c 0,389,390
 478 142 478 142 480 130 c 0,391,392
 481 125 481 125 483 125 c 0,393,394
 488 125 488 125 490 120 c 0,395,396
 495 108 495 108 499 105 c 0,397,398
 506 97 506 97 510 101 c 0,399,400
 512 104 512 104 513 100 c 0,401,402
 514 97 514 97 512 93 c 0,403,404
 507 84 507 84 499 82 c 0,405,406
 496 81 496 81 488.5 81 c 128,-1,407
 481 81 481 81 477.5 82 c 128,-1,408
 474 83 474 83 472 84 c 2,409,-1
 470 86 l 1,410,-1
 445 60 l 1,411,-1
 448 56 l 2,412,413
 451 51 451 51 454 48 c 0,414,415
 459 42 459 42 455 42 c 0,416,417
 454 42 454 42 446 48 c 0,418,419
 441 52 441 52 438 53 c 0,420,421
 435 53 435 53 435 52 c 0,422,423
 433 48 433 48 439 40 c 0,424,425
 442 37 442 37 440 35 c 256,426,427
 438 33 438 33 431 39 c 0,428,429
 427 41 427 41 425 38 c 0,430,431
 422 33 422 33 424 28.5 c 128,-1,432
 426 24 426 24 436 14 c 0,433,434
 446 3 446 3 441 2 c 0,435,436
 439 2 439 2 437 4 c 0,437,438
 433 8 433 8 418 13 c 0,439,440
 410 15 410 15 407 14 c 256,441,442
 404 13 404 13 400 9 c 2,443,-1
 399 7 l 1,444,-1
 402 1 l 2,445,446
 405 -5 405 -5 409 -11 c 0,447,448
 412 -16 412 -16 412 -17 c 0,449,450
 412 -19 412 -19 409.5 -20 c 128,-1,451
 407 -21 407 -21 405 -21 c 0,452,453
 404 -20 404 -20 397.5 -12.5 c 128,-1,454
 391 -5 391 -5 389.5 -3 c 128,-1,455
 388 -1 388 -1 386 -2 c 128,-1,456
 384 -3 384 -3 378.5 -7 c 128,-1,457
 373 -11 373 -11 371 -12 c 0,458,459
 370 -12 370 -12 369 -13 c 0,460,461
 369 -14 369 -14 370 -22 c 0,462,463
 372 -34 372 -34 376 -42 c 256,464,465
 380 -50 380 -50 378 -50 c 0,466,467
 377 -50 377 -50 367 -40 c 0,468,469
 354 -26 354 -26 350 -24 c 0,470,471
 348 -23 348 -23 344.5 -23 c 128,-1,472
 341 -23 341 -23 340.5 -23.5 c 128,-1,473
 340 -24 340 -24 343 -42 c 0,474,475
 344 -49 344 -49 341 -50 c 0,476,477
 339 -52 339 -52 337 -51 c 0,478,479
 334 -49 334 -49 330 -38 c 0,480,481
 327 -29 327 -29 326.5 -28 c 128,-1,482
 326 -27 326 -27 322 -27 c 2,483,-1
 317 -28 l 1,484,-1
 315 -35 l 2,485,486
 311 -48 311 -48 311 -60 c 0,487,488
 310 -67 310 -67 309 -68 c 0,489,490
 307 -70 307 -70 307 -68 c 0,0,1
307 -47 m 0,491,492
 311 -33 311 -33 309 -31 c 256,493,494
 307 -29 307 -29 302 -31 c 0,495,496
 299 -32 299 -32 300 -33.5 c 128,-1,497
 301 -35 301 -35 301.5 -36 c 128,-1,498
 302 -37 302 -37 304 -43.5 c 128,-1,499
 306 -50 306 -50 306 -50 c 129,-1,500
 306 -50 306 -50 307 -47 c 0,491,492
249 -38 m 0,501,502
 251 -30 251 -30 251 -29 c 256,503,504
 251 -28 251 -28 249.5 -27 c 128,-1,505
 248 -26 248 -26 246 -26 c 256,506,507
 244 -26 244 -26 244.5 -30.5 c 128,-1,508
 245 -35 245 -35 245.5 -41 c 128,-1,509
 246 -47 246 -47 246 -47 c 129,-1,510
 246 -47 246 -47 249 -38 c 0,501,502
337 -38 m 0,511,512
 332 -8 332 -8 333 8 c 0,513,514
 335 15 335 15 336 16 c 1,515,516
 337 15 337 15 337 3 c 0,517,518
 338 -15 338 -15 339.5 -16.5 c 128,-1,519
 341 -18 341 -18 364 -8 c 0,520,521
 373 -3 373 -3 375 -1.5 c 128,-1,522
 377 0 377 0 377 2 c 0,523,524
 375 15 375 15 364 20 c 0,525,526
 359 22 359 22 359 23.5 c 128,-1,527
 359 25 359 25 362.5 24.5 c 128,-1,528
 366 24 366 24 372 19 c 0,529,530
 392 5 392 5 401 -10 c 0,531,532
 403 -12 403 -12 403.5 -12 c 128,-1,533
 404 -12 404 -12 402 -10 c 0,534,535
 388 13 388 13 383 35 c 0,536,537
 379 53 379 53 385 39 c 0,538,539
 387 34 387 34 387 33 c 0,540,541
 391 25 391 25 395 14 c 0,542,543
 395 13 395 13 398 15 c 0,544,545
 412 27 412 27 415 35 c 0,546,547
 416 37 416 37 417 37 c 0,548,549
 421 37 421 37 417 45 c 0,550,551
 417 47 417 47 414 48 c 0,552,553
 409 50 409 50 410 52 c 256,554,555
 411 54 411 54 423 48 c 0,556,557
 430 45 430 45 430.5 45 c 128,-1,558
 431 45 431 45 429 48 c 0,559,560
 425 57 425 57 424 64 c 0,561,562
 423 67 423 67 424 67 c 0,563,564
 426 67 426 67 428 61 c 0,565,566
 429 57 429 57 429.5 56 c 128,-1,567
 430 55 430 55 436 61 c 128,-1,568
 442 67 442 67 449.5 74 c 128,-1,569
 457 81 457 81 459 84 c 0,570,571
 467 93 467 93 470 107 c 0,572,573
 472 114 472 114 472 123 c 0,574,575
 472 138 472 138 462 160 c 0,576,577
 457 171 457 171 453 169 c 0,578,579
 452 168 452 168 449.5 164.5 c 128,-1,580
 447 161 447 161 447 160 c 256,581,582
 447 159 447 159 451 158 c 0,583,584
 458 155 458 155 461 149 c 0,585,586
 462 146 462 146 462 141 c 0,587,588
 462 133 462 133 458 125 c 0,589,590
 455 119 455 119 457.5 110 c 128,-1,591
 460 101 460 101 459 94 c 0,592,593
 457 86 457 86 452 81 c 0,594,595
 438 67 438 67 424 74 c 0,596,597
 416 78 416 78 412 67 c 0,598,599
 410 62 410 62 409 61 c 128,-1,600
 408 60 408 60 407 61 c 0,601,602
 406 64 406 64 408.5 71 c 128,-1,603
 411 78 411 78 413 82 c 2,604,-1
 415 84 l 1,605,-1
 413 91 l 2,606,607
 410 102 410 102 408 108 c 0,608,609
 407 111 407 111 406.5 111.5 c 128,-1,610
 406 112 406 112 404 112 c 0,611,612
 402 111 402 111 398 106 c 0,613,614
 387 91 387 91 383 89 c 0,615,616
 380 87 380 87 379 88 c 0,617,618
 379 89 379 89 385 96 c 0,619,620
 403 118 403 118 406 139 c 0,621,622
 408 147 408 147 404 156 c 0,623,624
 399 171 399 171 370 177 c 0,625,626
 364 178 364 178 364 179 c 0,627,628
 364 181 364 181 370 181 c 0,629,630
 372 181 372 181 372.5 181 c 128,-1,631
 373 181 373 181 373 182 c 0,632,633
 373 184 373 184 372 189 c 0,634,635
 371 193 371 193 370.5 194 c 128,-1,636
 370 195 370 195 368 193 c 2,637,-1
 366 193 l 1,638,-1
 366 196 l 2,639,640
 366 216 366 216 399 238 c 0,641,642
 404 241 404 241 405 242 c 1,643,-1
 406 240 l 1,644,-1
 404 238 l 2,645,646
 402 235 402 235 402 234 c 128,-1,647
 402 233 402 233 408 225 c 0,648,649
 418 212 418 212 425 201 c 0,650,651
 427 197 427 197 426.5 196 c 128,-1,652
 426 195 426 195 423.5 196 c 128,-1,653
 421 197 421 197 421 197 c 129,-1,654
 421 197 421 197 421.5 193 c 128,-1,655
 422 189 422 189 423 182 c 0,656,657
 423 171 423 171 419 165 c 0,658,659
 417 163 417 163 417 162 c 128,-1,660
 417 161 417 161 415 158 c 0,661,662
 411 153 411 153 412 148 c 0,663,664
 413 142 413 142 411 134 c 2,665,-1
 411 132 l 1,666,-1
 413 133 l 2,667,668
 416 136 416 136 424 147 c 0,669,670
 431 158 431 158 435 158 c 0,671,672
 436 158 436 158 436 159 c 0,673,674
 432 167 432 167 432 189 c 0,675,676
 432 213 432 213 429 225 c 0,677,678
 425 238 425 238 420 249 c 0,679,680
 419 251 419 251 419 252 c 1,681,-1
 422 251 l 2,682,683
 424 249 424 249 424 252 c 0,684,685
 424 256 424 256 433 265 c 2,686,-1
 438 271 l 1,687,-1
 432 267 l 2,688,689
 421 262 421 262 415 262 c 0,690,691
 411 262 411 262 408.5 264.5 c 128,-1,692
 406 267 406 267 402 272 c 0,693,694
 401 274 401 274 399.5 275.5 c 128,-1,695
 398 277 398 277 398 276 c 0,696,697
 396 275 396 275 392 256 c 0,698,699
 390 246 390 246 389 245.5 c 128,-1,700
 388 245 388 245 388 253 c 0,701,702
 388 269 388 269 395 285 c 1,703,-1
 391 281 l 2,704,705
 386 276 386 276 381 273 c 0,706,707
 366 263 366 263 366 268 c 0,708,709
 366 269 366 269 368 270 c 0,710,711
 379 276 379 276 385 282 c 2,712,-1
 390 287 l 1,713,-1
 388 288 l 2,714,715
 387 289 387 289 379 294 c 0,716,717
 373 297 373 297 371 299 c 128,-1,718
 369 301 369 301 369 302 c 0,719,720
 370 304 370 304 374 302 c 2,721,-1
 375 301 l 1,722,-1
 375 306 l 2,723,724
 375 311 375 311 377 316 c 2,725,-1
 377 320 l 1,726,727
 377 320 377 320 374 316 c 0,728,729
 365 305 365 305 361 305 c 256,730,731
 357 305 357 305 345 310 c 2,732,-1
 337 313 l 1,733,-1
 337 308 l 2,734,735
 337 303 337 303 337 301.5 c 128,-1,736
 337 300 337 300 338 292 c 2,737,-1
 338 284 l 1,738,-1
 336 284 l 2,739,740
 333 283 333 283 332.5 285 c 128,-1,741
 332 287 332 287 331 296 c 0,742,743
 331 307 331 307 331 320 c 2,744,-1
 330 332 l 1,745,-1
 328 324 l 2,746,747
 325 310 325 310 320 303 c 0,748,749
 313 291 313 291 310 294 c 0,750,751
 309 294 309 294 311 296 c 0,752,753
 317 302 317 302 321 319 c 0,754,755
 322 320 322 320 320 320.5 c 128,-1,756
 318 321 318 321 311 323 c 0,757,758
 301 325 301 325 298 329 c 0,759,760
 295 334 295 334 294 347 c 2,761,-1
 294 353 l 1,762,-1
 293 347 l 2,763,764
 291 329 291 329 284 325 c 0,765,766
 277 322 277 322 270 322 c 0,767,768
 268 322 268 322 267.5 322 c 128,-1,769
 267 322 267 322 267 320 c 0,770,771
 267 317 267 317 272 303 c 0,772,773
 275 295 275 295 274.5 294 c 128,-1,774
 274 293 274 293 272 295 c 128,-1,775
 270 297 270 297 267 302 c 0,776,777
 262 313 262 313 255 337 c 2,778,-1
 254 340 l 1,779,-1
 255 333 l 2,780,781
 256 315 256 315 254 307 c 0,782,783
 251 297 251 297 247 291 c 1,784,-1
 246 293 l 2,785,786
 247 297 247 297 248 303 c 128,-1,787
 249 309 249 309 250 314 c 2,788,-1
 249 319 l 1,789,790
 248 318 248 318 242 318 c 0,791,792
 231 316 231 316 223 320 c 0,793,794
 216 323 216 323 212 333 c 0,795,796
 209 337 209 337 209 337 c 129,-1,797
 209 337 209 337 211 330 c 0,798,799
 218 310 218 310 205 304 c 0,800,801
 203 303 203 303 203 303 c 2,802,803
 203 299 203 299 215 286 c 0,804,805
 219 281 219 281 216 281 c 0,806,807
 206 287 206 287 191 314 c 0,808,809
 185 326 185 326 184 326 c 1,810,-1
 185 322 l 2,811,812
 196 293 196 293 197 280 c 0,813,814
 197 273 197 273 196 272 c 0,815,816
 194 270 194 270 194 274 c 0,817,818
 193 275 193 275 193 278 c 0,819,820
 192 293 192 293 189 296 c 1,821,822
 189 296 189 296 184 291 c 0,823,824
 175 283 175 283 170 282 c 128,-1,825
 165 281 165 281 157 286 c 2,826,-1
 155 288 l 1,827,-1
 157 283 l 2,828,829
 163 272 163 272 156 266 c 0,830,831
 155 264 155 264 155 263.5 c 128,-1,832
 155 263 155 263 161.5 260 c 128,-1,833
 168 257 168 257 171 256 c 0,834,835
 176 255 176 255 173 253 c 256,836,837
 170 251 170 251 156 257 c 0,838,839
 151 260 151 260 143 265 c 0,840,841
 121 280 121 280 120 279 c 1,842,843
 120 279 120 279 121.5 277.5 c 128,-1,844
 123 276 123 276 126 273 c 128,-1,845
 129 270 129 270 132 266 c 0,846,847
 149 249 149 249 156 239 c 0,848,849
 159 234 159 234 157 232 c 0,850,851
 156 230 156 230 152 234 c 0,852,853
 147 240 147 240 138 240 c 0,854,855
 133 240 133 240 130 239 c 0,856,857
 122 235 122 235 108 241 c 0,858,859
 103 243 103 243 102.5 242.5 c 128,-1,860
 102 242 102 242 108.5 235.5 c 128,-1,861
 115 229 115 229 117 225 c 2,862,-1
 119 221 l 1,863,-1
 117 213 l 2,864,865
 115 206 115 206 114 202.5 c 128,-1,866
 113 199 113 199 114 199 c 0,867,868
 116 197 116 197 129 197 c 0,869,870
 136 197 136 197 136 195.5 c 128,-1,871
 136 194 136 194 128 193 c 0,872,873
 115 192 115 192 94 200 c 0,874,875
 88 202 88 202 88 202 c 129,-1,876
 88 202 88 202 89 201 c 128,-1,877
 90 200 90 200 92.5 198.5 c 128,-1,878
 95 197 95 197 97 195 c 0,879,880
 113 185 113 185 120 177 c 256,881,882
 127 169 127 169 127 166 c 0,883,884
 127 165 127 165 126 164.5 c 128,-1,885
 125 164 125 164 124.5 165 c 128,-1,886
 124 166 124 166 123 166 c 128,-1,887
 122 166 122 166 119 169 c 0,888,889
 115 174 115 174 111.5 174 c 128,-1,890
 108 174 108 174 106 167 c 0,891,892
 106 165 106 165 105.5 152 c 128,-1,893
 105 139 105 139 104 138 c 1,894,-1
 101 145 l 1,895,-1
 101 146 l 2,896,897
 100 149 100 149 100 149 c 1,898,899
 94 145 94 145 88 145 c 0,900,901
 84 145 84 145 80 148 c 0,902,903
 78 150 78 150 68 158 c 0,904,905
 54 171 54 171 47 174 c 0,906,907
 43 175 43 175 35 175 c 128,-1,908
 27 175 27 175 24 173.5 c 128,-1,909
 21 172 21 172 21 171 c 128,-1,910
 21 170 21 170 24 166 c 2,911,-1
 28 163 l 1,912,-1
 32 164 l 2,913,914
 44 165 44 165 45 164 c 1,915,-1
 37 162 l 2,916,917
 30 160 30 160 30 160 c 2,918,919
 30 156 30 156 36 154 c 0,920,921
 38 153 38 153 47 153 c 2,922,-1
 58 151 l 1,923,924
 58 151 58 151 50.5 151 c 128,-1,925
 43 151 43 151 41 151 c 2,926,-1
 38 150 l 1,927,-1
 43 145 l 2,928,929
 47 139 47 139 49 136 c 2,930,-1
 51 133 l 1,931,-1
 57 133 l 2,932,933
 63 133 63 133 65 132 c 0,934,935
 66 132 66 132 65 131 c 0,936,937
 63 131 63 131 60 131 c 0,938,939
 53 131 53 131 53 130 c 0,940,941
 53 127 53 127 61 127 c 0,942,943
 67 127 67 127 67 126 c 0,944,945
 67 124 67 124 60 124 c 0,946,947
 57 124 57 124 57 124 c 129,-1,948
 57 124 57 124 61 115 c 0,949,950
 65 107 65 107 66.5 106.5 c 128,-1,951
 68 106 68 106 72 108 c 256,952,953
 76 110 76 110 77 109 c 0,954,955
 77 108 77 108 74 106 c 0,956,957
 73 106 73 106 72 105 c 0,958,959
 68 103 68 103 67.5 103 c 128,-1,960
 67 103 67 103 68.5 99.5 c 128,-1,961
 70 96 70 96 70.5 96 c 128,-1,962
 71 96 71 96 75 99 c 128,-1,963
 79 102 79 102 79 102 c 2,964,965
 82 102 82 102 76 97 c 0,966,967
 72 95 72 95 72 93 c 128,-1,968
 72 91 72 91 74 84 c 2,969,-1
 75 80 l 1,970,-1
 77 82 l 2,971,972
 78 83 78 83 82 86 c 1,973,-1
 83 85 l 1,974,975
 81 83 81 83 80.5 82 c 128,-1,976
 80 81 80 81 77.5 79.5 c 128,-1,977
 75 78 75 78 75.5 76.5 c 128,-1,978
 76 75 76 75 76 70.5 c 128,-1,979
 76 66 76 66 77 66 c 0,980,981
 81 66 81 66 89 75 c 0,982,983
 96 82 96 82 98 92 c 0,984,985
 99 98 99 98 102.5 98 c 128,-1,986
 106 98 106 98 105 105 c 0,987,988
 103 112 103 112 105 114 c 0,989,990
 106 115 106 115 107 114 c 128,-1,991
 108 113 108 113 108.5 109 c 128,-1,992
 109 105 109 105 109 105 c 2,993,994
 110 105 110 105 112.5 107.5 c 128,-1,995
 115 110 115 110 117 116 c 0,996,997
 122 126 122 126 122 121 c 0,998,999
 123 116 123 116 117 108 c 2,1000,-1
 114 103 l 1,1001,-1
 117 102 l 2,1002,1003
 120 101 120 101 123 99 c 128,-1,1004
 126 97 126 97 126 95 c 0,1005,1006
 126 92 126 92 119 96 c 0,1007,1008
 110 100 110 100 110 98 c 0,1009,1010
 110 94 110 94 117 82 c 0,1011,1012
 121 75 121 75 121.5 73.5 c 128,-1,1013
 122 72 122 72 125 77 c 0,1014,1015
 126 78 126 78 128 80 c 0,1016,1017
 133 88 133 88 137 96 c 0,1018,1019
 142 102 142 102 143 101 c 128,-1,1020
 144 100 144 100 144 98 c 0,1021,1022
 144 94 144 94 136 83 c 2,1023,-1
 132 77 l 1,1024,-1
 137 78 l 2,1025,1026
 141 80 141 80 145.5 82 c 128,-1,1027
 150 84 150 84 151 84 c 1,1028,-1
 151 82 l 1,1029,1030
 147 82 147 82 137 72 c 0,1031,1032
 127 63 127 63 129 61 c 0,1033,1034
 129 60 129 60 129.5 59.5 c 128,-1,1035
 130 59 130 59 135 52 c 0,1036,1037
 143 41 143 41 152 34 c 2,1038,-1
 155 32 l 1,1039,-1
 158 38 l 2,1040,1041
 162 48 162 48 164 56 c 0,1042,1043
 165 65 165 65 167 62 c 0,1044,1045
 171 56 171 56 156 13 c 1,1046,-1
 154 9 l 1,1047,1048
 158 14 158 14 169 26 c 128,-1,1049
 180 38 180 38 184 40 c 0,1050,1051
 189 43 189 43 189 40 c 0,1052,1053
 189 39 189 39 184 34 c 0,1054,1055
 176 26 176 26 174 19 c 0,1056,1057
 173 18 173 18 177 15.5 c 128,-1,1058
 181 13 181 13 185 10 c 0,1059,1060
 192 4 192 4 199 1 c 0,1061,1062
 202 0 202 0 203 -1 c 128,-1,1063
 204 -2 204 -2 206 1 c 0,1064,1065
 210 7 210 7 210 17 c 0,1066,1067
 209 25 209 25 209 28 c 0,1068,1069
 209 37 209 37 212 27 c 0,1070,1071
 214 22 214 22 214 16 c 0,1072,1073
 217 1 217 1 214 -21 c 1,1074,-1
 213 -24 l 1,1075,-1
 215 -21 l 2,1076,1077
 216 -19 216 -19 220 -10 c 0,1078,1079
 226 7 226 7 232 13 c 0,1080,1081
 234 16 234 16 235 18 c 256,1082,1083
 236 20 236 20 237 18 c 0,1084,1085
 237 17 237 17 231 4.5 c 128,-1,1086
 225 -8 225 -8 225 -8 c 2,1087,1088
 225 -11 225 -11 255 -18 c 2,1089,-1
 263 -20 l 1,1090,-1
 264 -18 l 2,1091,1092
 266 -7 266 -7 261 8 c 0,1093,1094
 259 14 259 14 259.5 15 c 128,-1,1095
 260 16 260 16 262 13 c 0,1096,1097
 263 12 263 12 264 10 c 0,1098,1099
 274 -12 274 -12 277 -31 c 0,1100,1101
 278 -35 278 -35 278 -35 c 1,1102,1103
 279 -9 279 -9 284 7 c 0,1104,1105
 285 8 285 8 286.5 8.5 c 128,-1,1106
 288 9 288 9 288.5 7.5 c 128,-1,1107
 289 6 289 6 286.5 -8.5 c 128,-1,1108
 284 -23 284 -23 285 -23 c 0,1109,1110
 286 -24 286 -24 295.5 -23.5 c 128,-1,1111
 305 -23 305 -23 312 -22 c 0,1112,1113
 321 -21 321 -21 321.5 -21 c 128,-1,1114
 322 -21 322 -21 322 -18 c 0,1115,1116
 322 -9 322 -9 314 1 c 0,1117,1118
 312 5 312 5 312 6 c 128,-1,1119
 312 7 312 7 310 9 c 0,1120,1121
 307 12 307 12 309 13 c 0,1122,1123
 310 14 310 14 313 10 c 0,1124,1125
 321 2 321 2 326 -10 c 0,1126,1127
 328 -15 328 -15 333 -30 c 0,1128,1129
 335 -36 335 -36 336.5 -40 c 128,-1,1130
 338 -44 338 -44 338 -43.5 c 128,-1,1131
 338 -43 338 -43 337 -38 c 0,511,512
298 -10 m 1,1132,1133
 298 -9 298 -9 297 -3 c 0,1134,1135
 290 23 290 23 283 31 c 1,1136,-1
 284 33 l 1,1137,1138
 290 30 290 30 296 11 c 0,1139,1140
 298 6 298 6 298.5 6 c 128,-1,1141
 299 6 299 6 300 13 c 0,1142,1143
 302 33 302 33 304 33 c 2,1144,-1
 306 33 l 1,1145,1146
 306 33 306 33 306 31.5 c 128,-1,1147
 306 30 306 30 305.5 28 c 128,-1,1148
 305 26 305 26 305 23 c 0,1149,1150
 301 6 301 6 303 -2 c 0,1151,1152
 304 -5 304 -5 303 -5.5 c 128,-1,1153
 302 -6 302 -6 302 -8 c 0,1154,1155
 301 -10 301 -10 298 -10 c 1,1132,1133
352 3 m 0,1156,1157
 350 6 350 6 347 11 c 0,1158,1159
 340 25 340 25 331 34 c 0,1160,1161
 326 39 326 39 325 40.5 c 128,-1,1162
 324 42 324 42 326 42.5 c 128,-1,1163
 328 43 328 43 329.5 41 c 128,-1,1164
 331 39 331 39 335 35 c 0,1165,1166
 346 23 346 23 347 20 c 2,1167,-1
 349 20 l 1,1168,1169
 348 24 348 24 345 38 c 0,1170,1171
 344 46 344 46 344 47.5 c 128,-1,1172
 344 49 344 49 344 50 c 2,1173,-1
 347 51 l 1,1174,1175
 347 43 347 43 352 17 c 0,1176,1177
 355 1 355 1 355 0 c 0,1178,1179
 355 -2 355 -2 352 3 c 0,1156,1157
247 2 m 0,1180,1181
 246 3 246 3 246 9 c 0,1182,1183
 243 28 243 28 239 35 c 0,1184,1185
 238 39 238 39 239 39 c 0,1186,1187
 243 38 243 38 247 23 c 2,1188,-1
 249 12 l 1,1189,-1
 252 19 l 2,1190,1191
 257 32 257 32 259 35 c 0,1192,1193
 260 36 260 36 261 34.5 c 128,-1,1194
 262 33 262 33 260 29 c 0,1195,1196
 257 22 257 22 252 8 c 0,1197,1198
 248 2 248 2 247 2 c 0,1180,1181
194 27 m 0,1199,1200
 194 28 194 28 195 31 c 0,1201,1202
 198 45 198 45 199 56 c 0,1203,1204
 199 64 199 64 200 64 c 128,-1,1205
 201 64 201 64 201.5 61 c 128,-1,1206
 202 58 202 58 202 53.5 c 128,-1,1207
 202 49 202 49 201 44 c 2,1208,-1
 201 43 l 1,1209,-1
 201 38 l 1,1210,-1
 202 39 l 2,1211,1212
 208 47 208 47 215 52 c 0,1213,1214
 218 53 218 53 219 52.5 c 128,-1,1215
 220 52 220 52 217 50 c 0,1216,1217
 211 45 211 45 205 37 c 0,1218,1219
 196 25 196 25 194 27 c 0,1199,1200
402 40 m 1,1220,1221
 398 43 398 43 393 48 c 0,1222,1223
 384 57 384 57 376 59 c 0,1224,1225
 372 60 372 60 372 61.5 c 128,-1,1226
 372 63 372 63 375 62 c 0,1227,1228
 377 62 377 62 385.5 58 c 128,-1,1229
 394 54 394 54 396 52 c 0,1230,1231
 398 49 398 49 397 53 c 0,1232,1233
 396 55 396 55 393 60 c 0,1234,1235
 388 70 388 70 389 72.5 c 128,-1,1236
 390 75 390 75 390.5 75 c 128,-1,1237
 391 75 391 75 393.5 68.5 c 128,-1,1238
 396 62 396 62 401 50.5 c 128,-1,1239
 406 39 406 39 406 37.5 c 128,-1,1240
 406 36 406 36 402 39 c 1,1241,-1
 402 40 l 1,1220,1221
263 42 m 0,1242,1243
 262 44 262 44 262 47 c 0,1244,1245
 261 55 261 55 257 60 c 0,1246,1247
 255 64 255 64 255 64.5 c 128,-1,1248
 255 65 255 65 258 65 c 2,1249,-1
 260 65 l 1,1250,-1
 265 49 l 1,1251,-1
 266 52 l 2,1252,1253
 267 55 267 55 268.5 57 c 128,-1,1254
 270 59 270 59 271 59 c 0,1255,1256
 273 57 273 57 270 53 c 0,1257,1258
 268 50 268 50 268 49.5 c 128,-1,1259
 268 49 268 49 267.5 47 c 128,-1,1260
 267 45 267 45 266 43 c 0,1261,1262
 265 40 265 40 263 42 c 0,1242,1243
306 47 m 0,1263,1264
 300 56 300 56 296 58 c 0,1265,1266
 294 58 294 58 294 59 c 0,1267,1268
 294 63 294 63 304 55 c 0,1269,1270
 308 51 308 51 308.5 51 c 128,-1,1271
 309 51 309 51 309 55 c 0,1272,1273
 309 63 309 63 312 63 c 0,1274,1275
 313 64 313 64 312.5 60.5 c 128,-1,1276
 312 57 312 57 312 50 c 256,1277,1278
 312 43 312 43 311 42.5 c 128,-1,1279
 310 42 310 42 306 47 c 0,1263,1264
361.5 51 m 128,-1,1281
 358 54 358 54 352 61 c 256,1282,1283
 346 68 346 68 342 70 c 128,-1,1284
 338 72 338 72 339 73.5 c 128,-1,1285
 340 75 340 75 340 75 c 2,1286,1287
 343 75 343 75 354 63 c 0,1288,1289
 359 58 359 58 359.5 58 c 128,-1,1290
 360 58 360 58 359 62 c 0,1291,1292
 356 72 356 72 356 79 c 0,1293,1294
 356 80 356 80 357.5 80 c 128,-1,1295
 359 80 359 80 359 79 c 0,1296,1297
 359 70 359 70 364 55 c 0,1298,1299
 365 51 365 51 365 49.5 c 128,-1,1280
 365 48 365 48 361.5 51 c 128,-1,1281
225 51 m 0,1300,1301
 224 54 224 54 224 59 c 128,-1,1302
 224 64 224 64 223 66.5 c 128,-1,1303
 222 69 222 69 217 69 c 0,1304,1305
 205 71 205 71 195 76 c 0,1306,1307
 189 79 189 79 189 80.5 c 128,-1,1308
 189 82 189 82 194 86.5 c 128,-1,1309
 199 91 199 91 201 92 c 0,1310,1311
 204 94 204 94 208 105 c 0,1312,1313
 213 118 213 118 222 122 c 0,1314,1315
 228 124 228 124 252 122 c 0,1316,1317
 260 121 260 121 263 123 c 0,1318,1319
 269 125 269 125 269 123 c 128,-1,1320
 269 121 269 121 262 117 c 0,1321,1322
 257 115 257 115 241 118 c 0,1323,1324
 231 120 231 120 227 118 c 0,1325,1326
 222 115 222 115 213 100 c 0,1327,1328
 206 90 206 90 201 85 c 2,1329,-1
 196 80 l 1,1330,-1
 197 79 l 2,1331,1332
 199 78 199 78 200 78 c 0,1333,1334
 203 78 203 78 207 86 c 1,1335,-1
 210 88 l 1,1336,1337
 210 87 210 87 208 83 c 0,1338,1339
 205 78 205 78 205 77 c 128,-1,1340
 205 76 205 76 207 76 c 128,-1,1341
 209 76 209 76 211 79 c 256,1342,1343
 213 82 213 82 215 84 c 128,-1,1344
 217 86 217 86 218 87.5 c 128,-1,1345
 219 89 219 89 219 89 c 1,1346,1347
 219 86 219 86 215 81 c 0,1348,1349
 214 80 214 80 213 78 c 128,-1,1350
 212 76 212 76 213 76 c 0,1351,1352
 215 76 215 76 220 84 c 0,1353,1354
 224 92 224 92 224 91.5 c 128,-1,1355
 224 91 224 91 221.5 85.5 c 128,-1,1356
 219 80 219 80 218 77.5 c 128,-1,1357
 217 75 217 75 219 75 c 0,1358,1359
 225 73 225 73 229 82 c 2,1360,-1
 231 85 l 1,1361,1362
 231 84 231 84 229 79 c 0,1363,1364
 229 76 229 76 230 76 c 0,1365,1366
 234 78 234 78 239 87 c 2,1367,-1
 241 91 l 1,1368,1369
 241 90 241 90 239 85 c 2,1370,-1
 238 80 l 1,1371,1372
 240 82 240 82 246 90 c 0,1373,1374
 251 98 251 98 256 102 c 0,1375,1376
 259 103 259 103 262.5 106 c 128,-1,1377
 266 109 266 109 269 110 c 2,1378,-1
 272 112 l 1,1379,-1
 274 110 l 2,1380,1381
 277 107 277 107 273 107 c 256,1382,1383
 269 107 269 107 261 101 c 0,1384,1385
 256 97 256 97 246 83 c 0,1386,1387
 241 77 241 77 238 74 c 0,1388,1389
 231 69 231 69 227 69 c 0,1390,1391
 225 69 225 69 225.5 66.5 c 128,-1,1392
 226 64 226 64 227 60 c 128,-1,1393
 228 56 228 56 228.5 56 c 128,-1,1394
 229 56 229 56 231 60 c 0,1395,1396
 235 65 235 65 238 65 c 1,1397,-1
 237 63 l 2,1398,1399
 236 63 236 63 232 56 c 0,1400,1401
 225 49 225 49 225 51 c 0,1300,1301
155 64 m 0,1402,1403
 155 65 155 65 159 68 c 0,1404,1405
 164 74 164 74 171.5 84.5 c 128,-1,1406
 179 95 179 95 179 98 c 0,1407,1408
 179 102 179 102 181 100 c 0,1409,1410
 185 96 185 96 175 83 c 2,1411,-1
 169 73 l 1,1412,1413
 170 73 170 73 172 73.5 c 128,-1,1414
 174 74 174 74 180 77 c 2,1415,-1
 187 79 l 1,1416,-1
 190 76 l 1,1417,-1
 188 76 l 2,1418,1419
 183 76 183 76 162 65 c 0,1420,1421
 155 62 155 62 155 64 c 0,1402,1403
281 69 m 1,1422,1423
 281 70 281 70 281 72 c 128,-1,1424
 281 74 281 74 279 76 c 0,1425,1426
 276 81 276 81 277 82 c 128,-1,1427
 278 83 278 83 280 80 c 0,1428,1429
 281 79 281 79 281 78 c 2,1430,-1
 283 75 l 1,1431,-1
 284 78 l 2,1432,1433
 287 83 287 83 288 82 c 256,1434,1435
 289 81 289 81 286 75.5 c 128,-1,1436
 283 70 283 70 283 69 c 1,1437,-1
 281 69 l 1,1422,1423
323.5 77.5 m 128,-1,1439
 322 79 322 79 322 79.5 c 128,-1,1440
 322 80 322 80 317.5 85 c 128,-1,1441
 313 90 313 90 313 91 c 0,1442,1443
 313 94 313 94 319 88 c 0,1444,1445
 322 85 322 85 322.5 85.5 c 128,-1,1446
 323 86 323 86 324 89 c 0,1447,1448
 325 95 325 95 327.5 95 c 128,-1,1449
 330 95 330 95 328 89 c 0,1450,1451
 326 85 326 85 326 80.5 c 128,-1,1452
 326 76 326 76 325.5 76 c 128,-1,1438
 325 76 325 76 323.5 77.5 c 128,-1,1439
261 83 m 0,1453,1454
 260 83 260 83 259.5 87 c 128,-1,1455
 259 91 259 91 260 91 c 128,-1,1456
 261 91 261 91 262 90 c 0,1457,1458
 263 87 263 87 264 90 c 0,1459,1460
 267 94 267 94 268 94 c 0,1461,1462
 271 94 271 94 267 89 c 0,1463,1464
 264 87 264 87 264 86 c 0,1465,1466
 262 80 262 80 261 83 c 0,1453,1454
354 95.5 m 128,-1,1468
 353 97 353 97 350 100 c 0,1469,1470
 344 104 344 104 347 105 c 0,1471,1472
 348 106 348 106 350 104 c 128,-1,1473
 352 102 352 102 352.5 102 c 128,-1,1474
 353 102 353 102 353 106 c 128,-1,1475
 353 110 353 110 354 111 c 1,1476,-1
 356 104 l 2,1477,1478
 357 96 357 96 356 95 c 128,-1,1467
 355 94 355 94 354 95.5 c 128,-1,1468
292 107 m 256,1479,1480
 289 111 289 111 289.5 111.5 c 128,-1,1481
 290 112 290 112 292.5 109.5 c 128,-1,1482
 295 107 295 107 295.5 107 c 128,-1,1483
 296 107 296 107 297 109 c 0,1484,1485
 299 115 299 115 299 110 c 0,1486,1487
 299 109 299 109 297.5 106 c 128,-1,1488
 296 103 296 103 295 103 c 2,1489,1490
 295 103 295 103 292 107 c 256,1479,1480
173 106 m 128,-1,1492
 173 107 173 107 176 110.5 c 128,-1,1493
 179 114 179 114 182 119 c 0,1494,1495
 187 127 187 127 188 124 c 0,1496,1497
 188 123 188 123 184 117 c 128,-1,1498
 180 111 180 111 180 110.5 c 128,-1,1499
 180 110 180 110 185 110 c 128,-1,1500
 190 110 190 110 192 109 c 0,1501,1502
 196 107 196 107 192 107 c 0,1503,1504
 190 107 190 107 186 106 c 0,1505,1506
 178 106 178 106 175.5 105.5 c 128,-1,1491
 173 105 173 105 173 106 c 128,-1,1492
131 108.5 m 128,-1,1508
 131 110 131 110 140 119 c 0,1509,1510
 156 135 156 135 158 141 c 0,1511,1512
 159 145 159 145 160 143 c 0,1513,1514
 162 141 162 141 158.5 134.5 c 128,-1,1515
 155 128 155 128 151 124 c 0,1516,1517
 141 117 141 117 141 113 c 1,1518,1519
 141 113 141 113 142 113.5 c 128,-1,1520
 143 114 143 114 145 114.5 c 128,-1,1521
 147 115 147 115 149 116 c 2,1522,-1
 158 119 l 1,1523,-1
 165 119 l 2,1524,1525
 172 119 172 119 173 118 c 0,1526,1527
 175 116 175 116 167 115 c 0,1528,1529
 153 114 153 114 140 109 c 0,1530,1531
 137 108 137 108 134 107.5 c 128,-1,1507
 131 107 131 107 131 108.5 c 128,-1,1508
374 113 m 0,1532,1533
 374 114 374 114 375 115.5 c 128,-1,1534
 376 117 376 117 377 117 c 0,1535,1536
 378 116 378 116 377 113.5 c 128,-1,1537
 376 111 376 111 374 113 c 0,1532,1533
328 115 m 0,1538,1539
 324 119 324 119 325 120 c 2,1540,1541
 325 120 325 120 328 118 c 0,1542,1543
 330 116 330 116 331 117 c 128,-1,1544
 332 118 332 118 332 122 c 256,1545,1546
 332 126 332 126 333 126 c 256,1547,1548
 334 126 334 126 333 118 c 0,1549,1550
 333 114 333 114 331.5 114 c 128,-1,1551
 330 114 330 114 328 115 c 0,1538,1539
104 118 m 1,1552,1553
 103 119 103 119 104 120.5 c 128,-1,1554
 105 122 105 122 105.5 122 c 128,-1,1555
 106 122 106 122 106 121 c 0,1556,1557
 105 119 105 119 104 118 c 1,1552,1553
214 125 m 256,1558,1559
 213 126 213 126 214 127.5 c 128,-1,1560
 215 129 215 129 217 129 c 0,1561,1562
 218 129 218 129 217 127 c 0,1563,1564
 215 124 215 124 214 125 c 256,1558,1559
307 134 m 0,1565,1566
 308 136 308 136 309 137 c 1,1567,-1
 309 135 l 1,1568,-1
 311 137 l 2,1569,1570
 313 137 313 137 313 136 c 0,1571,1572
 308 130 308 130 307 134 c 0,1565,1566
131.5 133 m 128,-1,1574
 131 134 131 134 127 136 c 0,1575,1576
 121 138 121 138 109 138 c 0,1577,1578
 106 137 106 137 106 138.5 c 128,-1,1579
 106 140 106 140 108 141 c 0,1580,1581
 116 144 116 144 124 150 c 0,1582,1583
 130 154 130 154 130 152 c 0,1584,1585
 130 148 130 148 122 144 c 0,1586,1587
 119 142 119 142 119 142 c 2,1588,1589
 119 140 119 140 126 140 c 128,-1,1590
 133 140 133 140 136 136 c 0,1591,1592
 137 134 137 134 137 134 c 129,-1,1593
 137 134 137 134 134.5 133 c 128,-1,1573
 132 132 132 132 131.5 133 c 128,-1,1574
368 134 m 2,1594,1595
 369 136 369 136 370 136 c 128,-1,1596
 371 136 371 136 373 137 c 2,1597,-1
 375 138 l 1,1598,-1
 373 140 l 2,1599,1600
 370 143 370 143 368 144 c 0,1601,1602
 365 145 365 145 366 146 c 256,1603,1604
 367 147 367 147 371 144 c 0,1605,1606
 374 143 374 143 376.5 141 c 128,-1,1607
 379 139 379 139 378 138 c 0,1608,1609
 377 135 377 135 369 134 c 2,1610,-1
 366 133 l 1,1611,-1
 368 134 l 2,1594,1595
197 137 m 0,1612,1613
 192 139 192 139 191.5 139.5 c 128,-1,1614
 191 140 191 140 195 143.5 c 128,-1,1615
 199 147 199 147 199.5 146 c 128,-1,1616
 200 145 200 145 197 143 c 2,1617,-1
 195 140 l 1,1618,-1
 196 140 l 2,1619,1620
 204 137 204 137 204 136 c 256,1621,1622
 204 135 204 135 197 137 c 0,1612,1613
253 137 m 1,1623,1624
 248 139 248 139 248 140 c 256,1625,1626
 248 141 248 141 251.5 144.5 c 128,-1,1627
 255 148 255 148 256 148 c 0,1628,1629
 258 147 258 147 253.5 144 c 128,-1,1630
 249 141 249 141 255 138 c 1,1631,-1
 253 137 l 1,1623,1624
278 136.5 m 128,-1,1633
 277 137 277 137 277.5 139.5 c 128,-1,1634
 278 142 278 142 279 142.5 c 128,-1,1635
 280 143 280 143 280.5 142.5 c 128,-1,1636
 281 142 281 142 280 140 c 0,1637,1638
 280 139 280 139 280 138 c 0,1639,1640
 282 136 282 136 280 136 c 0,1641,1632
 279 136 279 136 278 136.5 c 128,-1,1633
226 145 m 2,1642,1643
 222 146 222 146 224 150 c 0,1644,1645
 226 153 226 153 227.5 154 c 128,-1,1646
 229 155 229 155 229 154 c 128,-1,1647
 229 153 229 153 227 151 c 128,-1,1648
 225 149 225 149 225 148.5 c 128,-1,1649
 225 148 225 148 228 147 c 128,-1,1650
 231 146 231 146 231 145 c 0,1651,1652
 231 143 231 143 227 145 c 2,1653,-1
 226 145 l 2,1642,1643
349 154 m 2,1654,1655
 349 154 349 154 351 159 c 0,1656,1657
 352 159 352 159 352 155 c 128,-1,1658
 352 151 352 151 350 151 c 2,1659,1660
 350 151 350 151 349 154 c 2,1654,1655
319 156 m 1,1661,1662
 319 158 319 158 319.5 158 c 128,-1,1663
 320 158 320 158 322 159 c 0,1664,1665
 323 160 323 160 324 160 c 128,-1,1666
 325 160 325 160 325 159 c 2,1667,1668
 325 159 325 159 322.5 157 c 128,-1,1669
 320 155 320 155 319.5 155 c 128,-1,1670
 319 155 319 155 319 157 c 1,1671,-1
 319 156 l 1,1661,1662
177 160 m 0,1672,1673
 174 164 174 164 163 167 c 0,1674,1675
 158 168 158 168 157.5 169 c 128,-1,1676
 157 170 157 170 159.5 171 c 128,-1,1677
 162 172 162 172 166 173 c 128,-1,1678
 170 174 170 174 174 174 c 0,1679,1680
 179 175 179 175 181 176 c 0,1681,1682
 183 176 183 176 184 175 c 0,1683,1684
 182 171 182 171 173 170 c 2,1685,-1
 169 169 l 2,1686,1687
 169 168 169 168 171 167 c 0,1688,1689
 179 164 179 164 180 160 c 0,1690,1691
 181 158 181 158 180 158 c 128,-1,1692
 179 158 179 158 177 160 c 0,1672,1673
147 161 m 0,1693,1694
 144 163 144 163 134 165 c 0,1695,1696
 131 166 131 166 131 166.5 c 128,-1,1697
 131 167 131 167 133.5 169 c 128,-1,1698
 136 171 136 171 137 172 c 0,1699,1700
 139 173 139 173 144.5 176 c 128,-1,1701
 150 179 150 179 150 179 c 2,1702,1703
 152 178 152 178 149 175 c 0,1704,1705
 146 171 146 171 142 169 c 0,1706,1707
 139 168 139 168 139 167.5 c 128,-1,1708
 139 167 139 167 144 165 c 0,1709,1710
 148 164 148 164 149 163 c 128,-1,1711
 150 162 150 162 149 160 c 0,1712,1713
 149 159 149 159 147 161 c 0,1693,1694
272 162 m 0,1714,1715
 270 166 270 166 273 166 c 2,1716,-1
 274 163 l 1,1717,-1
 273 162 l 2,1718,1719
 272 161 272 161 272 162 c 0,1714,1715
297 163 m 0,1720,1721
 296 166 296 166 300 166 c 0,1722,1723
 302 166 302 166 300 163 c 0,1724,1725
 298 161 298 161 297 163 c 0,1720,1721
247 166 m 0,1726,1727
 246 167 246 167 247.5 169 c 128,-1,1728
 249 171 249 171 250 170 c 256,1729,1730
 251 169 251 169 250 168 c 128,-1,1731
 249 167 249 167 249 166 c 0,1732,1733
 249 164 249 164 247 166 c 0,1726,1727
204 175 m 1,1734,1735
 204 176 204 176 200 180.5 c 128,-1,1736
 196 185 196 185 196 185.5 c 128,-1,1737
 196 186 196 186 200.5 186.5 c 128,-1,1738
 205 187 205 187 206 187 c 128,-1,1739
 207 187 207 187 207.5 186 c 128,-1,1740
 208 185 208 185 204.5 184.5 c 128,-1,1741
 201 184 201 184 200.5 183.5 c 128,-1,1742
 200 183 200 183 202 181 c 0,1743,1744
 208 175 208 175 204 175 c 1,1745,-1
 204 175 l 1,1734,1735
234 180 m 1,1746,1747
 228 186 228 186 229 189 c 0,1748,1749
 229 190 229 190 234 189.5 c 128,-1,1750
 239 189 239 189 239 188 c 128,-1,1751
 239 187 239 187 236 187 c 0,1752,1753
 233 188 233 188 232.5 187 c 128,-1,1754
 232 186 232 186 234 184 c 0,1755,1756
 235 180 235 180 233 180 c 1,1757,-1
 234 180 l 1,1746,1747
166 183 m 1,1758,1759
 163 190 163 190 157 197 c 0,1760,1761
 150 205 150 205 142 210 c 0,1762,1763
 137 214 137 214 137 218 c 1,1764,1765
 146 217 146 217 155 211 c 0,1766,1767
 156 211 156 211 163.5 209 c 128,-1,1768
 171 207 171 207 175 207 c 128,-1,1769
 179 207 179 207 179.5 206 c 128,-1,1770
 180 205 180 205 177 204 c 0,1771,1772
 170 203 170 203 159 205 c 2,1773,-1
 153 207 l 1,1774,-1
 158 202 l 2,1775,1776
 167 192 167 192 168 183 c 1,1777,-1
 166 183 l 1,1758,1759
307 185 m 2,1778,1779
 307 188 307 188 308 189 c 128,-1,1780
 309 190 309 190 311 189 c 128,-1,1781
 313 188 313 188 314 187 c 1,1782,1783
 313 187 313 187 312 187 c 0,1784,1785
 310 190 310 190 309 185 c 2,1786,-1
 307 182 l 1,1787,-1
 307 185 l 2,1778,1779
268 183 m 0,1788,1789
 267 184 267 184 267 188 c 2,1790,-1
 267 191 l 1,1791,-1
 269 191 l 2,1792,1793
 278 189 278 189 278 187 c 1,1794,-1
 273 187 l 2,1795,1796
 270 190 270 190 270 186 c 0,1797,1798
 269 183 269 183 268 183 c 0,1788,1789
339 193 m 2,1799,1800
 339 196 339 196 339 196 c 129,-1,1801
 339 196 339 196 336 194 c 0,1802,1803
 330 190 330 190 330 192 c 128,-1,1804
 330 194 330 194 338 198 c 0,1805,1806
 341 200 341 200 341.5 199.5 c 128,-1,1807
 342 199 342 199 341 194 c 0,1808,1809
 340 190 340 190 339 189 c 1,1810,-1
 339 193 l 2,1799,1800
195 194 m 128,-1,1812
 194 195 194 195 193.5 197 c 128,-1,1813
 193 199 193 199 192.5 201 c 128,-1,1814
 192 203 192 203 187 212 c 128,-1,1815
 182 221 182 221 180 222 c 256,1816,1817
 178 223 178 223 179 224.5 c 128,-1,1818
 180 226 180 226 189 220 c 0,1819,1820
 199 211 199 211 202 211 c 0,1821,1822
 207 211 207 211 207 208 c 128,-1,1823
 207 205 207 205 197 210 c 0,1824,1825
 192 213 192 213 192 212.5 c 128,-1,1826
 192 212 192 212 194 208 c 0,1827,1828
 195 205 195 205 196 201.5 c 128,-1,1829
 197 198 197 198 197.5 196 c 128,-1,1830
 198 194 198 194 197 193 c 0,1831,1811
 196 193 196 193 195 194 c 128,-1,1812
274 205 m 0,1832,1833
 274 206 274 206 276 210 c 128,-1,1834
 278 214 278 214 279 215 c 256,1835,1836
 280 216 280 216 282 213 c 0,1837,1838
 282 212 282 212 283 210 c 2,1839,-1
 282 208 l 1,1840,1841
 280 211 280 211 279.5 211 c 128,-1,1842
 279 211 279 211 277 208 c 0,1843,1844
 274 202 274 202 274 205 c 0,1832,1833
248 208 m 1,1845,1846
 248 209 248 209 250 217 c 128,-1,1847
 252 225 252 225 252 227 c 2,1848,-1
 253 228 l 1,1849,-1
 254 227 l 2,1850,1851
 257 223 257 223 259 217 c 0,1852,1853
 259 215 259 215 258 216 c 128,-1,1854
 257 217 257 217 256 220 c 0,1855,1856
 255 221 255 221 254.5 221.5 c 128,-1,1857
 254 222 254 222 254 222 c 2,1858,1859
 253 222 253 222 251 215 c 2,1860,-1
 249 208 l 1,1861,-1
 248 208 l 1,1845,1846
317 211 m 2,1862,1863
 317 211 317 211 316.5 215 c 128,-1,1864
 316 219 316 219 315 220 c 2,1865,-1
 315 222 l 1,1866,-1
 313 220 l 2,1867,1868
 311 219 311 219 308 216 c 1,1869,-1
 306 217 l 1,1870,1871
 316 227 316 227 317 226 c 0,1872,1873
 318 224 318 224 318 213 c 0,1874,1875
 318 211 318 211 317 211 c 2,1862,1863
353 216 m 0,1876,1877
 352 216 352 216 355 225 c 0,1878,1879
 356 232 356 232 356 232 c 129,-1,1880
 356 232 356 232 354 230 c 128,-1,1881
 352 228 352 228 347 227 c 128,-1,1882
 342 226 342 226 341 227 c 256,1883,1884
 340 228 340 228 341 228.5 c 128,-1,1885
 342 229 342 229 343 229 c 128,-1,1886
 344 229 344 229 349.5 232 c 128,-1,1887
 355 235 355 235 359 239 c 128,-1,1888
 363 243 363 243 363.5 242.5 c 128,-1,1889
 364 242 364 242 362.5 239 c 128,-1,1890
 361 236 361 236 357.5 225.5 c 128,-1,1891
 354 215 354 215 353 216 c 0,1876,1877
223.5 221 m 128,-1,1893
 223 222 223 222 223 226 c 128,-1,1894
 223 230 223 230 222 238 c 0,1895,1896
 221 245 221 245 221 246 c 128,-1,1897
 221 247 221 247 222 247 c 128,-1,1898
 223 247 223 247 227 242 c 0,1899,1900
 232 235 232 235 238 234 c 0,1901,1902
 242 233 242 233 240 231 c 0,1903,1904
 239 229 239 229 235 231.5 c 128,-1,1905
 231 234 231 234 229 235 c 0,1906,1907
 226 239 226 239 226 236 c 0,1908,1909
 226 235 226 235 226 229 c 0,1910,1911
 226 220 226 220 225 220 c 128,-1,1892
 224 220 224 220 223.5 221 c 128,-1,1893
195 227 m 0,1912,1913
 195 230 195 230 193 236 c 0,1914,1915
 190 242 190 242 181 255 c 0,1916,1917
 173 267 173 267 175 268 c 0,1918,1919
 176 268 176 268 185 261 c 0,1920,1921
 201 246 201 246 207 246 c 0,1922,1923
 211 246 211 246 211 244.5 c 128,-1,1924
 211 243 211 243 207.5 243 c 128,-1,1925
 204 243 204 243 200 244 c 0,1926,1927
 193 247 193 247 188 252 c 1,1928,-1
 191 245 l 1,1929,-1
 192 244 l 2,1930,1931
 195 237 195 237 196.5 232.5 c 128,-1,1932
 198 228 198 228 197 226 c 0,1933,1934
 195 222 195 222 195 227 c 0,1912,1913
273 238 m 0,1935,1936
 270 240 270 240 268 245 c 0,1937,1938
 267 249 267 249 266 251 c 128,-1,1939
 265 253 265 253 264 251 c 0,1940,1941
 264 250 264 250 264 248 c 0,1942,1943
 262 242 262 242 261 240 c 0,1944,1945
 259 235 259 235 258 240 c 0,1946,1947
 258 241 258 241 257.5 241 c 128,-1,1948
 257 241 257 241 259 245 c 0,1949,1950
 263 255 263 255 263 261 c 0,1951,1952
 263 264 263 264 265 263 c 0,1953,1954
 266 262 266 262 266 260 c 0,1955,1956
 267 257 267 257 269 252 c 0,1957,1958
 272 244 272 244 275 239 c 0,1959,1960
 276 237 276 237 275.5 237 c 128,-1,1961
 275 237 275 237 273 238 c 0,1935,1936
314 243 m 0,1962,1963
 313 245 313 245 312 250 c 2,1964,-1
 311 255 l 1,1965,-1
 310 253 l 2,1966,1967
 309 250 309 250 306 247 c 128,-1,1968
 303 244 303 244 301 244 c 2,1969,-1
 300 246 l 1,1970,1971
 305 251 305 251 308 256 c 0,1972,1973
 310 261 310 261 311.5 265 c 128,-1,1974
 313 269 313 269 313.5 269 c 128,-1,1975
 314 269 314 269 314 260.5 c 128,-1,1976
 314 252 314 252 316 247 c 0,1977,1978
 318 240 318 240 316 240 c 256,1979,1980
 314 240 314 240 314 243 c 0,1962,1963
347 247 m 0,1981,1982
 346 254 346 254 348 268 c 0,1983,1984
 349 277 349 277 349 277 c 1,1985,-1
 347 275 l 2,1986,1987
 338 261 338 261 331 259 c 0,1988,1989
 329 259 329 259 330 260 c 2,1990,1991
 330 260 330 260 332 262 c 0,1992,1993
 336 266 336 266 339 271 c 0,1994,1995
 343 276 343 276 348 284 c 0,1996,1997
 352 288 352 288 354 291 c 0,1998,1999
 357 298 357 298 357 293 c 0,2000,2001
 357 292 357 292 355 286 c 0,2002,2003
 351 272 351 272 351 255 c 0,2004,2005
 350 244 350 244 349 243.5 c 128,-1,2006
 348 243 348 243 347 247 c 0,1981,1982
229 263 m 0,2007,2008
 229 273 229 273 226 285 c 0,2009,2010
 223 301 223 301 224 301 c 1,2011,2012
 224 302 224 302 227.5 297.5 c 128,-1,2013
 231 293 231 293 231 292 c 0,2014,2015
 231 290 231 290 242 273 c 0,2016,2017
 244 270 244 270 247 266 c 256,2018,2019
 250 262 250 262 249 261 c 256,2020,2021
 248 260 248 260 245.5 262 c 128,-1,2022
 243 264 243 264 240.5 268 c 128,-1,2023
 238 272 238 272 235 277 c 2,2024,-1
 231 284 l 1,2025,-1
 231 283 l 2,2026,2027
 232 277 232 277 232 267.5 c 128,-1,2028
 232 258 232 258 231 256 c 0,2029,2030
 230 250 230 250 229 256 c 0,2031,2032
 229 258 229 258 229 263 c 0,2007,2008
276 264 m 129,-1,2034
 276 264 276 264 278.5 273.5 c 128,-1,2035
 281 283 281 283 284 296.5 c 128,-1,2036
 287 310 287 310 287.5 310 c 128,-1,2037
 288 310 288 310 288 306 c 0,2038,2039
 290 292 290 292 295 275 c 0,2040,2041
 298 266 298 266 298 266 c 2,2042,2043
 297 265 297 265 295 269 c 0,2044,2045
 294 270 294 270 293 271 c 0,2046,2047
 290 278 290 278 288 289 c 0,2048,2049
 287 294 287 294 287 294 c 129,-1,2050
 287 294 287 294 285.5 285 c 128,-1,2051
 284 276 284 276 281 270 c 128,-1,2052
 278 264 278 264 277 264 c 128,-1,2033
 276 264 276 264 276 264 c 129,-1,2034
367 -33 m 2,2053,2054
 364 -28 364 -28 362 -18 c 0,2055,2056
 362 -16 362 -16 360 -17 c 128,-1,2057
 358 -18 358 -18 356 -20 c 2,2058,-1
 355 -21 l 1,2059,-1
 361 -28 l 2,2060,2061
 367 -34 367 -34 367 -34 c 1,2062,-1
 367 -33 l 2,2053,2054
186 -16.5 m 128,-1,2064
 188 -13 188 -13 190.5 -9.5 c 128,-1,2065
 193 -6 193 -6 193 -5 c 0,2066,2067
 193 -3 193 -3 187 -2 c 2,2068,-1
 185 -1 l 1,2069,-1
 185 -8 l 2,2070,2071
 184 -14 184 -14 183.5 -17 c 128,-1,2072
 183 -20 183 -20 183.5 -20 c 128,-1,2063
 184 -20 184 -20 186 -16.5 c 128,-1,2064
405 -14 m 2,2073,2074
 404 -13 404 -13 404 -13 c 1,2075,-1
 404 -14 l 2,2076,2077
 405 -16 405 -16 405 -16 c 1,2078,-1
 405 -14 l 2,2073,2074
423 20 m 0,2079,2080
 419 25 419 25 418 27 c 0,2081,2082
 418 28 418 28 417 27 c 128,-1,2083
 416 26 416 26 414 24 c 2,2084,-1
 413 21 l 1,2085,-1
 419 18 l 2,2086,2087
 426 15 426 15 426 15 c 129,-1,2088
 426 15 426 15 425 16.5 c 128,-1,2089
 424 18 424 18 423 20 c 0,2079,2080
133 33 m 128,-1,2091
 136 35 136 35 136.5 35 c 128,-1,2092
 137 35 137 35 137 37 c 0,2093,2094
 137 41 137 41 132 44 c 0,2095,2096
 130 45 130 45 130 43 c 0,2097,2098
 128 35 128 35 124 27 c 2,2099,-1
 123 25 l 1,2100,-1
 127 28 l 2,2101,2090
 130 31 130 31 133 33 c 128,-1,2091
441 80 m 0,2102,2103
 447 82 447 82 450 88 c 0,2104,2105
 456 100 456 100 451 112 c 0,2106,2107
 446 121 446 121 441 116 c 0,2108,2109
 439 114 439 114 439 109 c 2,2110,-1
 438 103 l 1,2111,2112
 438 103 438 103 438 105 c 0,2113,2114
 437 114 437 114 435 116.5 c 128,-1,2115
 433 119 433 119 428 120 c 0,2116,2117
 411 123 411 123 410 118 c 0,2118,2119
 411 117 411 117 414 106 c 0,2120,2121
 419 86 419 86 425 81 c 0,2122,2123
 428 78 428 78 432 78 c 128,-1,2124
 436 78 436 78 441 80 c 0,2102,2103
488.5 87 m 128,-1,2126
 490 87 490 87 488 91 c 128,-1,2127
 486 95 486 95 486 96 c 0,2128,2129
 486 99 486 99 489 93 c 256,2130,2131
 492 87 492 87 494 87 c 256,2132,2133
 496 87 496 87 493 91 c 0,2134,2135
 490 94 490 94 490 95 c 128,-1,2136
 490 96 490 96 493.5 92.5 c 128,-1,2137
 497 89 497 89 497.5 89 c 128,-1,2138
 498 89 498 89 501 91 c 2,2139,-1
 503 92 l 1,2140,-1
 501 93 l 2,2141,2142
 496 95 496 95 492 103 c 0,2143,2144
 487 113 487 113 482 116 c 0,2145,2146
 480 117 480 117 479.5 116.5 c 128,-1,2147
 479 116 479 116 478 110 c 0,2148,2149
 475 96 475 96 473 93 c 0,2150,2151
 472 92 472 92 476 90 c 1,2152,-1
 476 93 l 2,2153,2154
 476 96 476 96 476.5 96 c 128,-1,2155
 477 96 477 96 478 93 c 0,2156,2157
 482 86 482 86 486 87 c 0,2158,2125
 487 87 487 87 488.5 87 c 128,-1,2126
455 133 m 0,2159,2160
 462 149 462 149 447 153 c 0,2161,2162
 443 155 443 155 438 154 c 0,2163,2164
 433 154 433 154 425 143 c 0,2165,2166
 417 131 417 131 412 127 c 2,2167,-1
 410 126 l 1,2168,-1
 413 125 l 2,2169,2170
 428 123 428 123 442 138 c 0,2171,2172
 445 141 445 141 445 140 c 0,2173,2174
 445 138 445 138 441.5 133 c 128,-1,2175
 438 128 438 128 436 128 c 1,2176,2177
 436 128 436 128 436 125.5 c 128,-1,2178
 436 123 436 123 437 122 c 0,2179,2180
 449 119 449 119 455 133 c 0,2159,2160
410 164 m 0,2181,2182
 414 170 414 170 415.5 179 c 128,-1,2183
 417 188 417 188 415 195 c 0,2184,2185
 413 199 413 199 411 199.5 c 128,-1,2186
 409 200 409 200 398 200 c 0,2187,2188
 384 199 384 199 381 198 c 2,2189,-1
 378 197 l 1,2190,-1
 378 193 l 2,2191,2192
 377 185 377 185 380 180 c 0,2193,2194
 381 180 381 180 386.5 177.5 c 128,-1,2195
 392 175 392 175 396 173 c 0,2196,2197
 403 169 403 169 406 164 c 0,2198,2199
 407 161 407 161 410 164 c 0,2181,2182
402 180 m 1,2200,2201
 398 182 398 182 398 187 c 0,2202,2203
 398 194 398 194 405 194 c 0,2204,2205
 410 194 410 194 412 189 c 0,2206,2207
 413 185 413 185 410 182 c 0,2208,2209
 406 179 406 179 402 181 c 1,2210,-1
 402 180 l 1,2200,2201
445 167 m 0,2211,2212
 452 175 452 175 448 189 c 0,2213,2214
 447 195 447 195 441 196 c 2,2215,-1
 437 196 l 1,2216,-1
 437 191 l 1,2217,-1
 440 192 l 2,2218,2219
 443 192 443 192 445 190 c 0,2220,2221
 449 186 449 186 446.5 181.5 c 128,-1,2222
 444 177 444 177 439 178 c 1,2223,-1
 439 173 l 1,2224,-1
 439 172 l 1,2225,-1
 441 164 l 1,2226,-1
 442 164 l 2,2227,2228
 443 165 443 165 445 167 c 0,2211,2212
451 201 m 0,2229,2230
 449 204 449 204 443.5 210 c 128,-1,2231
 438 216 438 216 437 216 c 1,2232,2233
 437 216 437 216 437 214 c 128,-1,2234
 437 212 437 212 437 209 c 128,-1,2235
 437 206 437 206 437 204 c 2,2236,-1
 438 201 l 1,2237,-1
 444 200 l 2,2238,2239
 451 200 451 200 451 201 c 0,2229,2230
382 203 m 0,2240,2241
 402 206 402 206 411 205 c 0,2242,2243
 415 204 415 204 415 204 c 2,2244,2245
 417 206 417 206 404 221 c 0,2246,2247
 398 229 398 229 396 229.5 c 128,-1,2248
 394 230 394 230 389 225 c 0,2249,2250
 381 219 381 219 377 212 c 0,2251,2252
 374 207 374 207 373 205 c 0,2253,2254
 371 201 371 201 371 202 c 1,2255,2256
 372 202 372 202 382 203 c 0,2240,2241
EndSplineSet
Validated: 165
EndChar

StartChar: Parrot
Encoding: 62249 62249 45
Width: 353
GlyphClass: 1
Flags: W
LayerCount: 2
Fore
SplineSet
3 395 m 1,0,-1
 59 408 l 1,1,-1
 182 360 l 1,2,-1
 353 91 l 1,3,-1
 276 140 l 1,4,-1
 274 -33 l 1,5,-1
 236 47 l 1,6,-1
 204 -99 l 1,7,-1
 200 187 l 1,8,-1
 137 208 l 1,9,-1
 90 310 l 1,10,-1
 38 354 l 1,11,-1
 0 297 l 1,12,-1
 3 395 l 1,0,-1
EndSplineSet
Validated: 1
EndChar

StartChar: Pop!_OS
Encoding: 62250 62250 46
Width: 512
GlyphClass: 1
Flags: W
LayerCount: 2
Fore
SplineSet
256 410 m 128,-1,1
 362 410 362 410 437 335 c 128,-1,2
 512 260 512 260 512 154 c 128,-1,3
 512 48 512 48 437 -27 c 128,-1,4
 362 -102 362 -102 256 -102 c 128,-1,5
 150 -102 150 -102 75 -27 c 128,-1,6
 0 48 0 48 0 154 c 128,-1,7
 0 260 0 260 75 335 c 128,-1,0
 150 410 150 410 256 410 c 128,-1,1
208 348 m 0,8,9
 207 348 207 348 206 348 c 0,10,11
 174 347 174 347 142 326 c 0,12,13
 101 298 101 298 101 280 c 0,14,15
 101 271 101 271 113 247 c 0,16,17
 199 74 199 74 223 49 c 0,18,19
 232 40 232 40 243 41 c 128,-1,20
 254 42 254 42 257 52 c 0,21,22
 261 65 261 65 251 89 c 2,23,-1
 225 157 l 1,24,25
 269 172 269 172 290 217 c 1,26,-1
 290 218 l 1,27,28
 301 240 301 240 293 275 c 0,29,30
 284 313 284 313 252 334 c 0,31,32
 231 348 231 348 208 348 c 0,8,9
184 298 m 0,33,34
 187 299 187 299 190.5 297.5 c 128,-1,35
 194 296 194 296 200 291 c 0,36,37
 221 275 221 275 229 248 c 0,38,39
 231 240 231 240 231 232 c 0,40,41
 231 227 231 227 230 222 c 0,42,43
 230 215 230 215 227 210 c 0,44,45
 222 201 222 201 214 203 c 0,46,47
 210 203 210 203 206 208 c 0,48,49
 191 223 191 223 180 253 c 0,50,51
 179 258 179 258 177.5 264.5 c 128,-1,52
 176 271 176 271 175 279 c 128,-1,53
 174 287 174 287 176.5 292.5 c 128,-1,54
 179 298 179 298 184 298 c 0,33,34
365 255 m 0,55,56
 349 255 349 255 343 250 c 0,57,58
 335 242 335 242 331 219 c 0,59,60
 315 106 315 106 329 100 c 0,61,62
 335 98 335 98 343 107.5 c 128,-1,63
 351 117 351 117 372 155 c 2,64,-1
 387 183 l 2,65,66
 400 210 400 210 403 221 c 0,67,68
 406 234 406 234 398 242 c 0,69,70
 387 252 387 252 371 255 c 0,71,72
 368 255 368 255 365 255 c 0,55,56
324 77 m 0,73,74
 321 77 321 77 319 77 c 0,75,76
 307 73 307 73 304 60.5 c 128,-1,77
 301 48 301 48 310 41 c 0,78,79
 320 33 320 33 330 39 c 0,80,81
 337 43 337 43 338 51 c 0,82,83
 341 60 341 60 337 68.5 c 128,-1,84
 333 77 333 77 324 77 c 0,73,74
153 0 m 2,85,86
 146 0 146 0 141.5 -4.5 c 128,-1,87
 137 -9 137 -9 137 -17 c 0,88,89
 137 -24 137 -24 141.5 -29 c 128,-1,90
 146 -34 146 -34 153 -34 c 2,91,-1
 359 -34 l 2,92,93
 366 -34 366 -34 370.5 -29 c 128,-1,94
 375 -24 375 -24 375 -17 c 0,95,96
 375 -9 375 -9 370.5 -4.5 c 128,-1,97
 366 0 366 0 359 0 c 2,98,-1
 153 0 l 2,85,86
EndSplineSet
Validated: 545
EndChar

StartChar: Rocky
Encoding: 62251 62251 47
Width: 512
GlyphClass: 1
Flags: W
LayerCount: 2
Fore
SplineSet
498 70 m 1,0,-1
 333 234 l 1,1,-1
 74 -26 l 1,2,3
 0 49 0 49 0 154 c 0,4,5
 0 260 0 260 75 335 c 128,-1,6
 150 410 150 410 256 410 c 128,-1,7
 362 410 362 410 437 335 c 128,-1,8
 512 260 512 260 512 154 c 0,9,10
 512 110 512 110 498 70 c 1,0,-1
451 -12 m 1,11,12
 415 -54 415 -54 364.5 -78 c 128,-1,13
 314 -102 314 -102 256 -102 c 0,14,15
 200 -102 200 -102 149 -79 c 1,16,-1
 333 106 l 1,17,-1
 451 -12 l 1,11,12
EndSplineSet
Validated: 1
EndChar

StartChar: Snappy
Encoding: 62252 62252 48
Width: 500
GlyphClass: 1
Flags: W
LayerCount: 2
Fore
SplineSet
0 154 m 128,-1,1
 0 258 0 258 73 331 c 128,-1,2
 146 404 146 404 250 404 c 128,-1,3
 354 404 354 404 427 331 c 128,-1,4
 500 258 500 258 500 154 c 128,-1,5
 500 50 500 50 427 -23 c 128,-1,6
 354 -96 354 -96 250 -96 c 128,-1,7
 146 -96 146 -96 73 -23 c 128,-1,0
 0 50 0 50 0 154 c 128,-1,1
282 233 m 1,8,-1
 256 220 l 1,9,-1
 282 206 l 1,10,-1
 282 233 l 1,8,-1
282 239 m 1,11,-1
 282 255 l 1,12,13
 282 255 282 255 283 256 c 1,14,-1
 283 256 l 1,15,-1
 283 257 l 1,16,-1
 284 257 l 1,17,-1
 284 257 l 1,18,-1
 297 263 l 1,19,-1
 250 287 l 1,20,-1
 186 255 l 1,21,-1
 250 222 l 1,22,-1
 282 239 l 1,11,-1
112 81 m 1,23,-1
 178 49 l 1,24,-1
 178 113 l 1,25,-1
 112 146 l 1,26,-1
 112 81 l 1,23,-1
174 185 m 1,27,-1
 112 216 l 1,28,-1
 112 151 l 1,29,-1
 113 151 l 1,30,-1
 116 150 l 1,31,-1
 178 119 l 1,32,-1
 178 181 l 1,33,-1
 178 183 l 1,34,-1
 177 183 l 1,35,-1
 174 185 l 1,27,-1
244 220 m 1,36,-1
 214 235 l 1,37,-1
 202 241 l 1,38,-1
 180 252 l 1,39,-1
 178 251 l 1,40,-1
 116 220 l 1,41,-1
 177 189 l 1,42,-1
 178 189 l 1,43,-1
 180 188 l 1,44,-1
 183 189 l 1,45,-1
 244 220 l 1,36,-1
322 49 m 1,46,-1
 387 81 l 1,47,-1
 387 146 l 1,48,-1
 322 113 l 1,49,-1
 322 49 l 1,46,-1
354.5 147 m 128,-1,51
 354 147 354 147 354 148 c 1,52,-1
 354 148 l 1,53,-1
 323 163 l 1,54,-1
 323 119 l 1,55,-1
 384 150 l 1,56,-1
 373 156 l 1,57,-1
 356 148 l 1,58,-1
 356 148 l 1,59,50
 355 147 355 147 354.5 147 c 128,-1,51
253 78 m 1,60,-1
 252 78 l 1,61,-1
 252 14 l 1,62,-1
 314 45 l 1,63,-1
 317 46 l 1,64,-1
 317 49 l 1,65,-1
 317 111 l 1,66,-1
 256 80 l 1,67,-1
 253 78 l 1,60,-1
244 80 m 1,68,-1
 183 111 l 1,69,-1
 183 46 l 1,70,-1
 186 45 l 1,71,-1
 248 14 l 1,72,-1
 248 76 l 1,73,-1
 248 78 l 1,74,-1
 247 78 l 1,75,-1
 244 80 l 1,68,-1
357 218 m 1,76,-1
 357 154 l 1,77,-1
 367 159 l 1,78,-1
 370 160 l 1,79,-1
 372 161 l 1,80,-1
 422 186 l 1,81,-1
 422 251 l 1,82,-1
 357 218 l 1,76,-1
322 184 m 1,83,-1
 322 169 l 1,84,-1
 352 154 l 1,85,-1
 352 218 l 1,86,-1
 322 233 l 1,87,-1
 320 235 l 1,88,-1
 317 236 l 1,89,-1
 302 243 l 1,90,-1
 300 245 l 1,91,-1
 297 246 l 1,92,-1
 287 251 l 1,93,-1
 287 204 l 1,94,-1
 317 189 l 1,95,-1
 320 188 l 1,96,-1
 321 187 l 1,97,-1
 322 187 l 1,98,-1
 322 186 l 1,99,-1
 322 186 l 1,100,101
 322 186 322 186 322.5 185.5 c 128,-1,102
 323 185 323 185 323 185 c 1,103,-1
 322 184 l 1,83,-1
302 249 m 1,104,-1
 305 247 l 1,105,-1
 308 246 l 1,106,-1
 317 241 l 1,107,-1
 320 240 l 1,108,-1
 322 239 l 1,109,-1
 355 223 l 1,110,-1
 419 255 l 1,111,-1
 355 287 l 1,112,-1
 308 264 l 1,113,-1
 305 262 l 1,114,-1
 302 261 l 1,115,-1
 291 255 l 1,116,-1
 302 249 l 1,104,-1
305 175 m 1,117,-1
 302 173 l 1,118,-1
 256 150 l 1,119,-1
 253 148 l 1,120,-1
 252 148 l 1,121,-1
 252 84 l 1,122,-1
 314 115 l 1,123,-1
 317 116 l 1,124,-1
 317 119 l 1,125,-1
 317 166 l 1,126,-1
 317 169 l 1,127,-1
 317 171 l 1,128,-1
 317 181 l 1,129,-1
 308 176 l 1,130,-1
 305 175 l 1,117,-1
247 148 m 1,131,-1
 244 150 l 1,132,-1
 214 165 l 1,133,-1
 183 181 l 1,134,-1
 183 116 l 1,135,-1
 186 115 l 1,136,-1
 215 100 l 1,137,-1
 248 84 l 1,138,-1
 248 146 l 1,139,-1
 248 148 l 1,140,-1
 247 148 l 1,131,-1
297 176 m 1,141,-1
 300 178 l 1,142,-1
 302 179 l 1,143,-1
 314 185 l 1,144,-1
 287 198 l 1,145,-1
 285 200 l 1,146,-1
 282 201 l 1,147,-1
 252 216 l 1,148,-1
 250 217 l 1,149,-1
 248 216 l 1,150,-1
 186 185 l 1,151,-1
 215 170 l 1,152,-1
 248 154 l 1,153,-1
 250 153 l 1,154,-1
 252 154 l 1,155,-1
 297 176 l 1,141,-1
EndSplineSet
Validated: 5
EndChar

StartChar: Solus
Encoding: 62253 62253 49
Width: 497
GlyphClass: 1
Flags: W
LayerCount: 2
Fore
SplineSet
154 403 m 1,0,1
 159 401 159 401 174 378 c 1,2,3
 207 388 207 388 241 388 c 0,4,5
 341 388 341 388 411.5 317 c 128,-1,6
 482 246 482 246 482 147 c 2,7,-1
 482 146 l 1,8,9
 486 143 486 143 489 139 c 2,10,-1
 497 132 l 1,11,-1
 493 124 l 2,12,13
 485 109 485 109 477 97 c 0,14,15
 428 32 428 32 299 13 c 0,16,17
 199 -2 199 -2 41 12 c 1,18,19
 29 29 29 29 21 49 c 1,20,21
 11 51 11 51 6 53 c 2,22,-1
 0 56 l 1,23,-1
 4 64 l 2,24,25
 7 69 7 69 11 76 c 1,26,27
 0 110 0 110 0 147 c 0,28,29
 0 218 0 218 39 278 c 128,-1,30
 78 338 78 338 143 367 c 1,31,32
 149 385 149 385 154 403 c 1,0,1
466 61 m 1024,33,-1
241 -94 m 0,34,35
 186 -94 186 -94 137 -71 c 128,-1,36
 88 -48 88 -48 54 -5 c 1,37,38
 203 -17 203 -17 302 -3 c 0,39,40
 411 13 411 13 466 61 c 1,41,42
 440 -9 440 -9 378 -51.5 c 128,-1,43
 316 -94 316 -94 241 -94 c 0,34,35
162 369 m 1,44,45
 161 364 161 364 159.5 359.5 c 128,-1,46
 158 355 158 355 157 350 c 0,47,48
 150 327 150 327 140 301 c 0,49,50
 136 291 136 291 132 280 c 0,51,52
 126 266 126 266 119 250 c 0,53,54
 116 245 116 245 114 240 c 0,55,56
 92 193 92 193 60 134 c 0,57,58
 48 113 48 113 23 68 c 1,59,-1
 62 58 l 2,60,61
 95 53 95 53 147 48 c 256,62,63
 199 43 199 43 252 38 c 1,64,65
 252 40 252 40 245.5 134.5 c 128,-1,66
 239 229 239 229 237 248 c 1,67,68
 232 257 232 257 227 266 c 0,69,70
 223 274 223 274 217 282 c 2,71,72
 217 282 217 282 216.5 283 c 128,-1,73
 216 284 216 284 216 285 c 0,74,75
 212 291 212 291 208 296.5 c 128,-1,76
 204 302 204 302 199 310 c 0,77,78
 189 325 189 325 185 331 c 0,79,80
 180 338 180 338 176 345 c 0,81,82
 171 353 171 353 167 360 c 0,83,84
 164 365 164 365 162 369 c 1,44,45
256 241 m 1,85,86
 282 187 282 187 285 131.5 c 128,-1,87
 288 76 288 76 271 37 c 1,88,89
 289 38 289 38 307 37.5 c 128,-1,90
 325 37 325 37 352 42.5 c 128,-1,91
 379 48 379 48 403 60 c 1,92,93
 383 104 383 104 346.5 149.5 c 128,-1,94
 310 195 310 195 283 218 c 2,95,-1
 256 241 l 1,85,86
328 196 m 1,96,97
 373 165 373 165 388 150 c 0,98,99
 423 115 423 115 418 68 c 1,100,101
 456 87 456 87 478 128 c 1,102,103
 448 155 448 155 388 177 c 0,104,105
 359 187 359 187 328 196 c 1,96,97
EndSplineSet
Validated: 33
EndChar

StartChar: Void
Encoding: 62254 62254 50
Width: 499
GlyphClass: 1
Flags: W
LayerCount: 2
Fore
SplineSet
249 403 m 0,0,1
 353 403 353 403 426 330 c 128,-1,2
 499 257 499 257 499 154 c 0,3,4
 499 74 499 74 452 9 c 1,5,-1
 395 65 l 1,6,7
 420 106 420 106 420 154 c 0,8,9
 420 225 420 225 370 275 c 128,-1,10
 320 325 320 325 249 325 c 0,11,12
 202 325 202 325 161 300 c 1,13,-1
 104 356 l 1,14,15
 169 403 169 403 249 403 c 0,0,1
395 -48 m 1,16,17
 330 -95 330 -95 249 -95 c 0,18,19
 146 -95 146 -95 73 -22 c 128,-1,20
 0 51 0 51 0 154 c 0,21,22
 0 234 0 234 47 300 c 1,23,-1
 104 243 l 1,24,25
 79 202 79 202 79 154 c 0,26,27
 79 83 79 83 129 33 c 128,-1,28
 179 -17 179 -17 249 -17 c 0,29,30
 297 -17 297 -17 338 8 c 1,31,-1
 395 -48 l 1,16,17
170 154 m 128,-1,33
 170 187 170 187 193.5 210 c 128,-1,34
 217 233 217 233 249.5 233 c 128,-1,35
 282 233 282 233 305.5 210 c 128,-1,36
 329 187 329 187 329 154 c 128,-1,37
 329 121 329 121 305.5 98 c 128,-1,38
 282 75 282 75 249.5 75 c 128,-1,39
 217 75 217 75 193.5 98 c 128,-1,32
 170 121 170 121 170 154 c 128,-1,33
EndSplineSet
Validated: 1
EndChar

StartChar: Zorin
Encoding: 62255 62255 51
Width: 500
GlyphClass: 1
Flags: W
LayerCount: 2
Fore
SplineSet
246 381 m 1,0,-1
 375 380 l 1,1,-1
 410 320 l 1,2,-1
 90 320 l 1,3,-1
 125 381 l 1,4,-1
 246 381 l 1,0,-1
47 244 m 1,5,-1
 301 244 l 1,6,-1
 61 82 l 1,7,-1
 44 82 l 1,8,-1
 0 160 l 1,9,-1
 47 244 l 1,5,-1
437 244 m 1,10,-1
 453 244 l 1,11,-1
 500 160 l 1,12,-1
 456 82 l 1,13,-1
 197 82 l 1,14,-1
 437 244 l 1,10,-1
87 6 m 1,15,-1
 413 6 l 1,16,-1
 375 -61 l 1,17,-1
 254 -61 l 1,18,-1
 125 -60 l 1,19,-1
 87 6 l 1,15,-1
EndSplineSet
Validated: 1
EndChar

StartChar: Codeberg
Encoding: 62256 62256 52
Width: 512
GlyphClass: 1
Flags: W
LayerCount: 2
Fore
SplineSet
256 394 m 128,-1,1
 362 394 362 394 437 319 c 128,-1,2
 512 244 512 244 512 138 c 0,3,4
 512 64 512 64 473 2 c 1,5,-1
 330 2 l 1,6,-1
 326 16 l 1,7,-1
 462 16 l 1,8,-1
 450 31 l 1,9,-1
 321 31 l 1,10,-1
 317 45 l 1,11,-1
 439 45 l 1,12,-1
 426 62 l 1,13,-1
 313 62 l 1,14,-1
 309 75 l 1,15,-1
 417 75 l 1,16,-1
 402 94 l 1,17,-1
 304 94 l 1,18,-1
 301 104 l 1,19,-1
 394 104 l 1,20,-1
 377 125 l 1,21,-1
 295 125 l 1,22,-1
 293 133 l 1,23,-1
 371 133 l 1,24,-1
 353 158 l 1,25,-1
 286 158 l 1,26,-1
 285 163 l 1,27,-1
 349 163 l 1,28,-1
 259 278 l 2,29,30
 258 279 258 279 256 279 c 128,-1,31
 254 279 254 279 253 278 c 2,32,-1
 39 2 l 1,33,34
 0 64 0 64 0 138 c 0,35,36
 0 244 0 244 75 319 c 128,-1,0
 150 394 150 394 256 394 c 128,-1,1
334 -13 m 1,37,-1
 462 -13 l 1,38,39
 457 -21 457 -21 451 -27 c 1,40,-1
 338 -27 l 1,41,-1
 334 -13 l 1,37,-1
342 -43 m 1,42,-1
 437 -43 l 1,43,44
 430 -50 430 -50 422 -57 c 1,45,-1
 346 -57 l 1,46,-1
 342 -43 l 1,42,-1
350 -72 m 1,47,-1
 402 -72 l 1,48,49
 390 -80 390 -80 380 -86 c 1,50,-1
 354 -86 l 1,51,-1
 350 -72 l 1,47,-1
EndSplineSet
Validated: 1
EndChar

StartChar: KDE
Encoding: 62257 62257 53
Width: 512
GlyphClass: 1
Flags: W
LayerCount: 2
Fore
SplineSet
255.5 410 m 128,-1,1
 266 410 266 410 270 400 c 1,2,3
 356 395 356 395 420 338 c 0,4,5
 423 339 423 339 426 339 c 0,6,7
 432 339 432 339 436.5 334.5 c 128,-1,8
 441 330 441 330 441 324 c 0,9,10
 441 321 441 321 440 318 c 0,11,12
 497 254 497 254 502 168 c 1,13,14
 512 165 512 165 512 154.5 c 128,-1,15
 512 144 512 144 502 140 c 1,16,17
 497 54 497 54 440 -10 c 0,18,19
 441 -13 441 -13 441 -16 c 0,20,21
 441 -22 441 -22 436.5 -26.5 c 128,-1,22
 432 -31 432 -31 426 -31 c 0,23,24
 423 -31 423 -31 420 -30 c 0,25,26
 356 -87 356 -87 270 -92 c 1,27,28
 267 -102 267 -102 256.5 -102 c 128,-1,29
 246 -102 246 -102 242 -92 c 1,30,31
 156 -87 156 -87 92 -30 c 0,32,33
 89 -31 89 -31 86 -31 c 0,34,35
 80 -31 80 -31 75.5 -26.5 c 128,-1,36
 71 -22 71 -22 71 -16 c 0,37,38
 71 -13 71 -13 72 -10 c 0,39,40
 15 54 15 54 10 140 c 1,41,42
 0 143 0 143 0 154 c 128,-1,43
 0 165 0 165 10 168 c 1,44,45
 15 254 15 254 72 318 c 0,46,47
 71 321 71 321 71 324 c 0,48,49
 71 330 71 330 75.5 334.5 c 128,-1,50
 80 339 80 339 86 339 c 0,51,52
 90 339 90 339 92 338 c 0,53,54
 156 395 156 395 242 400 c 1,55,0
 245 410 245 410 255.5 410 c 128,-1,1
242 388 m 1,56,57
 161 383 161 383 101 329 c 0,58,59
 102 326 102 326 102 324 c 0,60,61
 102 317 102 317 97.5 312.5 c 128,-1,62
 93 308 93 308 86 308 c 0,63,64
 84 308 84 308 81 309 c 0,65,66
 27 249 27 249 22 168 c 1,67,68
 31 164 31 164 31 154 c 128,-1,69
 31 144 31 144 22 140 c 1,70,71
 27 59 27 59 81 -1 c 0,72,73
 83 0 83 0 86 0 c 0,74,75
 93 0 93 0 97.5 -4.5 c 128,-1,76
 102 -9 102 -9 102 -16 c 0,77,78
 102 -19 102 -19 101 -21 c 0,79,80
 161 -75 161 -75 242 -80 c 1,81,82
 246 -71 246 -71 256 -71 c 128,-1,83
 266 -71 266 -71 270 -80 c 1,84,85
 351 -75 351 -75 411 -21 c 0,86,87
 410 -19 410 -19 410 -16 c 0,88,89
 410 -9 410 -9 414.5 -4.5 c 128,-1,90
 419 0 419 0 426 0 c 0,91,92
 429 0 429 0 431 -1 c 0,93,94
 485 59 485 59 490 140 c 1,95,96
 481 144 481 144 481 154 c 128,-1,97
 481 164 481 164 490 168 c 1,98,99
 485 249 485 249 431 309 c 0,100,101
 429 308 429 308 426 308 c 0,102,103
 419 308 419 308 414.5 312.5 c 128,-1,104
 410 317 410 317 410 324 c 0,105,106
 410 327 410 327 411 329 c 0,107,108
 351 383 351 383 270 388 c 1,109,110
 266 379 266 379 256 379 c 128,-1,111
 246 379 246 379 242 388 c 1,56,57
256 336 m 128,-1,113
 267 336 267 336 270 326 c 1,114,115
 337 320 337 320 383 271 c 128,-1,116
 429 222 429 222 429 154.5 c 128,-1,117
 429 87 429 87 383 37.5 c 128,-1,118
 337 -12 337 -12 270 -18 c 1,119,120
 267 -28 267 -28 256 -28 c 128,-1,121
 245 -28 245 -28 242 -18 c 1,122,123
 175 -12 175 -12 129 37 c 128,-1,124
 83 86 83 86 83 153.5 c 128,-1,125
 83 221 83 221 129 270.5 c 128,-1,126
 175 320 175 320 242 326 c 1,127,112
 245 336 245 336 256 336 c 128,-1,113
270 314 m 1,128,129
 266 305 266 305 256 305 c 128,-1,130
 246 305 246 305 242 314 c 1,131,132
 180 308 180 308 138 262.5 c 128,-1,133
 96 217 96 217 96 154 c 128,-1,134
 96 91 96 91 138 45.5 c 128,-1,135
 180 0 180 0 242 -6 c 1,136,137
 246 3 246 3 256 3 c 128,-1,138
 266 3 266 3 270 -6 c 1,139,140
 332 0 332 0 374 45.5 c 128,-1,141
 416 91 416 91 416 154 c 128,-1,142
 416 217 416 217 374 262.5 c 128,-1,143
 332 308 332 308 270 314 c 1,128,129
194 154 m 128,-1,145
 194 180 194 180 212 198 c 128,-1,146
 230 216 230 216 256 216 c 128,-1,147
 282 216 282 216 300 198 c 128,-1,148
 318 180 318 180 318 154 c 128,-1,149
 318 128 318 128 300 110 c 128,-1,150
 282 92 282 92 256 92 c 128,-1,151
 230 92 230 92 212 110 c 128,-1,144
 194 128 194 128 194 154 c 128,-1,145
EndSplineSet
Validated: 2097153
EndChar

StartChar: KDE
Encoding: 62258 62258 54
Width: 372
GlyphClass: 1
Flags: W
LayerCount: 2
Fore
SplineSet
93 340 m 128,-1,1
 103 340 103 340 109.5 333.5 c 128,-1,2
 116 327 116 327 116 317 c 128,-1,3
 116 307 116 307 109.5 300.5 c 128,-1,4
 103 294 103 294 93 294 c 128,-1,5
 83 294 83 294 76.5 300.5 c 128,-1,6
 70 307 70 307 70 317 c 128,-1,7
 70 327 70 327 76.5 333.5 c 128,-1,0
 83 340 83 340 93 340 c 128,-1,1
256 340 m 1,8,-1
 372 224 l 1,9,-1
 326 177 l 1,10,-1
 256 107 l 1,11,-1
 209 154 l 1,12,-1
 279 224 l 1,13,-1
 209 294 l 1,14,-1
 256 340 l 1,8,-1
34.5 201 m 128,-1,16
 49 201 49 201 59.5 190.5 c 128,-1,17
 70 180 70 180 70 165.5 c 128,-1,18
 70 151 70 151 59.5 141 c 128,-1,19
 49 131 49 131 34.5 131 c 128,-1,20
 20 131 20 131 10 141 c 128,-1,21
 0 151 0 151 0 165.5 c 128,-1,22
 0 180 0 180 10 190.5 c 128,-1,15
 20 201 20 201 34.5 201 c 128,-1,16
139.5 61 m 128,-1,24
 159 61 159 61 172.5 47.5 c 128,-1,25
 186 34 186 34 186 14.5 c 128,-1,26
 186 -5 186 -5 172.5 -18.5 c 128,-1,27
 159 -32 159 -32 139.5 -32 c 128,-1,28
 120 -32 120 -32 106.5 -18.5 c 128,-1,29
 93 -5 93 -5 93 14.5 c 128,-1,30
 93 34 93 34 106.5 47.5 c 128,-1,23
 120 61 120 61 139.5 61 c 128,-1,24
EndSplineSet
Validated: 2097153
EndChar

